<svg xmlns="http://www.w3.org/2000/svg" xmlns:xlink="http://www.w3.org/1999/xlink" width="218" zoomAndPan="magnify" viewBox="0 0 163.5 89.249998" height="119" preserveAspectRatio="xMidYMid meet" version="1.0"><defs><clipPath id="8be777e983"><path d="M 0.433594 37 L 76 37 L 76 68 L 0.433594 68 Z M 0.433594 37 " clip-rule="nonzero"/></clipPath><clipPath id="ac5dbaa68f"><path d="M 87 37 L 162.570312 37 L 162.570312 68 L 87 68 Z M 87 37 " clip-rule="nonzero"/></clipPath></defs><path fill="#754e43" d="M 67.875 26.6875 C 67.875 11.972656 81.535156 0 81.535156 0 C 81.535156 0 95.195312 11.972656 95.195312 26.6875 C 95.195312 27.082031 95.195312 27.472656 95.195312 27.933594 C 94.34375 44.808594 68.789062 44.808594 67.941406 27.933594 C 67.875 27.472656 67.875 27.082031 67.875 26.6875 Z M 67.875 26.6875 " fill-opacity="1" fill-rule="nonzero"/><path fill="#fff0da" d="M 72.058594 26.035156 C 72.058594 15.832031 81.535156 7.523438 81.535156 7.523438 C 81.535156 7.523438 91.011719 15.832031 91.011719 26.035156 C 91.011719 26.296875 91.011719 26.625 91.011719 26.886719 C 90.425781 38.59375 72.710938 38.59375 72.058594 26.886719 C 72.058594 26.625 72.058594 26.296875 72.058594 26.035156 Z M 72.058594 26.035156 " fill-opacity="1" fill-rule="nonzero"/><path fill="#e87d4a" d="M 86.503906 62.210938 C 86.503906 62.53125 86.472656 62.851562 86.40625 63.167969 C 86.34375 63.484375 86.253906 63.789062 86.128906 64.085938 C 86.007812 64.382812 85.855469 64.667969 85.675781 64.933594 C 85.496094 65.203125 85.292969 65.449219 85.066406 65.679688 C 84.839844 65.90625 84.589844 66.109375 84.324219 66.289062 C 84.054688 66.46875 83.773438 66.617188 83.476562 66.742188 C 83.179688 66.867188 82.871094 66.957031 82.554688 67.019531 C 82.242188 67.085938 81.921875 67.117188 81.601562 67.117188 C 81.277344 67.117188 80.960938 67.085938 80.644531 67.019531 C 80.328125 66.957031 80.023438 66.867188 79.722656 66.742188 C 79.425781 66.617188 79.144531 66.46875 78.875 66.289062 C 78.609375 66.109375 78.363281 65.90625 78.132812 65.679688 C 77.90625 65.449219 77.703125 65.203125 77.523438 64.933594 C 77.34375 64.667969 77.195312 64.382812 77.070312 64.085938 C 76.949219 63.789062 76.855469 63.484375 76.792969 63.167969 C 76.730469 62.851562 76.699219 62.53125 76.699219 62.210938 C 76.699219 61.886719 76.730469 61.566406 76.792969 61.253906 C 76.855469 60.9375 76.949219 60.628906 77.070312 60.332031 C 77.195312 60.035156 77.34375 59.75 77.523438 59.484375 C 77.703125 59.214844 77.90625 58.96875 78.132812 58.742188 C 78.363281 58.511719 78.609375 58.308594 78.875 58.128906 C 79.144531 57.953125 79.425781 57.800781 79.722656 57.675781 C 80.023438 57.554688 80.328125 57.460938 80.644531 57.398438 C 80.960938 57.335938 81.277344 57.304688 81.601562 57.304688 C 81.921875 57.304688 82.242188 57.335938 82.554688 57.398438 C 82.871094 57.460938 83.179688 57.554688 83.476562 57.675781 C 83.773438 57.800781 84.054688 57.953125 84.324219 58.128906 C 84.589844 58.308594 84.839844 58.511719 85.066406 58.742188 C 85.292969 58.96875 85.496094 59.214844 85.675781 59.484375 C 85.855469 59.75 86.007812 60.035156 86.128906 60.332031 C 86.253906 60.628906 86.34375 60.9375 86.40625 61.253906 C 86.472656 61.566406 86.503906 61.886719 86.503906 62.210938 Z M 86.503906 62.210938 " fill-opacity="1" fill-rule="nonzero"/><path fill="#e87d4a" d="M 86.371094 28.195312 C 86.371094 28.515625 86.339844 28.835938 86.277344 29.152344 C 86.214844 29.46875 86.121094 29.773438 86 30.070312 C 85.875 30.367188 85.722656 30.652344 85.546875 30.917969 C 85.367188 31.1875 85.164062 31.433594 84.9375 31.664062 C 84.707031 31.890625 84.460938 32.09375 84.191406 32.273438 C 83.925781 32.453125 83.644531 32.601562 83.34375 32.726562 C 83.046875 32.851562 82.742188 32.941406 82.425781 33.003906 C 82.109375 33.070312 81.792969 33.101562 81.46875 33.101562 C 81.148438 33.101562 80.828125 33.070312 80.511719 33.003906 C 80.199219 32.941406 79.890625 32.851562 79.59375 32.726562 C 79.296875 32.601562 79.011719 32.453125 78.746094 32.273438 C 78.476562 32.09375 78.230469 31.890625 78.003906 31.664062 C 77.777344 31.433594 77.570312 31.1875 77.394531 30.917969 C 77.214844 30.652344 77.0625 30.367188 76.941406 30.070312 C 76.816406 29.773438 76.722656 29.46875 76.660156 29.152344 C 76.597656 28.835938 76.566406 28.515625 76.566406 28.195312 C 76.566406 27.871094 76.597656 27.550781 76.660156 27.238281 C 76.722656 26.921875 76.816406 26.613281 76.941406 26.316406 C 77.0625 26.019531 77.214844 25.734375 77.394531 25.46875 C 77.570312 25.199219 77.777344 24.953125 78.003906 24.726562 C 78.230469 24.496094 78.476562 24.292969 78.746094 24.113281 C 79.011719 23.933594 79.296875 23.785156 79.59375 23.660156 C 79.890625 23.539062 80.199219 23.445312 80.511719 23.382812 C 80.828125 23.320312 81.148438 23.289062 81.46875 23.289062 C 81.792969 23.289062 82.109375 23.320312 82.425781 23.382812 C 82.742188 23.445312 83.046875 23.539062 83.34375 23.660156 C 83.644531 23.785156 83.925781 23.933594 84.191406 24.113281 C 84.460938 24.292969 84.707031 24.496094 84.9375 24.726562 C 85.164062 24.953125 85.367188 25.199219 85.546875 25.46875 C 85.722656 25.734375 85.875 26.019531 86 26.316406 C 86.121094 26.613281 86.214844 26.921875 86.277344 27.238281 C 86.339844 27.550781 86.371094 27.871094 86.371094 28.195312 Z M 86.371094 28.195312 " fill-opacity="1" fill-rule="nonzero"/><g clip-path="url(#8be777e983)"><path fill="#482f34" d="M 75.261719 67.964844 C 75.652344 68.359375 71.859375 44.089844 30.878906 40.820312 C 30.878906 40.621094 6.042969 39.25 0.878906 37.089844 C 0.878906 37.089844 12.121094 43.5 30.550781 46.117188 C 48.984375 48.800781 56.828125 49.519531 75.261719 67.964844 Z M 75.261719 67.964844 " fill-opacity="1" fill-rule="nonzero"/></g><path fill="#482f34" d="M 9.375 53.707031 C 9.375 53.707031 21.992188 54.554688 43.296875 58.480469 C 51.925781 60.050781 60.617188 64.171875 71.339844 79.804688 C 71.339844 79.804688 60.554688 88.507812 44.800781 84.058594 C 44.800781 84.058594 35.652344 81.636719 24.277344 68.292969 C 12.90625 54.949219 9.375 53.707031 9.375 53.707031 Z M 9.375 53.707031 " fill-opacity="1" fill-rule="nonzero"/><path fill="#fff0da" d="M 65.390625 77.125 C 65.390625 77.125 53.296875 58.742188 23.363281 60.179688 C 23.363281 60.179688 38.070312 88.507812 65.390625 77.125 Z M 65.390625 77.125 " fill-opacity="1" fill-rule="nonzero"/><path fill="#482f34" d="M 56.304688 72.480469 C 56.304688 72.976562 56.257812 73.472656 56.160156 73.960938 C 56.0625 74.449219 55.917969 74.921875 55.726562 75.382812 C 55.539062 75.84375 55.304688 76.28125 55.027344 76.695312 C 54.75 77.109375 54.4375 77.492188 54.085938 77.84375 C 53.730469 78.199219 53.347656 78.511719 52.933594 78.789062 C 52.523438 79.066406 52.085938 79.300781 51.625 79.488281 C 51.164062 79.679688 50.691406 79.824219 50.203125 79.921875 C 49.714844 80.019531 49.222656 80.066406 48.722656 80.066406 C 48.226562 80.066406 47.730469 80.019531 47.242188 79.921875 C 46.753906 79.824219 46.28125 79.679688 45.820312 79.488281 C 45.363281 79.300781 44.925781 79.066406 44.511719 78.789062 C 44.097656 78.511719 43.714844 78.199219 43.363281 77.84375 C 43.011719 77.492188 42.695312 77.109375 42.417969 76.695312 C 42.140625 76.28125 41.910156 75.84375 41.71875 75.382812 C 41.527344 74.921875 41.382812 74.449219 41.285156 73.960938 C 41.191406 73.472656 41.140625 72.976562 41.140625 72.480469 C 41.140625 71.980469 41.191406 71.488281 41.285156 71 C 41.382812 70.511719 41.527344 70.035156 41.71875 69.574219 C 41.910156 69.117188 42.140625 68.679688 42.417969 68.265625 C 42.695312 67.847656 43.011719 67.464844 43.363281 67.113281 C 43.714844 66.761719 44.097656 66.445312 44.511719 66.171875 C 44.925781 65.894531 45.363281 65.660156 45.820312 65.46875 C 46.28125 65.277344 46.753906 65.132812 47.242188 65.039062 C 47.730469 64.941406 48.226562 64.890625 48.722656 64.890625 C 49.222656 64.890625 49.714844 64.941406 50.203125 65.039062 C 50.691406 65.132812 51.164062 65.277344 51.625 65.46875 C 52.085938 65.660156 52.523438 65.894531 52.933594 66.171875 C 53.347656 66.445312 53.730469 66.761719 54.085938 67.113281 C 54.4375 67.464844 54.75 67.847656 55.027344 68.265625 C 55.304688 68.679688 55.539062 69.117188 55.726562 69.574219 C 55.917969 70.035156 56.0625 70.511719 56.160156 71 C 56.257812 71.488281 56.304688 71.980469 56.304688 72.480469 Z M 56.304688 72.480469 " fill-opacity="1" fill-rule="nonzero"/><path fill="#fff0da" d="M 46.238281 76.078125 C 47.023438 77.058594 48.265625 77.710938 49.636719 77.710938 C 51.992188 77.710938 53.886719 75.882812 53.886719 73.65625 C 53.886719 72.609375 53.496094 71.695312 52.839844 70.976562 C 51.402344 74.179688 48.855469 75.75 46.238281 76.078125 Z M 46.238281 76.078125 " fill-opacity="1" fill-rule="nonzero"/><g clip-path="url(#ac5dbaa68f)"><path fill="#482f34" d="M 87.742188 67.964844 C 87.351562 68.359375 91.144531 44.089844 132.125 40.820312 C 132.125 40.621094 156.960938 39.25 162.125 37.089844 C 162.125 37.089844 150.882812 43.5 132.453125 46.117188 C 114.019531 48.800781 106.175781 49.519531 87.742188 67.964844 Z M 87.742188 67.964844 " fill-opacity="1" fill-rule="nonzero"/></g><path fill="#482f34" d="M 153.628906 53.707031 C 153.628906 53.707031 140.816406 53.707031 119.707031 58.480469 C 111.144531 60.441406 102.386719 64.171875 91.664062 79.804688 C 91.664062 79.804688 102.449219 88.507812 118.203125 84.058594 C 118.203125 84.058594 127.351562 81.636719 138.726562 68.292969 C 150.097656 54.949219 153.628906 53.707031 153.628906 53.707031 Z M 153.628906 53.707031 " fill-opacity="1" fill-rule="nonzero"/><path fill="#fff0da" d="M 97.613281 77.125 C 97.613281 77.125 109.707031 58.742188 139.640625 60.179688 C 139.574219 60.179688 124.871094 88.507812 97.613281 77.125 Z M 97.613281 77.125 " fill-opacity="1" fill-rule="nonzero"/><path fill="#482f34" d="M 121.863281 72.480469 C 121.863281 72.976562 121.8125 73.472656 121.71875 73.960938 C 121.621094 74.449219 121.476562 74.921875 121.285156 75.382812 C 121.09375 75.84375 120.863281 76.28125 120.585938 76.695312 C 120.308594 77.109375 119.996094 77.492188 119.640625 77.84375 C 119.289062 78.199219 118.90625 78.511719 118.492188 78.789062 C 118.078125 79.066406 117.640625 79.300781 117.183594 79.488281 C 116.722656 79.679688 116.25 79.824219 115.761719 79.921875 C 115.273438 80.019531 114.777344 80.066406 114.28125 80.066406 C 113.78125 80.066406 113.289062 80.019531 112.800781 79.921875 C 112.3125 79.824219 111.839844 79.679688 111.378906 79.488281 C 110.917969 79.300781 110.484375 79.066406 110.070312 78.789062 C 109.65625 78.511719 109.273438 78.199219 108.917969 77.84375 C 108.566406 77.492188 108.253906 77.109375 107.976562 76.695312 C 107.699219 76.28125 107.464844 75.84375 107.277344 75.382812 C 107.085938 74.921875 106.941406 74.449219 106.84375 73.960938 C 106.746094 73.472656 106.699219 72.976562 106.699219 72.480469 C 106.699219 71.980469 106.746094 71.488281 106.84375 71 C 106.941406 70.511719 107.085938 70.035156 107.277344 69.574219 C 107.464844 69.117188 107.699219 68.679688 107.976562 68.265625 C 108.253906 67.847656 108.566406 67.464844 108.917969 67.113281 C 109.273438 66.761719 109.65625 66.445312 110.070312 66.171875 C 110.484375 65.894531 110.917969 65.660156 111.378906 65.46875 C 111.839844 65.277344 112.3125 65.132812 112.800781 65.039062 C 113.289062 64.941406 113.78125 64.890625 114.28125 64.890625 C 114.777344 64.890625 115.273438 64.941406 115.761719 65.039062 C 116.25 65.132812 116.722656 65.277344 117.183594 65.46875 C 117.640625 65.660156 118.078125 65.894531 118.492188 66.171875 C 118.90625 66.445312 119.289062 66.761719 119.640625 67.113281 C 119.996094 67.464844 120.308594 67.847656 120.585938 68.265625 C 120.863281 68.679688 121.09375 69.117188 121.285156 69.574219 C 121.476562 70.035156 121.621094 70.511719 121.71875 71 C 121.8125 71.488281 121.863281 71.980469 121.863281 72.480469 Z M 121.863281 72.480469 " fill-opacity="1" fill-rule="nonzero"/><path fill="#fff0da" d="M 111.601562 76.078125 C 112.386719 77.058594 113.628906 77.710938 115 77.710938 C 117.351562 77.710938 119.25 75.882812 119.25 73.65625 C 119.25 72.609375 118.855469 71.695312 118.203125 70.976562 C 116.699219 74.179688 114.148438 75.75 111.601562 76.078125 Z M 111.601562 76.078125 " fill-opacity="1" fill-rule="nonzero"/><path fill="#754e43" d="M 81.601562 45.726562 C 66.566406 45.660156 62.449219 31.726562 62.449219 31.726562 C 62.449219 44.546875 71.859375 50.632812 81.664062 50.632812 C 81.730469 50.632812 81.601562 50.632812 81.601562 50.632812 C 81.664062 50.632812 81.664062 50.632812 81.730469 50.632812 C 91.535156 50.632812 100.882812 44.546875 100.882812 31.726562 C 100.882812 31.726562 96.894531 45.59375 81.601562 45.726562 Z M 81.601562 45.726562 " fill-opacity="1" fill-rule="nonzero"/></svg>