<svg xmlns="http://www.w3.org/2000/svg" xmlns:xlink="http://www.w3.org/1999/xlink" width="61" zoomAndPan="magnify" viewBox="0 0 45.75 61.499998" height="82" preserveAspectRatio="xMidYMid meet" version="1.0"><defs><clipPath id="2cd2b92cd6"><path d="M 0.0585938 1 L 29 1 L 29 15 L 0.0585938 15 Z M 0.0585938 1 " clip-rule="nonzero"/></clipPath><clipPath id="36bfa1b48f"><path d="M 0.0585938 1 L 28 1 L 28 13 L 0.0585938 13 Z M 0.0585938 1 " clip-rule="nonzero"/></clipPath></defs><path fill="#4a2014" d="M 13.699219 31.214844 C 13.71875 32.121094 13.046875 32.871094 12.191406 32.890625 C 11.335938 32.910156 10.625 32.191406 10.605469 31.289062 C 10.582031 30.382812 11.257812 29.632812 12.113281 29.613281 C 12.96875 29.59375 13.679688 30.3125 13.699219 31.214844 " fill-opacity="1" fill-rule="nonzero"/><path fill="#622b1b" d="M 13.46875 31.058594 C 13.605469 31.660156 13.128906 32.285156 12.402344 32.453125 C 11.675781 32.617188 10.972656 32.265625 10.835938 31.660156 C 10.695312 31.054688 11.171875 30.433594 11.902344 30.265625 C 12.628906 30.097656 13.328125 30.453125 13.46875 31.058594 " fill-opacity="1" fill-rule="nonzero"/><path fill="#7f473b" d="M 11.777344 32.085938 C 11.445312 32.085938 11.167969 31.9375 11.085938 31.683594 C 10.972656 31.339844 11.269531 30.9375 11.75 30.78125 C 11.875 30.742188 12.003906 30.722656 12.121094 30.722656 C 12.453125 30.722656 12.734375 30.871094 12.816406 31.125 C 12.925781 31.464844 12.628906 31.871094 12.152344 32.023438 C 12.027344 32.066406 11.898438 32.085938 11.777344 32.085938 " fill-opacity="1" fill-rule="nonzero"/><path fill="#67381d" d="M 44.863281 42.082031 C 45.441406 43.582031 39.898438 47.109375 32.480469 49.957031 C 25.0625 52.808594 18.582031 53.902344 18.003906 52.402344 C 17.425781 50.902344 22.96875 47.375 30.386719 44.523438 C 37.804688 41.675781 44.285156 40.582031 44.863281 42.082031 " fill-opacity="1" fill-rule="nonzero"/><path fill="#67381d" d="M 16.691406 49.820312 L 18.03125 52.472656 L 44.917969 42.300781 L 44.125 39.441406 L 16.691406 49.820312 " fill-opacity="1" fill-rule="nonzero"/><path fill="#b87b3c" d="M 44.125 39.441406 C 44.578125 40.601562 38.378906 44.375 30.804688 47.242188 C 23.230469 50.109375 17.144531 50.980469 16.691406 49.820312 C 16.238281 48.660156 22.011719 45.394531 29.585938 42.527344 C 37.160156 39.660156 43.671875 38.277344 44.125 39.441406 " fill-opacity="1" fill-rule="nonzero"/><path fill="#541d0e" d="M 25.257812 6.257812 C 24.472656 6.394531 26.308594 7.125 26.804688 8.308594 C 28.820312 13.132812 30.761719 19.476562 31.542969 20.640625 C 32.664062 22.3125 35.050781 21.410156 33.980469 18.394531 C 33.292969 16.457031 30.214844 11.972656 29.058594 8.308594 C 28.46875 6.441406 28.417969 4.867188 28.417969 4.867188 L 25.257812 6.257812 " fill-opacity="1" fill-rule="nonzero"/><path fill="#8a5c2d" d="M 18.414062 49.019531 C 18.414062 49.019531 19.421875 47.523438 20.894531 47.242188 C 22.363281 46.960938 37.316406 39.984375 38.917969 39.828125 C 40.519531 39.675781 43.285156 38.871094 43.238281 39.542969 C 43.203125 40.089844 42.179688 40.835938 40.5625 40.621094 C 40.023438 40.550781 39.503906 40.859375 39.144531 41.265625 C 38.621094 41.847656 37.421875 42.996094 35.613281 44.257812 C 32.898438 46.152344 27.65625 48.167969 22.550781 48.160156 C 22.007812 48.160156 21.476562 48.3125 20.992188 48.554688 C 20.128906 48.984375 18.757812 49.550781 18.414062 49.019531 " fill-opacity="1" fill-rule="nonzero"/><path fill="#541d0e" d="M 35.621094 22.582031 C 35.621094 23.488281 34.886719 24.222656 33.980469 24.222656 C 33.074219 24.222656 32.339844 23.488281 32.339844 22.582031 C 32.339844 21.675781 33.074219 20.945312 33.980469 20.945312 C 34.886719 20.945312 35.621094 21.675781 35.621094 22.582031 " fill-opacity="1" fill-rule="nonzero"/><path fill="#541d0e" d="M 40.894531 40.523438 C 40.894531 40.523438 42.378906 40.734375 42.957031 39.5625 C 43.53125 38.394531 41.699219 37.328125 40.578125 34.820312 C 39.457031 32.316406 37.359375 26.777344 36.644531 24.945312 C 35.972656 23.226562 33.765625 23.761719 33.800781 24.957031 C 33.839844 26.148438 33.800781 25.859375 35.429688 28.652344 C 37.058594 31.449219 39.816406 35.269531 39.800781 38.511719 C 39.792969 40.046875 40.257812 40.375 40.894531 40.523438 " fill-opacity="1" fill-rule="nonzero"/><path fill="#a65818" d="M 25.839844 33.410156 C 25.839844 33.5 25.765625 33.570312 25.675781 33.570312 C 25.585938 33.570312 25.515625 33.5 25.515625 33.410156 C 25.515625 33.320312 25.585938 33.246094 25.675781 33.246094 C 25.765625 33.246094 25.839844 33.320312 25.839844 33.410156 " fill-opacity="1" fill-rule="nonzero"/><path fill="#a65818" d="M 25.441406 34.820312 C 25.441406 34.910156 25.367188 34.980469 25.277344 34.980469 C 25.1875 34.980469 25.117188 34.910156 25.117188 34.820312 C 25.117188 34.730469 25.1875 34.65625 25.277344 34.65625 C 25.367188 34.65625 25.441406 34.730469 25.441406 34.820312 " fill-opacity="1" fill-rule="nonzero"/><path fill="#a65818" d="M 24.960938 36.261719 C 24.960938 36.351562 24.886719 36.425781 24.796875 36.425781 C 24.707031 36.425781 24.632812 36.351562 24.632812 36.261719 C 24.632812 36.171875 24.707031 36.101562 24.796875 36.101562 C 24.886719 36.101562 24.960938 36.171875 24.960938 36.261719 " fill-opacity="1" fill-rule="nonzero"/><path fill="#a65818" d="M 26.257812 36.261719 C 26.257812 36.351562 26.1875 36.425781 26.097656 36.425781 C 26.007812 36.425781 25.933594 36.351562 25.933594 36.261719 C 25.933594 36.171875 26.007812 36.101562 26.097656 36.101562 C 26.1875 36.101562 26.257812 36.171875 26.257812 36.261719 " fill-opacity="1" fill-rule="nonzero"/><path fill="#a65818" d="M 25.335938 32.03125 C 25.335938 32.121094 25.265625 32.191406 25.175781 32.191406 C 25.085938 32.191406 25.011719 32.121094 25.011719 32.03125 C 25.011719 31.941406 25.085938 31.867188 25.175781 31.867188 C 25.265625 31.867188 25.335938 31.941406 25.335938 32.03125 " fill-opacity="1" fill-rule="nonzero"/><path fill="#a65818" d="M 25.8125 30.292969 C 25.8125 30.382812 25.742188 30.453125 25.652344 30.453125 C 25.5625 30.453125 25.488281 30.382812 25.488281 30.292969 C 25.488281 30.203125 25.5625 30.128906 25.652344 30.128906 C 25.742188 30.128906 25.8125 30.203125 25.8125 30.292969 " fill-opacity="1" fill-rule="nonzero"/><path fill="#a65818" d="M 25.277344 29.195312 C 25.277344 29.269531 25.21875 29.328125 25.144531 29.328125 C 25.070312 29.328125 25.011719 29.269531 25.011719 29.195312 C 25.011719 29.121094 25.070312 29.0625 25.144531 29.0625 C 25.21875 29.0625 25.277344 29.121094 25.277344 29.195312 " fill-opacity="1" fill-rule="nonzero"/><path fill="#a65818" d="M 25.0625 30.371094 C 25.0625 30.445312 25.003906 30.503906 24.929688 30.503906 C 24.855469 30.503906 24.796875 30.445312 24.796875 30.371094 C 24.796875 30.296875 24.855469 30.238281 24.929688 30.238281 C 25.003906 30.238281 25.0625 30.296875 25.0625 30.371094 " fill-opacity="1" fill-rule="nonzero"/><path fill="#a65818" d="M 24.46875 29.621094 C 24.46875 29.695312 24.40625 29.753906 24.335938 29.753906 C 24.261719 29.753906 24.199219 29.695312 24.199219 29.621094 C 24.199219 29.546875 24.261719 29.488281 24.335938 29.488281 C 24.40625 29.488281 24.46875 29.546875 24.46875 29.621094 " fill-opacity="1" fill-rule="nonzero"/><path fill="#e7e7e7" d="M 20.785156 46.453125 C 16.988281 40.398438 23.078125 33.441406 21.601562 28.367188 C 20.171875 23.449219 9.246094 21.695312 6.683594 14.261719 C 7.050781 14.1875 7.4375 14.097656 7.835938 14.003906 C 7.835938 14.015625 8.191406 17.515625 14.902344 21.472656 C 21.625 25.4375 22.980469 28.335938 22.710938 30.414062 C 22.441406 32.496094 19.488281 40.847656 20.640625 43.851562 C 21.046875 44.921875 21.425781 45.566406 21.726562 45.957031 C 21.402344 46.125 21.085938 46.289062 20.785156 46.453125 M 38.566406 39.691406 C 38.453125 38.59375 37.484375 34.171875 29.246094 30.480469 C 22.996094 27.683594 25.703125 24.222656 26.511719 17.113281 C 26.804688 14.539062 26.976562 9.417969 25.648438 6.96875 C 26.011719 7.269531 26.460938 7.660156 26.714844 8.125 C 28.785156 16.867188 25.035156 22.597656 26.007812 26.386719 C 27.257812 31.277344 35.476562 29.03125 39.363281 39.507812 C 39.105469 39.566406 38.839844 39.625 38.566406 39.691406 " fill-opacity="1" fill-rule="nonzero"/><path fill="#c1a180" d="M 21.257812 47.136719 C 21.085938 46.910156 20.925781 46.679688 20.785156 46.453125 C 21.085938 46.289062 21.402344 46.125 21.726562 45.957031 C 22.140625 46.488281 22.40625 46.539062 22.40625 46.539062 C 22.40625 46.539062 22.492188 46.5625 22.667969 46.589844 C 22.070312 46.835938 21.585938 47.023438 21.257812 47.136719 M 38.582031 39.902344 C 38.582031 39.859375 38.578125 39.789062 38.566406 39.691406 C 38.839844 39.625 39.105469 39.566406 39.363281 39.507812 C 39.390625 39.59375 39.421875 39.675781 39.453125 39.761719 C 39.265625 39.789062 39.085938 39.8125 38.917969 39.828125 C 38.839844 39.835938 38.726562 39.859375 38.582031 39.902344 " fill-opacity="1" fill-rule="nonzero"/><path fill="#8c6f67" d="M 26.714844 8.125 C 26.460938 7.660156 26.011719 7.269531 25.648438 6.96875 C 25.875 6.835938 26.089844 6.699219 26.292969 6.570312 C 26.457031 7.097656 26.597656 7.617188 26.714844 8.125 " fill-opacity="1" fill-rule="nonzero"/><path fill="#a99178" d="M 23.398438 47.617188 C 22.292969 47.617188 21.511719 47.460938 21.277344 47.15625 C 21.269531 47.148438 21.265625 47.144531 21.257812 47.136719 C 21.585938 47.023438 22.070312 46.835938 22.671875 46.589844 C 22.863281 46.617188 23.167969 46.644531 23.597656 46.644531 C 23.792969 46.644531 24.015625 46.636719 24.261719 46.621094 C 24.304688 46.691406 24.324219 46.726562 24.324219 46.726562 C 24.324219 46.726562 24.578125 46.785156 25.007812 46.785156 C 25.4375 46.785156 26.039062 46.726562 26.746094 46.492188 C 26.804688 46.472656 26.816406 46.398438 26.785156 46.28125 C 28.03125 46.035156 29.566406 45.628906 31.433594 44.980469 C 37.292969 42.941406 38.582031 39.945312 38.582031 39.945312 C 38.582031 39.945312 38.582031 39.929688 38.582031 39.902344 C 38.726562 39.859375 38.839844 39.835938 38.917969 39.828125 C 39.085938 39.8125 39.265625 39.789062 39.453125 39.761719 C 39.457031 39.773438 39.464844 39.789062 39.46875 39.800781 C 39.890625 40.988281 36.433594 43.769531 32.160156 45.664062 C 29.179688 46.984375 25.632812 47.617188 23.398438 47.617188 " fill-opacity="1" fill-rule="nonzero"/><path fill="#541d0e" d="M 3.390625 14.535156 C 2.652344 14.6875 4.335938 15.40625 5.058594 17.136719 C 7.050781 21.925781 9.046875 28.21875 9.808594 29.363281 C 10.90625 31.011719 13.132812 30.058594 12.054688 27.066406 C 11.363281 25.140625 8.355469 20.726562 7.179688 17.089844 C 6.582031 15.238281 6.601562 14.015625 6.601562 14.015625 L 3.390625 14.535156 " fill-opacity="1" fill-rule="nonzero"/><path fill="#541d0e" d="M 18.882812 49.164062 C 18.882812 49.164062 20.285156 49.339844 20.800781 48.160156 C 21.316406 46.980469 19.566406 45.949219 18.449219 43.46875 C 17.335938 40.988281 15.894531 35.339844 15.175781 33.519531 C 14.503906 31.816406 12.054688 32.582031 11.835938 33.757812 C 11.71875 34.386719 11.855469 34.660156 13.453125 37.417969 C 15.054688 40.175781 17.742188 43.933594 17.800781 47.175781 C 17.832031 48.710938 18.171875 49.050781 18.882812 49.164062 " fill-opacity="1" fill-rule="nonzero"/><path fill="#622b1b" d="M 4.019531 14.910156 C 4.019531 14.910156 5.027344 15.648438 5.496094 16.824219 C 5.96875 17.996094 9.65625 28.421875 10.371094 29.242188 C 11.089844 30.058594 11.953125 29.375 11.550781 28.132812 C 11.144531 26.890625 7.277344 19.808594 6.773438 18.398438 C 6.269531 16.992188 5.597656 14.777344 5.597656 14.777344 C 5.597656 14.777344 4.65625 15.042969 4.019531 14.910156 " fill-opacity="1" fill-rule="nonzero"/><path fill="#b3b3b3" d="M 21.726562 45.957031 C 21.425781 45.566406 21.046875 44.921875 20.640625 43.851562 C 19.488281 40.847656 22.441406 32.496094 22.710938 30.414062 C 22.980469 28.335938 21.625 25.4375 14.902344 21.472656 C 8.191406 17.515625 7.835938 14.015625 7.835938 14.003906 C 7.988281 13.964844 8.140625 13.925781 8.296875 13.886719 C 8.296875 13.894531 8.757812 17.722656 15.742188 21.554688 C 20.113281 23.953125 23.417969 27.359375 23.21875 30.582031 C 23.050781 33.261719 20.253906 38.90625 20.894531 42.441406 C 21.238281 44.332031 21.878906 45.210938 22.398438 45.617188 C 22.171875 45.730469 21.945312 45.84375 21.726562 45.957031 M 37.972656 39.835938 C 38.085938 39.109375 37.863281 38.300781 37.320312 37.351562 C 34.949219 33.199219 30.144531 31.433594 28.394531 30.628906 C 26.644531 29.820312 24.53125 28.234375 24.929688 24.515625 C 25.25 21.558594 27.773438 14.289062 25.410156 7.109375 C 25.492188 7.0625 25.570312 7.015625 25.648438 6.96875 C 26.976562 9.417969 26.804688 14.539062 26.511719 17.113281 C 25.703125 24.222656 22.996094 27.683594 29.246094 30.480469 C 37.484375 34.171875 38.453125 38.59375 38.566406 39.691406 C 38.371094 39.738281 38.175781 39.785156 37.972656 39.835938 " fill-opacity="1" fill-rule="nonzero"/><path fill="#a09080" d="M 22.667969 46.589844 C 22.492188 46.5625 22.40625 46.539062 22.40625 46.539062 C 22.40625 46.539062 22.140625 46.488281 21.730469 45.957031 C 21.945312 45.84375 22.171875 45.730469 22.398438 45.617188 C 22.851562 45.972656 23.21875 45.972656 23.21875 45.972656 C 23.21875 45.972656 23.46875 46.011719 23.9375 46.027344 C 23.941406 46.035156 23.945312 46.042969 23.949219 46.054688 C 23.480469 46.25 23.050781 46.433594 22.667969 46.589844 M 37.910156 40.121094 C 37.933594 40.027344 37.957031 39.933594 37.972656 39.835938 C 38.171875 39.785156 38.371094 39.738281 38.566406 39.691406 C 38.578125 39.789062 38.582031 39.859375 38.582031 39.902344 C 38.402344 39.953125 38.175781 40.027344 37.910156 40.121094 " fill-opacity="1" fill-rule="nonzero"/><path fill="#94887c" d="M 23.597656 46.644531 C 23.167969 46.644531 22.863281 46.617188 22.667969 46.589844 C 23.050781 46.433594 23.480469 46.25 23.949219 46.054688 C 24.085938 46.320312 24.199219 46.511719 24.261719 46.621094 C 24.015625 46.636719 23.792969 46.644531 23.597656 46.644531 M 26.785156 46.28125 C 26.757812 46.175781 26.699219 46.035156 26.617188 45.863281 C 28.828125 45.542969 31.976562 44.683594 35.621094 42.507812 C 36.910156 41.742188 37.660156 40.984375 37.910156 40.121094 C 38.175781 40.027344 38.402344 39.953125 38.582031 39.902344 C 38.582031 39.929688 38.582031 39.945312 38.582031 39.945312 C 38.582031 39.945312 37.296875 42.941406 31.433594 44.980469 C 29.566406 45.628906 28.03125 46.035156 26.785156 46.28125 " fill-opacity="1" fill-rule="nonzero"/><path fill="#a65818" d="M 10.839844 17.703125 C 10.839844 17.703125 11.78125 18.859375 16.402344 21.65625 C 21.984375 25.035156 21.378906 25.257812 22.511719 26.539062 C 22.96875 27.058594 24.359375 29.507812 24.5625 28.367188 C 24.761719 27.226562 24.125 25.816406 25.195312 21.386719 C 25.976562 18.15625 26.222656 15.273438 26.222656 15.273438 C 26.222656 15.273438 23.820312 14.351562 19.316406 15.144531 C 14.8125 15.9375 10.839844 17.703125 10.839844 17.703125 " fill-opacity="1" fill-rule="nonzero"/><path fill="#7d4212" d="M 24.929688 16.019531 C 24.929688 16.019531 24.96875 19.917969 24.527344 22.1875 C 24.089844 24.453125 24.527344 28.03125 24.527344 28.03125 C 24.527344 28.03125 24.46875 24.222656 25 22.191406 C 25.367188 20.785156 26.246094 16.621094 26.222656 15.535156 L 24.929688 16.019531 " fill-opacity="1" fill-rule="nonzero"/><path fill="#fcc062" d="M 19.832031 16.332031 C 19.832031 16.332031 26.292969 16.351562 26.257812 15.414062 C 26.222656 14.472656 22.5 14.398438 20.839844 14.453125 C 13.902344 14.675781 9.542969 16.488281 10.898438 17.785156 C 12.585938 19.398438 16.515625 16.507812 19.832031 16.332031 " fill-opacity="1" fill-rule="nonzero"/><path fill="#a65818" d="M 21.132812 41.722656 C 21.132812 41.722656 20.886719 46.03125 25.082031 45.734375 C 28.898438 45.46875 34.042969 43.789062 36.96875 41.210938 C 38.234375 40.09375 37.734375 38.488281 37.382812 37.675781 C 37.160156 37.160156 34.902344 37.347656 31.667969 37.652344 C 29.34375 37.871094 20.957031 39.59375 21.132812 41.722656 " fill-opacity="1" fill-rule="nonzero"/><path fill="#eaaa54" d="M 14.121094 16.183594 C 14.121094 16.183594 17.128906 15.039062 19.082031 15.128906 C 19.800781 15.164062 20.519531 15.140625 21.164062 15.117188 C 22.277344 15.074219 23.179688 15.035156 23.519531 15.28125 C 24.058594 15.667969 22.027344 15.816406 20.75 15.792969 C 19.472656 15.773438 17.972656 16.292969 16.984375 16.355469 C 16 16.421875 12.988281 16.542969 14.121094 16.183594 " fill-opacity="1" fill-rule="nonzero"/><path fill="#e2b165" d="M 36.957031 38.328125 C 36.957031 38.328125 35.558594 40.238281 30.40625 40.847656 C 25.257812 41.457031 21.335938 43.15625 21.175781 41.371094 C 21.019531 39.582031 24.824219 35.898438 28.929688 36.765625 C 33.550781 37.742188 38.75 36.484375 36.957031 38.328125 " fill-opacity="1" fill-rule="nonzero"/><path fill="#d19647" d="M 16.507812 16.066406 C 16.507812 16.066406 17.753906 15.53125 18.777344 15.613281 C 19.3125 15.660156 20.125 15.578125 20.847656 15.5 C 21.515625 15.429688 22.105469 15.355469 22.324219 15.378906 C 22.78125 15.429688 22.914062 15.632812 22.125 15.632812 C 21.332031 15.632812 19.332031 15.867188 18.777344 15.96875 C 18.222656 16.066406 15.703125 16.339844 16.507812 16.066406 " fill-opacity="1" fill-rule="nonzero"/><path fill="#7d4212" d="M 21.257812 42.992188 C 21.257812 42.992188 21.917969 44.277344 26.625 43.671875 C 31.054688 43.101562 37.023438 41.179688 37.734375 38.835938 C 37.734375 38.835938 38.273438 40.335938 36.5625 41.550781 C 34.851562 42.765625 33.496094 43.605469 30.527344 44.625 C 26.425781 46.035156 22.097656 46.785156 21.257812 42.992188 " fill-opacity="1" fill-rule="nonzero"/><path fill="#c9c9c9" d="M 22.398438 45.617188 C 21.878906 45.210938 21.238281 44.332031 20.894531 42.441406 C 20.253906 38.90625 23.050781 33.261719 23.21875 30.582031 C 23.417969 27.359375 20.113281 23.953125 15.742188 21.554688 C 8.757812 17.722656 8.296875 13.894531 8.296875 13.886719 C 10.570312 13.316406 13.265625 12.464844 16.109375 11.386719 C 19.851562 9.972656 23.132812 8.4375 25.410156 7.109375 C 27.773438 14.289062 25.25 21.558594 24.929688 24.515625 C 24.53125 28.234375 26.644531 29.820312 28.394531 30.628906 C 30.140625 31.433594 34.949219 33.199219 37.320312 37.351562 C 37.863281 38.304688 38.085938 39.109375 37.972656 39.835938 C 37.902344 39.855469 37.832031 39.871094 37.761719 39.890625 C 37.894531 39.296875 37.742188 38.851562 37.734375 38.835938 C 37.664062 38.382812 37.511719 37.976562 37.382812 37.675781 C 37.359375 37.617188 37.304688 37.566406 37.230469 37.527344 C 36.929688 37.242188 35.902344 37.222656 34.519531 37.210938 C 34.105469 36.722656 33.589844 36.230469 32.941406 35.75 C 31.355469 34.582031 28.484375 31.507812 26.703125 31.507812 C 25.96875 31.507812 25.417969 32.027344 25.21875 33.410156 C 25.070312 34.414062 24.984375 35.34375 24.949219 36.210938 C 24.929688 36.144531 24.867188 36.101562 24.796875 36.101562 C 24.707031 36.101562 24.632812 36.171875 24.632812 36.261719 C 24.632812 36.351562 24.707031 36.425781 24.796875 36.425781 C 24.863281 36.425781 24.921875 36.382812 24.945312 36.328125 C 24.933594 36.636719 24.929688 36.9375 24.929688 37.230469 C 24.664062 37.347656 24.402344 37.480469 24.15625 37.621094 C 24.269531 34.449219 24.921875 30.714844 23.445312 28.535156 C 23.445312 28.535156 24.308594 30.9375 22.679688 36.472656 C 22.414062 37.371094 22.289062 38.265625 22.261719 39.125 C 21.53125 39.921875 21.121094 40.757812 21.175781 41.371094 C 21.175781 41.371094 21.175781 41.375 21.179688 41.378906 C 21.140625 41.492188 21.125 41.605469 21.132812 41.722656 C 21.132812 41.722656 21.101562 42.285156 21.257812 42.992188 C 21.328125 43.300781 21.417969 43.578125 21.53125 43.828125 C 21.789062 44.417969 22.21875 44.996094 22.921875 45.363281 C 22.746094 45.449219 22.570312 45.535156 22.398438 45.617188 M 25.175781 31.867188 C 25.085938 31.867188 25.011719 31.941406 25.011719 32.03125 C 25.011719 32.121094 25.085938 32.191406 25.175781 32.191406 C 25.265625 32.191406 25.335938 32.121094 25.335938 32.03125 C 25.335938 31.941406 25.265625 31.867188 25.175781 31.867188 M 24.929688 30.238281 C 24.855469 30.238281 24.796875 30.296875 24.796875 30.371094 C 24.796875 30.445312 24.855469 30.503906 24.929688 30.503906 C 25.003906 30.503906 25.0625 30.445312 25.0625 30.371094 C 25.0625 30.296875 25.003906 30.238281 24.929688 30.238281 M 25.652344 30.128906 C 25.5625 30.128906 25.488281 30.203125 25.488281 30.292969 C 25.488281 30.382812 25.5625 30.453125 25.652344 30.453125 C 25.742188 30.453125 25.8125 30.382812 25.8125 30.292969 C 25.8125 30.203125 25.742188 30.128906 25.652344 30.128906 M 24.335938 29.488281 C 24.261719 29.488281 24.199219 29.546875 24.199219 29.621094 C 24.199219 29.695312 24.261719 29.753906 24.335938 29.753906 C 24.40625 29.753906 24.46875 29.695312 24.46875 29.621094 C 24.46875 29.546875 24.40625 29.488281 24.335938 29.488281 M 25.144531 29.0625 C 25.070312 29.0625 25.011719 29.121094 25.011719 29.195312 C 25.011719 29.269531 25.070312 29.328125 25.144531 29.328125 C 25.21875 29.328125 25.277344 29.269531 25.277344 29.195312 C 25.277344 29.121094 25.21875 29.0625 25.144531 29.0625 M 11.027344 17.894531 C 11.476562 18.328125 12.859375 19.511719 16.402344 21.65625 C 21.984375 25.035156 21.378906 25.257812 22.511719 26.539062 C 22.882812 26.960938 23.875 28.667969 24.339844 28.667969 C 24.445312 28.667969 24.523438 28.578125 24.5625 28.367188 C 24.660156 27.8125 24.558594 27.191406 24.550781 26.191406 C 24.574219 25.515625 24.621094 24.730469 24.699219 23.980469 C 24.785156 23.328125 24.917969 22.574219 25.121094 21.699219 C 25.144531 21.601562 25.171875 21.496094 25.195312 21.386719 C 25.332031 20.820312 25.453125 20.265625 25.558594 19.734375 C 25.902344 18.082031 26.238281 16.210938 26.222656 15.535156 C 26.246094 15.496094 26.257812 15.457031 26.257812 15.414062 C 26.238281 14.921875 25.214844 14.667969 24.003906 14.542969 C 24.070312 11.59375 23.753906 8.835938 23.753906 8.835938 C 22.273438 9.910156 12.972656 13.167969 12.972656 13.167969 C 13.179688 13.578125 13.746094 14.328125 14.515625 15.207031 C 13.921875 15.347656 13.386719 15.5 12.917969 15.660156 C 12.058594 14.515625 11.652344 13.617188 11.652344 13.617188 L 9.027344 14.246094 C 9.027344 14.246094 9.589844 15.605469 10.789062 16.890625 C 10.578125 17.195312 10.601562 17.503906 10.898438 17.785156 C 10.9375 17.824219 10.980469 17.863281 11.027344 17.894531 " fill-opacity="1" fill-rule="nonzero"/><path fill="#bcb0a5" d="M 23.9375 46.027344 C 23.46875 46.011719 23.21875 45.972656 23.21875 45.972656 C 23.21875 45.972656 22.851562 45.972656 22.398438 45.617188 C 22.570312 45.535156 22.746094 45.449219 22.921875 45.363281 C 23.164062 45.488281 23.441406 45.589844 23.75 45.65625 C 23.816406 45.792969 23.878906 45.917969 23.9375 46.027344 M 37.667969 40.207031 C 37.710938 40.097656 37.738281 39.992188 37.761719 39.890625 C 37.832031 39.871094 37.902344 39.855469 37.972656 39.835938 C 37.957031 39.933594 37.933594 40.027344 37.910156 40.121094 C 37.832031 40.148438 37.75 40.175781 37.667969 40.207031 " fill-opacity="1" fill-rule="nonzero"/><path fill="#b3aba2" d="M 26.617188 45.863281 C 26.585938 45.800781 26.554688 45.734375 26.519531 45.667969 C 27.789062 45.484375 29.171875 45.09375 30.527344 44.625 C 32.761719 43.898438 34.941406 42.851562 36.5625 41.550781 C 36.84375 41.351562 37.066406 41.144531 37.238281 40.933594 C 37.277344 40.886719 37.316406 40.839844 37.351562 40.789062 C 37.496094 40.59375 37.597656 40.394531 37.667969 40.207031 C 37.75 40.175781 37.832031 40.148438 37.910156 40.121094 C 37.660156 40.984375 36.910156 41.742188 35.621094 42.507812 C 31.976562 44.683594 28.828125 45.542969 26.617188 45.863281 " fill-opacity="1" fill-rule="nonzero"/><path fill="#b8aa9e" d="M 24.796875 36.425781 C 24.707031 36.425781 24.632812 36.351562 24.632812 36.261719 C 24.632812 36.171875 24.707031 36.101562 24.796875 36.101562 C 24.867188 36.101562 24.929688 36.144531 24.949219 36.210938 C 24.949219 36.25 24.949219 36.289062 24.945312 36.328125 C 24.921875 36.382812 24.863281 36.425781 24.796875 36.425781 " fill-opacity="1" fill-rule="nonzero"/><path fill="#b8aa9e" d="M 25.175781 32.191406 C 25.085938 32.191406 25.011719 32.121094 25.011719 32.03125 C 25.011719 31.941406 25.085938 31.867188 25.175781 31.867188 C 25.265625 31.867188 25.335938 31.941406 25.335938 32.03125 C 25.335938 32.121094 25.265625 32.191406 25.175781 32.191406 " fill-opacity="1" fill-rule="nonzero"/><path fill="#b8aa9e" d="M 25.652344 30.453125 C 25.5625 30.453125 25.488281 30.382812 25.488281 30.292969 C 25.488281 30.203125 25.5625 30.128906 25.652344 30.128906 C 25.742188 30.128906 25.8125 30.203125 25.8125 30.292969 C 25.8125 30.382812 25.742188 30.453125 25.652344 30.453125 " fill-opacity="1" fill-rule="nonzero"/><path fill="#b8aa9e" d="M 25.144531 29.328125 C 25.070312 29.328125 25.011719 29.269531 25.011719 29.195312 C 25.011719 29.121094 25.070312 29.0625 25.144531 29.0625 C 25.21875 29.0625 25.277344 29.121094 25.277344 29.195312 C 25.277344 29.269531 25.21875 29.328125 25.144531 29.328125 " fill-opacity="1" fill-rule="nonzero"/><path fill="#b8aa9e" d="M 24.929688 30.503906 C 24.855469 30.503906 24.796875 30.445312 24.796875 30.371094 C 24.796875 30.296875 24.855469 30.238281 24.929688 30.238281 C 25.003906 30.238281 25.0625 30.296875 25.0625 30.371094 C 25.0625 30.445312 25.003906 30.503906 24.929688 30.503906 " fill-opacity="1" fill-rule="nonzero"/><path fill="#b8aa9e" d="M 24.335938 29.753906 C 24.261719 29.753906 24.199219 29.695312 24.199219 29.621094 C 24.199219 29.546875 24.261719 29.488281 24.335938 29.488281 C 24.40625 29.488281 24.46875 29.546875 24.46875 29.621094 C 24.46875 29.695312 24.40625 29.753906 24.335938 29.753906 " fill-opacity="1" fill-rule="nonzero"/><path fill="#c0885b" d="M 24.339844 28.667969 C 23.875 28.667969 22.882812 26.960938 22.511719 26.539062 C 21.378906 25.257812 21.984375 25.035156 16.402344 21.65625 C 12.859375 19.511719 11.476562 18.328125 11.027344 17.894531 C 11.371094 18.164062 11.796875 18.273438 12.285156 18.273438 C 12.332031 18.273438 12.386719 18.273438 12.4375 18.269531 C 14.882812 20.015625 19.339844 22.820312 21.5 24.515625 C 21.5 24.515625 19.519531 21.472656 15.238281 18.066406 C 15.09375 17.949219 14.953125 17.828125 14.8125 17.710938 C 15.316406 17.539062 15.835938 17.347656 16.363281 17.164062 C 18.261719 19.019531 20.511719 20.765625 21.945312 20.765625 C 22.480469 20.765625 22.902344 20.519531 23.152344 19.945312 C 23.582031 18.9375 23.8125 17.574219 23.925781 16.152344 C 24.28125 16.113281 24.625 16.070312 24.929688 16.019531 C 24.929688 16.035156 24.96875 19.925781 24.527344 22.1875 C 24.089844 24.453125 24.527344 28.03125 24.527344 28.03125 C 24.527344 28.03125 24.515625 27.242188 24.550781 26.191406 C 24.558594 27.191406 24.660156 27.8125 24.5625 28.367188 C 24.523438 28.578125 24.445312 28.667969 24.339844 28.667969 M 24.699219 23.980469 C 24.769531 23.332031 24.863281 22.703125 25 22.191406 C 25.035156 22.054688 25.078125 21.886719 25.121094 21.699219 C 24.917969 22.574219 24.785156 23.328125 24.699219 23.980469 M 25.195312 21.386719 C 25.308594 20.910156 25.433594 20.335938 25.558594 19.734375 C 25.453125 20.265625 25.332031 20.820312 25.195312 21.386719 " fill-opacity="1" fill-rule="nonzero"/><path fill="#a37957" d="M 24.527344 28.03125 C 24.527344 28.03125 24.089844 24.453125 24.527344 22.1875 C 24.96875 19.925781 24.929688 16.035156 24.929688 16.019531 C 25.59375 15.902344 26.089844 15.75 26.222656 15.535156 C 26.238281 16.210938 25.902344 18.082031 25.558594 19.734375 C 25.433594 20.335938 25.308594 20.910156 25.195312 21.386719 C 25.171875 21.496094 25.144531 21.601562 25.121094 21.699219 C 25.078125 21.886719 25.035156 22.054688 25 22.191406 C 24.863281 22.703125 24.769531 23.328125 24.699219 23.980469 C 24.621094 24.730469 24.574219 25.515625 24.550781 26.191406 C 24.515625 27.242188 24.527344 28.03125 24.527344 28.03125 " fill-opacity="1" fill-rule="nonzero"/><path fill="#fdd290" d="M 12.285156 18.273438 C 11.796875 18.273438 11.371094 18.164062 11.027344 17.894531 C 10.980469 17.863281 10.9375 17.824219 10.898438 17.785156 C 10.601562 17.503906 10.578125 17.195312 10.789062 16.890625 C 11.097656 17.214844 11.445312 17.539062 11.832031 17.828125 C 12.015625 17.96875 12.21875 18.113281 12.4375 18.269531 C 12.386719 18.273438 12.332031 18.273438 12.285156 18.273438 M 14.8125 17.710938 C 14.035156 17.027344 13.40625 16.304688 12.917969 15.660156 C 13.386719 15.5 13.921875 15.347656 14.515625 15.207031 C 14.695312 15.417969 14.890625 15.632812 15.09375 15.855469 C 14.507812 16.039062 14.121094 16.183594 14.121094 16.183594 C 13.523438 16.375 14.082031 16.429688 14.886719 16.429688 C 15.121094 16.429688 15.371094 16.425781 15.625 16.417969 C 15.863281 16.667969 16.109375 16.917969 16.363281 17.164062 C 15.835938 17.347656 15.316406 17.539062 14.8125 17.710938 M 23.925781 16.152344 C 23.964844 15.621094 23.992188 15.078125 24.003906 14.542969 C 25.214844 14.667969 26.238281 14.921875 26.257812 15.414062 C 26.257812 15.457031 26.246094 15.496094 26.222656 15.535156 C 26.089844 15.75 25.59375 15.90625 24.929688 16.019531 C 24.625 16.070312 24.28125 16.113281 23.925781 16.152344 " fill-opacity="1" fill-rule="nonzero"/><path fill="#c0885b" d="M 23.75 45.65625 C 23.441406 45.589844 23.164062 45.488281 22.921875 45.363281 C 22.21875 44.996094 21.789062 44.417969 21.53125 43.828125 C 21.972656 44.820312 22.75 45.375 23.734375 45.617188 C 23.738281 45.632812 23.746094 45.644531 23.75 45.65625 M 30.523438 44.625 C 30.527344 44.625 30.527344 44.625 30.527344 44.625 C 33.496094 43.605469 34.851562 42.765625 36.5625 41.550781 C 34.941406 42.851562 32.761719 43.898438 30.523438 44.625 M 25.546875 43.785156 C 25.261719 43.195312 24.96875 42.542969 24.726562 41.859375 C 24.964844 41.8125 25.207031 41.761719 25.460938 41.710938 C 25.671875 42.539062 25.921875 43.207031 26.160156 43.726562 C 25.945312 43.75 25.742188 43.769531 25.546875 43.785156 M 22.980469 43.742188 C 21.546875 43.527344 21.265625 43.003906 21.257812 42.992188 C 21.101562 42.285156 21.132812 41.722656 21.132812 41.722656 C 21.125 41.605469 21.140625 41.492188 21.179688 41.378906 C 21.234375 41.953125 21.683594 42.164062 22.445312 42.164062 C 22.480469 42.164062 22.515625 42.164062 22.550781 42.164062 C 22.671875 42.726562 22.820312 43.257812 22.980469 43.742188 M 37.238281 40.933594 C 37.277344 40.886719 37.316406 40.839844 37.351562 40.789062 C 37.316406 40.839844 37.277344 40.886719 37.238281 40.933594 M 36.113281 40.640625 C 36.085938 40.382812 36.003906 39.890625 35.765625 39.273438 C 36.644531 38.757812 36.957031 38.328125 36.957031 38.328125 C 37.335938 37.941406 37.402344 37.6875 37.230469 37.527344 C 37.304688 37.566406 37.359375 37.617188 37.382812 37.675781 C 37.511719 37.976562 37.664062 38.382812 37.734375 38.835938 C 37.542969 39.472656 36.953125 40.082031 36.113281 40.640625 " fill-opacity="1" fill-rule="nonzero"/><path fill="#f0c386" d="M 14.886719 16.429688 C 14.082031 16.429688 13.523438 16.375 14.121094 16.1875 C 14.121094 16.1875 14.507812 16.039062 15.09375 15.855469 C 15.265625 16.039062 15.441406 16.226562 15.625 16.417969 C 15.371094 16.425781 15.121094 16.429688 14.886719 16.429688 " fill-opacity="1" fill-rule="nonzero"/><path fill="#eac892" d="M 22.445312 42.164062 C 21.683594 42.164062 21.234375 41.953125 21.175781 41.378906 C 21.175781 41.375 21.175781 41.371094 21.175781 41.371094 C 21.121094 40.757812 21.53125 39.921875 22.261719 39.125 C 22.230469 40.203125 22.351562 41.230469 22.550781 42.164062 C 22.515625 42.164062 22.480469 42.164062 22.445312 42.164062 M 24.726562 41.859375 C 24.4375 41.035156 24.21875 40.167969 24.167969 39.3125 C 24.132812 38.777344 24.136719 38.207031 24.15625 37.621094 C 24.402344 37.480469 24.664062 37.347656 24.929688 37.230469 C 24.933594 39.058594 25.160156 40.542969 25.460938 41.710938 C 25.207031 41.765625 24.964844 41.8125 24.726562 41.859375 M 35.765625 39.273438 C 35.53125 38.671875 35.148438 37.953125 34.519531 37.210938 C 35.902344 37.222656 36.929688 37.242188 37.230469 37.527344 C 37.402344 37.691406 37.335938 37.941406 36.957031 38.328125 C 36.957031 38.328125 36.644531 38.757812 35.765625 39.273438 " fill-opacity="1" fill-rule="nonzero"/><path fill="#efe1d6" d="M 21.5 24.515625 C 19.339844 22.820312 14.882812 20.015625 12.4375 18.269531 C 13.132812 18.238281 13.945312 18.003906 14.8125 17.710938 C 14.953125 17.828125 15.09375 17.949219 15.238281 18.066406 C 19.519531 21.472656 21.5 24.515625 21.5 24.515625 " fill-opacity="1" fill-rule="nonzero"/><path fill="#f2f2f2" d="M 10.789062 16.890625 C 9.589844 15.605469 9.027344 14.246094 9.027344 14.246094 L 11.652344 13.617188 C 11.652344 13.617188 12.0625 14.515625 12.917969 15.660156 C 11.820312 16.035156 11.082031 16.464844 10.789062 16.890625 " fill-opacity="1" fill-rule="nonzero"/><path fill="#fef4e3" d="M 12.4375 18.269531 C 12.21875 18.113281 12.015625 17.96875 11.832031 17.828125 C 11.445312 17.539062 11.097656 17.214844 10.789062 16.890625 C 11.082031 16.464844 11.820312 16.039062 12.917969 15.660156 C 13.40625 16.304688 14.035156 17.027344 14.8125 17.710938 C 13.945312 18.003906 13.132812 18.238281 12.4375 18.269531 " fill-opacity="1" fill-rule="nonzero"/><path fill="#a37957" d="M 26.519531 45.667969 C 26.28125 45.191406 25.917969 44.542969 25.546875 43.785156 C 25.742188 43.769531 25.945312 43.75 26.160156 43.726562 C 26.597656 44.695312 26.980469 45.148438 26.980469 45.148438 C 33.1875 43.839844 36.128906 40.847656 36.128906 40.847656 C 36.128906 40.847656 36.128906 40.773438 36.113281 40.640625 C 36.953125 40.082031 37.542969 39.472656 37.734375 38.835938 C 37.742188 38.851562 37.894531 39.296875 37.761719 39.890625 C 37.738281 39.992188 37.710938 40.097656 37.667969 40.207031 C 37.597656 40.394531 37.496094 40.59375 37.351562 40.789062 C 37.316406 40.839844 37.277344 40.886719 37.238281 40.933594 C 37.066406 41.144531 36.84375 41.351562 36.5625 41.550781 C 34.851562 42.765625 33.496094 43.605469 30.527344 44.625 C 29.171875 45.09375 27.789062 45.484375 26.519531 45.667969 M 23.734375 45.617188 C 22.75 45.375 21.972656 44.820312 21.53125 43.828125 C 21.417969 43.578125 21.328125 43.300781 21.257812 42.992188 C 21.265625 43.003906 21.546875 43.527344 22.980469 43.742188 C 23.226562 44.488281 23.496094 45.125 23.734375 45.617188 " fill-opacity="1" fill-rule="nonzero"/><path fill="#d4d4d4" d="M 14.515625 15.207031 C 13.746094 14.328125 13.179688 13.574219 12.972656 13.167969 C 12.972656 13.167969 22.273438 9.910156 23.753906 8.835938 C 23.753906 8.835938 24.070312 11.589844 24.003906 14.542969 C 23.234375 14.464844 22.390625 14.4375 21.679688 14.4375 C 21.367188 14.4375 21.082031 14.445312 20.839844 14.453125 C 18.351562 14.53125 16.195312 14.816406 14.515625 15.207031 " fill-opacity="1" fill-rule="nonzero"/><path fill="#cc9e7a" d="M 21.945312 20.765625 C 20.511719 20.765625 18.261719 19.019531 16.363281 17.164062 C 17.515625 16.761719 18.710938 16.390625 19.832031 16.332031 C 19.832031 16.332031 19.84375 16.332031 19.871094 16.332031 C 20.175781 16.332031 22.226562 16.324219 23.925781 16.152344 C 23.8125 17.574219 23.582031 18.9375 23.152344 19.941406 C 22.902344 20.519531 22.480469 20.765625 21.945312 20.765625 " fill-opacity="1" fill-rule="nonzero"/><path fill="#fedba5" d="M 16.363281 17.164062 C 16.109375 16.914062 15.863281 16.664062 15.625 16.417969 C 16.148438 16.402344 16.671875 16.375 16.984375 16.355469 C 17.949219 16.292969 19.410156 15.792969 20.671875 15.792969 C 20.695312 15.792969 20.722656 15.792969 20.75 15.792969 C 20.832031 15.796875 20.917969 15.796875 21.003906 15.796875 C 22.277344 15.796875 24.023438 15.640625 23.519531 15.277344 C 23.308594 15.125 22.878906 15.085938 22.3125 15.085938 C 21.972656 15.085938 21.585938 15.101562 21.164062 15.117188 C 20.746094 15.128906 20.300781 15.144531 19.839844 15.144531 C 19.589844 15.144531 19.335938 15.140625 19.082031 15.128906 C 19.007812 15.125 18.933594 15.125 18.855469 15.125 C 17.632812 15.125 16.082031 15.542969 15.09375 15.855469 C 14.890625 15.632812 14.695312 15.417969 14.515625 15.207031 C 16.195312 14.816406 18.351562 14.53125 20.839844 14.453125 C 21.082031 14.445312 21.371094 14.4375 21.679688 14.4375 C 22.390625 14.4375 23.234375 14.464844 24.003906 14.542969 C 23.992188 15.078125 23.96875 15.617188 23.925781 16.152344 C 22.226562 16.324219 20.175781 16.332031 19.871094 16.332031 C 19.84375 16.332031 19.832031 16.332031 19.832031 16.332031 C 18.710938 16.390625 17.515625 16.761719 16.363281 17.164062 " fill-opacity="1" fill-rule="nonzero"/><path fill="#f3ce9c" d="M 15.625 16.417969 C 15.441406 16.226562 15.265625 16.039062 15.09375 15.855469 C 16.082031 15.542969 17.632812 15.125 18.855469 15.125 C 18.933594 15.125 19.007812 15.125 19.082031 15.128906 C 19.335938 15.140625 19.589844 15.144531 19.839844 15.144531 C 20.300781 15.144531 20.746094 15.132812 21.164062 15.117188 C 21.585938 15.101562 21.972656 15.085938 22.3125 15.085938 C 22.878906 15.085938 23.308594 15.125 23.519531 15.277344 C 24.023438 15.640625 22.277344 15.796875 21.003906 15.796875 C 20.917969 15.796875 20.832031 15.792969 20.75 15.792969 C 20.722656 15.792969 20.695312 15.792969 20.671875 15.792969 C 19.410156 15.792969 17.949219 16.292969 16.984375 16.355469 C 16.671875 16.375 16.148438 16.402344 15.625 16.417969 M 18.550781 15.605469 C 17.578125 15.605469 16.507812 16.066406 16.507812 16.066406 C 16.253906 16.152344 16.332031 16.1875 16.574219 16.1875 C 17.097656 16.1875 18.398438 16.035156 18.777344 15.96875 C 19.332031 15.867188 21.332031 15.632812 22.125 15.632812 C 22.914062 15.632812 22.78125 15.429688 22.324219 15.378906 C 22.296875 15.375 22.261719 15.375 22.21875 15.375 C 21.949219 15.375 21.425781 15.4375 20.847656 15.5 C 20.265625 15.5625 19.628906 15.628906 19.125 15.628906 C 19 15.628906 18.882812 15.625 18.777344 15.613281 C 18.703125 15.609375 18.628906 15.605469 18.550781 15.605469 " fill-opacity="1" fill-rule="nonzero"/><path fill="#e5c395" d="M 16.574219 16.1875 C 16.332031 16.1875 16.253906 16.152344 16.507812 16.066406 C 16.507812 16.066406 17.578125 15.605469 18.550781 15.605469 C 18.628906 15.605469 18.703125 15.609375 18.777344 15.613281 C 18.882812 15.625 19 15.628906 19.125 15.628906 C 19.628906 15.628906 20.265625 15.5625 20.847656 15.5 C 21.425781 15.4375 21.949219 15.375 22.21875 15.375 C 22.261719 15.375 22.296875 15.375 22.324219 15.378906 C 22.78125 15.429688 22.914062 15.632812 22.125 15.632812 C 21.332031 15.632812 19.332031 15.867188 18.777344 15.96875 C 18.398438 16.035156 17.097656 16.1875 16.574219 16.1875 " fill-opacity="1" fill-rule="nonzero"/><path fill="#d4d4d4" d="M 24.929688 37.230469 C 24.929688 36.9375 24.933594 36.636719 24.945312 36.328125 C 24.953125 36.308594 24.960938 36.285156 24.960938 36.261719 C 24.960938 36.242188 24.957031 36.226562 24.949219 36.210938 C 24.988281 35.34375 25.070312 34.414062 25.21875 33.410156 C 25.417969 32.027344 25.96875 31.507812 26.703125 31.507812 C 28.484375 31.507812 31.355469 34.582031 32.941406 35.75 C 33.589844 36.230469 34.105469 36.722656 34.519531 37.210938 C 32.929688 37.191406 30.878906 37.179688 28.929688 36.765625 C 28.507812 36.675781 28.089844 36.636719 27.675781 36.636719 C 26.703125 36.636719 25.769531 36.863281 24.929688 37.230469 M 26.097656 36.101562 C 26.007812 36.101562 25.933594 36.171875 25.933594 36.261719 C 25.933594 36.351562 26.007812 36.425781 26.097656 36.425781 C 26.1875 36.425781 26.257812 36.351562 26.257812 36.261719 C 26.257812 36.171875 26.1875 36.101562 26.097656 36.101562 M 25.277344 34.65625 C 25.1875 34.65625 25.117188 34.730469 25.117188 34.820312 C 25.117188 34.910156 25.1875 34.980469 25.277344 34.980469 C 25.367188 34.980469 25.441406 34.910156 25.441406 34.820312 C 25.441406 34.730469 25.367188 34.65625 25.277344 34.65625 M 25.675781 33.246094 C 25.585938 33.246094 25.515625 33.320312 25.515625 33.410156 C 25.515625 33.5 25.585938 33.570312 25.675781 33.570312 C 25.765625 33.570312 25.839844 33.5 25.839844 33.410156 C 25.839844 33.320312 25.765625 33.246094 25.675781 33.246094 " fill-opacity="1" fill-rule="nonzero"/><path fill="#c6bab1" d="M 25.675781 33.570312 C 25.585938 33.570312 25.515625 33.5 25.515625 33.410156 C 25.515625 33.320312 25.585938 33.246094 25.675781 33.246094 C 25.765625 33.246094 25.839844 33.320312 25.839844 33.410156 C 25.839844 33.5 25.765625 33.570312 25.675781 33.570312 " fill-opacity="1" fill-rule="nonzero"/><path fill="#c6bab1" d="M 25.277344 34.980469 C 25.1875 34.980469 25.117188 34.910156 25.117188 34.820312 C 25.117188 34.730469 25.1875 34.65625 25.277344 34.65625 C 25.367188 34.65625 25.441406 34.730469 25.441406 34.820312 C 25.441406 34.910156 25.367188 34.980469 25.277344 34.980469 " fill-opacity="1" fill-rule="nonzero"/><path fill="#c6bab1" d="M 24.945312 36.328125 C 24.945312 36.289062 24.949219 36.25 24.949219 36.210938 C 24.957031 36.226562 24.960938 36.242188 24.960938 36.261719 C 24.960938 36.285156 24.953125 36.308594 24.945312 36.328125 " fill-opacity="1" fill-rule="nonzero"/><path fill="#c6bab1" d="M 26.097656 36.425781 C 26.007812 36.425781 25.933594 36.351562 25.933594 36.261719 C 25.933594 36.171875 26.007812 36.101562 26.097656 36.101562 C 26.1875 36.101562 26.257812 36.171875 26.257812 36.261719 C 26.257812 36.351562 26.1875 36.425781 26.097656 36.425781 " fill-opacity="1" fill-rule="nonzero"/><path fill="#cc9e7a" d="M 26.160156 43.726562 C 25.921875 43.207031 25.671875 42.539062 25.460938 41.710938 C 26.875 41.425781 28.5625 41.066406 30.40625 40.847656 C 33.117188 40.527344 34.789062 39.847656 35.765625 39.273438 C 36.007812 39.890625 36.085938 40.382812 36.113281 40.640625 C 33.878906 42.128906 29.84375 43.257812 26.625 43.671875 C 26.464844 43.691406 26.308594 43.710938 26.160156 43.726562 " fill-opacity="1" fill-rule="nonzero"/><path fill="#eed2a6" d="M 25.460938 41.710938 C 25.160156 40.542969 24.933594 39.058594 24.929688 37.230469 C 25.769531 36.863281 26.703125 36.636719 27.675781 36.636719 C 28.089844 36.636719 28.507812 36.675781 28.929688 36.765625 C 30.878906 37.175781 32.929688 37.191406 34.515625 37.210938 C 35.148438 37.953125 35.53125 38.671875 35.765625 39.273438 C 34.789062 39.847656 33.117188 40.527344 30.40625 40.847656 C 28.5625 41.066406 26.875 41.425781 25.460938 41.710938 " fill-opacity="1" fill-rule="nonzero"/><path fill="#b49277" d="M 26.980469 45.148438 C 26.980469 45.148438 26.597656 44.695312 26.160156 43.726562 C 26.308594 43.710938 26.464844 43.691406 26.625 43.671875 C 29.84375 43.257812 33.875 42.128906 36.113281 40.640625 C 36.128906 40.773438 36.128906 40.847656 36.128906 40.847656 C 36.128906 40.847656 33.1875 43.839844 26.980469 45.148438 " fill-opacity="1" fill-rule="nonzero"/><path fill="#67381d" d="M 28.683594 4.074219 C 29.164062 5.304688 23.535156 8.578125 16.109375 11.386719 C 8.6875 14.195312 2.277344 15.476562 1.796875 14.246094 C 1.316406 13.019531 6.945312 9.742188 14.367188 6.933594 C 21.792969 4.125 28.203125 2.84375 28.683594 4.074219 " fill-opacity="1" fill-rule="nonzero"/><g clip-path="url(#2cd2b92cd6)"><path fill="#67381d" d="M 0.488281 11.910156 L 1.796875 14.246094 L 28.683594 4.074219 L 27.921875 1.53125 L 0.488281 11.910156 " fill-opacity="1" fill-rule="nonzero"/></g><g clip-path="url(#36bfa1b48f)"><path fill="#b87b3c" d="M 27.921875 1.53125 C 28.347656 2.621094 22.550781 5.828125 14.976562 8.695312 C 7.402344 11.5625 0.914062 13 0.488281 11.910156 C 0.0585938 10.820312 5.855469 7.617188 13.429688 4.75 C 21.007812 1.882812 27.492188 0.441406 27.921875 1.53125 " fill-opacity="1" fill-rule="nonzero"/></g><path fill="#67381d" d="M 26.5625 1.523438 C 26.953125 2.519531 21.664062 5.445312 14.75 8.058594 C 7.835938 10.675781 1.917969 11.988281 1.527344 10.996094 C 1.507812 10.9375 1.421875 10.28125 1.4375 10.210938 C 1.6875 9.070312 6.835938 6.921875 13.339844 4.460938 C 19.644531 2.074219 24.875 0.351562 26.082031 0.894531 C 26.136719 0.917969 26.441406 1.324219 26.488281 1.386719 C 26.523438 1.429688 26.542969 1.476562 26.5625 1.523438 " fill-opacity="1" fill-rule="nonzero"/><path fill="#b87b3c" d="M 26.140625 0.984375 C 26.523438 1.964844 21.308594 4.851562 14.492188 7.429688 C 7.679688 10.007812 1.84375 11.304688 1.457031 10.324219 C 1.074219 9.34375 6.289062 6.460938 13.105469 3.878906 C 19.921875 1.300781 25.757812 0.00390625 26.140625 0.984375 " fill-opacity="1" fill-rule="nonzero"/><path fill="#c69563" d="M 25.878906 0.988281 C 26.164062 1.710938 22.300781 3.851562 17.25 5.761719 C 12.203125 7.671875 7.878906 8.632812 7.59375 7.90625 C 7.3125 7.179688 11.171875 5.039062 16.222656 3.128906 C 21.269531 1.21875 25.59375 0.261719 25.878906 0.988281 " fill-opacity="1" fill-rule="nonzero"/><path fill="#e9e3dd" d="M 25.007812 46.785156 C 24.578125 46.785156 24.324219 46.726562 24.324219 46.726562 C 24.324219 46.726562 24.304688 46.691406 24.261719 46.621094 C 24.914062 46.585938 25.746094 46.488281 26.785156 46.28125 C 26.816406 46.398438 26.804688 46.472656 26.746094 46.492188 C 26.039062 46.726562 25.433594 46.785156 25.007812 46.785156 " fill-opacity="1" fill-rule="nonzero"/><path fill="#e7e3df" d="M 23.949219 46.054688 C 23.945312 46.042969 23.941406 46.035156 23.9375 46.027344 C 23.957031 46.027344 23.980469 46.03125 24.003906 46.03125 C 23.984375 46.039062 23.964844 46.046875 23.949219 46.054688 " fill-opacity="1" fill-rule="nonzero"/><path fill="#e4e1de" d="M 24.261719 46.621094 C 24.199219 46.511719 24.085938 46.320312 23.949219 46.054688 C 23.964844 46.046875 23.984375 46.039062 24.003906 46.03125 C 24.105469 46.03125 24.214844 46.035156 24.335938 46.035156 C 24.90625 46.035156 25.675781 45.996094 26.617188 45.863281 C 26.699219 46.035156 26.757812 46.175781 26.785156 46.28125 C 25.746094 46.488281 24.914062 46.585938 24.261719 46.621094 " fill-opacity="1" fill-rule="nonzero"/><path fill="#f2f2f2" d="M 22.261719 39.125 C 22.289062 38.265625 22.414062 37.371094 22.679688 36.472656 C 24.308594 30.9375 23.445312 28.535156 23.445312 28.535156 C 24.921875 30.714844 24.269531 34.449219 24.15625 37.621094 C 23.40625 38.050781 22.761719 38.578125 22.261719 39.125 " fill-opacity="1" fill-rule="nonzero"/><path fill="#eeebe8" d="M 24.003906 46.03125 C 23.980469 46.03125 23.957031 46.027344 23.9375 46.027344 C 23.878906 45.917969 23.816406 45.792969 23.75 45.65625 C 23.984375 45.707031 24.238281 45.738281 24.515625 45.746094 C 24.554688 45.75 24.597656 45.753906 24.640625 45.757812 C 24.421875 45.851562 24.207031 45.941406 24.003906 46.03125 " fill-opacity="1" fill-rule="nonzero"/><path fill="#eceae8" d="M 24.335938 46.035156 C 24.214844 46.035156 24.105469 46.03125 24.003906 46.03125 C 24.207031 45.941406 24.421875 45.851562 24.640625 45.757812 C 24.800781 45.769531 24.960938 45.773438 25.128906 45.773438 C 25.570312 45.773438 26.039062 45.734375 26.519531 45.667969 C 26.554688 45.734375 26.585938 45.800781 26.617188 45.863281 C 25.675781 45.996094 24.90625 46.035156 24.335938 46.035156 " fill-opacity="1" fill-rule="nonzero"/><path fill="#efe1d6" d="M 24.515625 45.746094 C 24.238281 45.738281 23.984375 45.707031 23.75 45.65625 C 23.746094 45.644531 23.738281 45.632812 23.734375 45.617188 C 23.980469 45.679688 24.242188 45.722656 24.515625 45.746094 M 24.351562 43.832031 C 23.804688 43.832031 23.351562 43.796875 22.980469 43.742188 C 22.820312 43.257812 22.671875 42.726562 22.550781 42.164062 C 23.125 42.148438 23.863281 42.027344 24.726562 41.859375 C 24.96875 42.542969 25.261719 43.195312 25.546875 43.785156 C 25.105469 43.816406 24.707031 43.832031 24.351562 43.832031 " fill-opacity="1" fill-rule="nonzero"/><path fill="#faf1e4" d="M 22.550781 42.164062 C 22.351562 41.230469 22.230469 40.203125 22.261719 39.125 C 22.761719 38.578125 23.40625 38.050781 24.15625 37.621094 C 24.136719 38.207031 24.132812 38.777344 24.167969 39.3125 C 24.21875 40.167969 24.4375 41.035156 24.726562 41.859375 C 23.863281 42.027344 23.125 42.148438 22.550781 42.164062 " fill-opacity="1" fill-rule="nonzero"/><path fill="#e8ddd5" d="M 25.128906 45.773438 C 24.960938 45.773438 24.800781 45.769531 24.640625 45.757812 C 24.597656 45.753906 24.554688 45.75 24.515625 45.746094 C 24.242188 45.722656 23.980469 45.679688 23.734375 45.617188 C 23.496094 45.125 23.226562 44.488281 22.980469 43.742188 C 23.351562 43.796875 23.804688 43.832031 24.351562 43.832031 C 24.707031 43.832031 25.105469 43.816406 25.546875 43.785156 C 25.917969 44.542969 26.28125 45.191406 26.519531 45.667969 C 26.039062 45.734375 25.570312 45.773438 25.128906 45.773438 " fill-opacity="1" fill-rule="nonzero"/><path fill="#7f473b" d="M 10.835938 29.195312 C 10.355469 29.195312 7.097656 21.445312 5.710938 16.355469 C 5.710938 16.355469 8.050781 21.914062 8.925781 23.847656 C 9.800781 25.785156 11.304688 29.152344 10.839844 29.195312 C 10.835938 29.195312 10.835938 29.195312 10.835938 29.195312 " fill-opacity="1" fill-rule="nonzero"/><path fill="#622b1b" d="M 18.273438 46.644531 C 18.273438 46.644531 18.207031 48.269531 18.914062 48.539062 C 19.617188 48.804688 20.460938 48.476562 20.15625 47.617188 C 19.855469 46.757812 18.644531 45.449219 17.9375 43.605469 C 17.230469 41.757812 14.980469 34.175781 14.375 33.570312 C 13.769531 32.964844 12.394531 33.367188 12.339844 34.074219 C 12.289062 34.777344 13.082031 36.1875 13.9375 37.453125 C 15.664062 40.003906 17.601562 43.574219 18.273438 46.644531 " fill-opacity="1" fill-rule="nonzero"/><path fill="#6d2f21" d="M 38.882812 33.570312 C 38.882812 33.570312 39.757812 35.371094 39.984375 36.511719 C 40.207031 37.652344 40.167969 40.269531 41.328125 40.203125 C 42.488281 40.136719 42.5625 39.160156 42.15625 38.628906 C 41.753906 38.101562 39.757812 34.660156 39.152344 33.246094 C 38.546875 31.835938 36.308594 25.28125 35.8125 24.96875 C 35.320312 24.652344 34.742188 24.464844 34.355469 25.28125 C 33.96875 26.09375 37.964844 31.304688 38.882812 33.570312 " fill-opacity="1" fill-rule="nonzero"/><path fill="#83493e" d="M 37.320312 30.128906 C 37.320312 30.128906 34.324219 26.1875 34.648438 25.449219 C 34.683594 25.367188 34.738281 25.328125 34.804688 25.328125 C 35.355469 25.328125 36.847656 27.835938 37.320312 30.128906 " fill-opacity="1" fill-rule="nonzero"/><path fill="#622b1b" d="M 35.296875 22.28125 C 35.4375 22.886719 34.957031 23.507812 34.230469 23.675781 C 33.503906 23.84375 32.804688 23.488281 32.664062 22.882812 C 32.527344 22.28125 33.003906 21.65625 33.730469 21.488281 C 34.457031 21.320312 35.160156 21.675781 35.296875 22.28125 " fill-opacity="1" fill-rule="nonzero"/><path fill="#7f473b" d="M 33.609375 23.308594 C 33.277344 23.308594 32.996094 23.160156 32.914062 22.90625 C 32.804688 22.5625 33.101562 22.160156 33.578125 22.003906 C 33.703125 21.964844 33.832031 21.945312 33.953125 21.945312 C 34.285156 21.945312 34.5625 22.09375 34.644531 22.347656 C 34.757812 22.6875 34.460938 23.09375 33.980469 23.246094 C 33.855469 23.289062 33.726562 23.308594 33.609375 23.308594 " fill-opacity="1" fill-rule="nonzero"/><path fill="#6d2f21" d="M 26.582031 6.382812 C 26.582031 6.382812 27.824219 8.46875 28.394531 10.195312 C 28.964844 11.921875 31.476562 20.015625 32.664062 20.480469 C 33.851562 20.949219 33.875 19.777344 33.574219 18.902344 C 33.269531 18.03125 29.003906 10.582031 28.683594 9.339844 C 28.359375 8.097656 27.808594 5.480469 27.808594 5.480469 L 26.582031 6.382812 " fill-opacity="1" fill-rule="nonzero"/><path fill="#83493e" d="M 32.984375 20.105469 C 32.820312 20.105469 32.632812 20.03125 32.496094 19.910156 C 32.117188 19.574219 30.746094 15.933594 30.589844 14.800781 C 30.589844 14.800781 32.8125 18.101562 33.234375 19.171875 C 33.507812 19.859375 33.28125 20.105469 32.984375 20.105469 " fill-opacity="1" fill-rule="nonzero"/><path fill="#7f473b" d="M 16.15625 40.203125 C 16.15625 40.203125 12.394531 34.59375 12.894531 33.9375 C 12.96875 33.839844 13.054688 33.785156 13.148438 33.785156 C 13.679688 33.785156 14.542969 35.457031 16.15625 40.203125 " fill-opacity="1" fill-rule="nonzero"/><path fill="#6f432a" d="M 20.195312 52.59375 C 19.734375 52.59375 19.308594 52.558594 18.933594 52.472656 L 18.769531 52.195312 L 27.804688 48.777344 L 28.527344 50.71875 C 28.527344 50.71875 23.492188 52.59375 20.195312 52.59375 " fill-opacity="1" fill-rule="nonzero"/><path fill="#6f432a" d="M 18.769531 52.195312 L 17.769531 50.515625 C 17.769531 50.515625 18.179688 50.609375 19.019531 50.609375 C 20.519531 50.609375 23.394531 50.308594 27.75 48.628906 L 27.804688 48.777344 L 18.769531 52.195312 " fill-opacity="1" fill-rule="nonzero"/><path fill="#593019" d="M 41.035156 45.449219 L 40.078125 44.132812 L 44.597656 42.421875 C 44.332031 43.636719 41.035156 45.449219 41.035156 45.449219 " fill-opacity="1" fill-rule="nonzero"/><path fill="#593019" d="M 40.078125 44.132812 L 39.664062 43.5625 C 42.019531 42.261719 44.019531 40.535156 44.019531 40.535156 L 44.597656 42.421875 L 40.078125 44.132812 " fill-opacity="1" fill-rule="nonzero"/><path fill="#6f432a" d="M 3.179688 14.285156 C 2.976562 14.285156 2.820312 14.277344 2.703125 14.269531 C 2.5625 14.261719 2.433594 14.179688 2.363281 14.054688 L 2.355469 14.035156 L 13.394531 9.859375 C 13.449219 9.902344 13.496094 9.960938 13.523438 10.03125 L 14.039062 11.28125 C 14.128906 11.503906 14.015625 11.757812 13.789062 11.839844 C 7.816406 13.996094 4.515625 14.285156 3.179688 14.285156 " fill-opacity="1" fill-rule="nonzero"/><path fill="#6f432a" d="M 2.355469 14.035156 L 1.890625 13.203125 C 1.738281 12.933594 1.921875 12.601562 2.230469 12.578125 C 6.414062 12.273438 11.546875 10.359375 12.976562 9.796875 C 13.027344 9.777344 13.082031 9.765625 13.132812 9.765625 C 13.226562 9.765625 13.320312 9.800781 13.394531 9.859375 L 2.355469 14.035156 " fill-opacity="1" fill-rule="nonzero"/><path fill="#593019" d="M 25.636719 6.519531 L 25.183594 5.398438 L 28.683594 4.074219 C 28.265625 4.984375 25.636719 6.519531 25.636719 6.519531 " fill-opacity="1" fill-rule="nonzero"/><path fill="#593019" d="M 25.183594 5.398438 L 24.796875 4.445312 C 27.265625 3.34375 28.097656 2.125 28.097656 2.125 L 28.683594 4.074219 L 25.183594 5.398438 " fill-opacity="1" fill-rule="nonzero"/><path fill="#cccccc" d="M 42.800781 59.242188 C 42.800781 60.210938 34.511719 61 24.289062 61 C 14.066406 61 5.777344 60.210938 5.777344 59.242188 C 5.777344 58.273438 14.066406 57.488281 24.289062 57.488281 C 34.511719 57.488281 42.800781 58.273438 42.800781 59.242188 " fill-opacity="1" fill-rule="nonzero"/></svg>