<svg xmlns="http://www.w3.org/2000/svg" xmlns:xlink="http://www.w3.org/1999/xlink" width="64" zoomAndPan="magnify" viewBox="0 0 48 48" height="64" preserveAspectRatio="xMidYMid meet" version="1.0"><defs><clipPath id="6999aadc8d"><path d="M 0.488281 30 L 47.507812 30 L 47.507812 34.972656 L 0.488281 34.972656 Z M 0.488281 30 " clip-rule="nonzero"/></clipPath><clipPath id="eb15ed6f3c"><path d="M 2 30 L 44 30 L 44 34.972656 L 2 34.972656 Z M 2 30 " clip-rule="nonzero"/></clipPath><clipPath id="eec9542162"><path d="M 15 6.320312 L 33 6.320312 L 33 16 L 15 16 Z M 15 6.320312 " clip-rule="nonzero"/></clipPath><clipPath id="1aabadd2ac"><path d="M 20 6.320312 L 25 6.320312 L 25 11 L 20 11 Z M 20 6.320312 " clip-rule="nonzero"/></clipPath><clipPath id="06f11787e1"><path d="M 23 6.320312 L 31 6.320312 L 31 11 L 23 11 Z M 23 6.320312 " clip-rule="nonzero"/></clipPath><clipPath id="d0dc065668"><path d="M 21 6.320312 L 28 6.320312 L 28 9 L 21 9 Z M 21 6.320312 " clip-rule="nonzero"/></clipPath></defs><g clip-path="url(#6999aadc8d)"><path fill="#8a9645" d="M 47.496094 32.355469 C 47.507812 32.683594 47.148438 32.882812 46.839844 32.988281 C 43.105469 34.257812 38.703125 33.535156 34.777344 33.949219 C 33.390625 34.09375 32.019531 34.378906 30.632812 34.5625 C 28.589844 34.828125 26.527344 34.871094 24.464844 34.902344 C 20.445312 34.960938 16.425781 34.96875 12.40625 34.929688 C 11.171875 34.917969 9.921875 34.898438 8.742188 34.527344 C 8.097656 34.328125 7.488281 34.023438 6.832031 33.851562 C 5.039062 33.378906 3.085938 33.933594 1.308594 33.410156 C 0.929688 33.300781 0.488281 32.996094 0.601562 32.617188 C 0.679688 32.363281 1.117188 32.113281 1.371094 32.035156 C 1.660156 31.949219 1.945312 31.867188 2.242188 31.792969 C 3.140625 31.566406 4.136719 31.378906 5.664062 31.109375 C 6.054688 31.042969 6.210938 30.949219 6.578125 30.816406 C 7.066406 30.636719 16.152344 30.296875 20.527344 30.410156 C 24.914062 30.523438 29.289062 30.78125 33.667969 31.035156 C 36.835938 31.222656 40.25 31.441406 43.542969 31.644531 C 44.617188 31.710938 45.675781 31.773438 46.710938 31.835938 C 47.097656 31.855469 47.476562 31.972656 47.496094 32.355469 Z M 47.496094 32.355469 " fill-opacity="1" fill-rule="nonzero"/></g><g clip-path="url(#eb15ed6f3c)"><path fill="#6b7521" d="M 43.542969 31.644531 C 41.777344 32.816406 39.507812 33.058594 37.375 32.917969 C 35.109375 32.769531 32.875 32.242188 30.605469 32.207031 C 27.320312 32.15625 24.121094 33.128906 20.878906 33.667969 C 18.886719 33.996094 16.871094 34.164062 14.851562 34.164062 C 13.371094 34.164062 11.824219 34.058594 10.546875 33.304688 C 10.039062 33.007812 9.585938 32.613281 9.042969 32.382812 C 7.238281 31.609375 5.140625 32.851562 3.21875 32.4375 C 2.828125 32.351562 2.40625 32.132812 2.242188 31.792969 C 3.140625 31.566406 4.136719 31.378906 5.664062 31.109375 C 6.054688 31.042969 6.210938 30.949219 6.578125 30.816406 C 7.066406 30.636719 16.152344 30.296875 20.527344 30.410156 C 24.914062 30.523438 29.289062 30.78125 33.667969 31.035156 C 36.835938 31.222656 40.25 31.441406 43.542969 31.644531 Z M 43.542969 31.644531 " fill-opacity="1" fill-rule="nonzero"/></g><path fill="#2b1a16" d="M 36.089844 28.617188 C 36.023438 29.550781 35.789062 30.636719 34.9375 31.035156 C 34.273438 31.339844 33.503906 31.097656 32.777344 30.992188 C 31.867188 30.863281 31.019531 31.195312 30.125 31.109375 C 29.070312 31.011719 21.972656 31.109375 20.558594 31.050781 C 20.558594 31.050781 20.382812 31.035156 20.097656 31.011719 C 19.789062 30.988281 19.355469 30.957031 18.878906 30.929688 C 18.808594 30.925781 18.734375 30.921875 18.664062 30.917969 C 18.085938 30.882812 17.460938 30.859375 16.925781 30.855469 C 16.8125 29.777344 16.769531 28.691406 16.730469 27.609375 C 16.722656 27.421875 16.71875 27.238281 16.710938 27.050781 C 16.742188 26.882812 16.769531 26.714844 16.800781 26.542969 C 17.160156 24.554688 14.964844 22.734375 15.804688 20.894531 C 16.644531 19.058594 18.617188 14.703125 20.378906 13.710938 C 21.523438 13.066406 23.167969 12.839844 24.832031 12.796875 C 26.304688 12.757812 27.792969 12.859375 28.957031 12.941406 C 29.277344 12.960938 29.867188 13.9375 30.363281 14.632812 C 30.617188 14.984375 30.847656 15.265625 31.003906 15.308594 C 32 15.582031 32.851562 16.25 33.488281 17.066406 C 33.507812 17.09375 33.53125 17.121094 33.554688 17.152344 C 34.195312 18.003906 34.621094 18.996094 34.96875 20.007812 C 35.910156 22.761719 36.296875 25.710938 36.089844 28.617188 Z M 36.089844 28.617188 " fill-opacity="1" fill-rule="nonzero"/><path fill="#51352c" d="M 33.488281 17.066406 C 30.574219 17.589844 27.085938 18.207031 24.425781 19.308594 C 23.609375 19.644531 22.773438 20.0625 22.265625 20.785156 C 21.949219 21.234375 21.785156 21.765625 21.636719 22.292969 C 21.144531 24.074219 20.832031 25.902344 20.707031 27.746094 C 20.652344 28.535156 20.628906 29.335938 20.445312 30.109375 C 20.367188 30.429688 20.210938 30.714844 20.097656 31.011719 C 19.382812 30.957031 17.984375 30.859375 16.925781 30.855469 C 16.8125 29.777344 16.769531 28.691406 16.730469 27.609375 C 16.722656 27.421875 16.71875 27.238281 16.710938 27.050781 C 16.742188 26.882812 16.769531 26.714844 16.800781 26.542969 C 17.160156 24.554688 17.582031 22.558594 18.421875 20.722656 C 19.261719 18.886719 20.554688 17.199219 22.316406 16.207031 C 24.476562 14.992188 27.089844 14.933594 29.566406 15.105469 C 30.050781 15.136719 30.539062 15.179688 31.003906 15.308594 C 32 15.582031 32.851562 16.25 33.488281 17.066406 Z M 33.488281 17.066406 " fill-opacity="1" fill-rule="nonzero"/><path fill="#68483a" d="M 30.363281 14.632812 C 28.851562 14.925781 27.335938 15.214844 25.824219 15.507812 C 25.429688 15.585938 25.027344 15.664062 24.671875 15.851562 C 24.40625 15.988281 24.175781 16.1875 23.949219 16.386719 C 22.730469 17.457031 21.621094 18.652344 20.636719 19.945312 C 20.347656 20.332031 20.0625 20.730469 19.898438 21.183594 C 19.753906 21.59375 19.710938 22.035156 19.667969 22.46875 C 19.496094 24.324219 19.324219 26.175781 19.148438 28.027344 C 19.0625 28.964844 18.972656 29.902344 18.886719 30.835938 C 18.882812 30.867188 18.878906 30.898438 18.878906 30.929688 C 18.246094 30.890625 17.53125 30.859375 16.925781 30.855469 C 16.8125 29.777344 16.769531 28.691406 16.730469 27.609375 C 16.722656 27.421875 16.71875 27.238281 16.710938 27.050781 C 16.742188 26.882812 16.769531 26.714844 16.800781 26.542969 C 17.160156 24.554688 14.964844 22.734375 15.804688 20.894531 C 16.644531 19.058594 18.617188 14.703125 20.378906 13.710938 C 22.539062 12.496094 26.480469 12.769531 28.957031 12.941406 C 29.277344 12.960938 29.867188 13.9375 30.363281 14.632812 Z M 30.363281 14.632812 " fill-opacity="1" fill-rule="nonzero"/><path fill="#825d4a" d="M 28.03125 13.8125 C 27.210938 14.039062 26.351562 14.070312 25.515625 14.230469 C 22.1875 14.867188 19.421875 17.769531 18.941406 21.117188 C 18.84375 21.777344 18.832031 22.449219 18.816406 23.117188 C 18.78125 24.835938 18.75 26.558594 18.714844 28.28125 C 18.695312 29.09375 18.640625 29.914062 18.652344 30.726562 C 18.65625 30.789062 18.660156 30.855469 18.664062 30.917969 C 18.085938 30.882812 17.460938 30.859375 16.925781 30.855469 C 16.8125 29.777344 16.769531 28.691406 16.730469 27.609375 C 16.722656 27.421875 16.71875 27.238281 16.710938 27.050781 C 16.742188 26.882812 16.769531 26.714844 16.800781 26.542969 C 17.160156 24.554688 14.964844 22.734375 15.804688 20.894531 C 16.644531 19.058594 18.617188 14.703125 20.378906 13.710938 C 21.523438 13.066406 23.167969 12.839844 24.832031 12.796875 C 25.953125 12.921875 27.046875 13.253906 28.03125 13.8125 Z M 28.03125 13.8125 " fill-opacity="1" fill-rule="nonzero"/><path fill="#e2b588" d="M 32.128906 17.328125 L 31.851562 18.308594 L 32.804688 19.421875 L 33.695312 23.203125 L 34.066406 23.570312 L 34.433594 29.011719 L 38.589844 30.226562 L 43.390625 32.316406 L 46.710938 31.832031 L 45.605469 23.695312 L 44.773438 22.402344 L 43.390625 15.609375 L 41.328125 13.703125 L 37.605469 14.253906 Z M 32.128906 17.328125 " fill-opacity="1" fill-rule="nonzero"/><path fill="#af8061" d="M 38.230469 24.246094 L 34.066406 23.570312 L 33.695312 23.203125 L 32.804688 19.421875 L 34.351562 18.785156 L 36.074219 18.886719 Z M 38.230469 24.246094 " fill-opacity="1" fill-rule="nonzero"/><path fill="#68483a" d="M 31.851562 18.308594 L 33.46875 17.921875 L 34.351562 18.785156 L 32.804688 19.421875 Z M 31.851562 18.308594 " fill-opacity="1" fill-rule="nonzero"/><path fill="#9e735a" d="M 36.074219 18.886719 L 35.746094 18.191406 L 33.46875 17.921875 L 34.351562 18.785156 Z M 36.074219 18.886719 " fill-opacity="1" fill-rule="nonzero"/><path fill="#c69771" d="M 41.328125 13.703125 L 38.785156 16.460938 L 36.074219 18.886719 L 35.746094 18.191406 L 38.066406 16.242188 Z M 41.328125 13.703125 " fill-opacity="1" fill-rule="nonzero"/><path fill="#c69771" d="M 43.390625 15.609375 L 41.328125 18.066406 L 43.152344 19.871094 L 44.324219 20.199219 Z M 43.390625 15.609375 " fill-opacity="1" fill-rule="nonzero"/><path fill="#825d4a" d="M 38.589844 30.226562 L 38.230469 24.246094 L 34.066406 23.570312 L 34.433594 29.011719 Z M 38.589844 30.226562 " fill-opacity="1" fill-rule="nonzero"/><path fill="#c69771" d="M 44.773438 22.402344 L 41.636719 24.585938 L 41.082031 27.105469 L 44.324219 30.394531 L 43.390625 32.316406 L 46.710938 31.832031 L 45.605469 23.695312 Z M 44.773438 22.402344 " fill-opacity="1" fill-rule="nonzero"/><path fill="#c69771" d="M 41.636719 24.585938 L 38.230469 24.246094 L 38.589844 30.226562 L 43.390625 32.316406 L 44.324219 30.394531 L 41.082031 27.105469 Z M 41.636719 24.585938 " fill-opacity="1" fill-rule="nonzero"/><path fill="#efcaa0" d="M 32.128906 17.328125 L 32.128906 17.921875 L 33.46875 17.921875 L 31.851562 18.308594 Z M 32.128906 17.328125 " fill-opacity="1" fill-rule="nonzero"/><path fill="#efcaa0" d="M 41.328125 18.066406 L 43.125 15.363281 L 43.390625 15.609375 Z M 41.328125 18.066406 " fill-opacity="1" fill-rule="nonzero"/><path fill="#efcaa0" d="M 37.191406 21.664062 L 38.449219 23.863281 L 41.636719 24.585938 L 38.230469 24.246094 Z M 37.191406 21.664062 " fill-opacity="1" fill-rule="nonzero"/><path fill="#efcaa0" d="M 41.082031 27.105469 L 44.144531 30.765625 L 44.324219 30.394531 Z M 41.082031 27.105469 " fill-opacity="1" fill-rule="nonzero"/><g clip-path="url(#eec9542162)"><path fill="#e2b588" d="M 20.855469 15.730469 L 21.347656 14.765625 L 22.230469 14.480469 L 24.199219 14.765625 L 25.796875 14.234375 L 28.671875 12.285156 L 29.121094 11.25 L 31.851562 10.460938 L 32.609375 8.289062 L 32.507812 7.410156 L 30.925781 6.320312 L 29.511719 6.546875 L 24.402344 6.320312 L 21.410156 6.671875 L 20.558594 7.511719 L 15.804688 8.578125 L 15.253906 11.226562 Z M 20.855469 15.730469 " fill-opacity="1" fill-rule="nonzero"/></g><g clip-path="url(#1aabadd2ac)"><path fill="#c69771" d="M 24.648438 8.25 L 21.410156 6.671875 L 20.558594 7.511719 L 23.933594 10.15625 Z M 24.648438 8.25 " fill-opacity="1" fill-rule="nonzero"/></g><path fill="#af8061" d="M 19.972656 10.15625 L 15.804688 8.578125 L 15.253906 11.226562 L 17.386719 12.941406 Z M 19.972656 10.15625 " fill-opacity="1" fill-rule="nonzero"/><path fill="#af8061" d="M 21.347656 14.765625 L 20.558594 12.410156 L 21.820312 12.410156 L 25.246094 12.203125 L 25.796875 14.234375 L 24.199219 14.765625 L 22.230469 14.480469 Z M 21.347656 14.765625 " fill-opacity="1" fill-rule="nonzero"/><path fill="#825d4a" d="M 28.671875 12.285156 L 27.910156 10.851562 L 25.246094 12.203125 L 25.796875 14.234375 Z M 28.671875 12.285156 " fill-opacity="1" fill-rule="nonzero"/><path fill="#68483a" d="M 29.121094 11.25 L 28.671875 12.285156 L 27.910156 10.851562 L 28.671875 10.625 Z M 29.121094 11.25 " fill-opacity="1" fill-rule="nonzero"/><path fill="#af8061" d="M 31.851562 10.460938 L 30.703125 8.742188 L 28.671875 10.625 L 29.121094 11.25 Z M 31.851562 10.460938 " fill-opacity="1" fill-rule="nonzero"/><path fill="#825d4a" d="M 32.507812 7.410156 L 30.703125 8.742188 L 31.851562 10.460938 L 32.609375 8.289062 Z M 32.507812 7.410156 " fill-opacity="1" fill-rule="nonzero"/><path fill="#c69771" d="M 19.972656 10.15625 L 23.933594 10.15625 L 20.558594 7.511719 L 15.804688 8.578125 Z M 19.972656 10.15625 " fill-opacity="1" fill-rule="nonzero"/><path fill="#825d4a" d="M 20.558594 12.410156 L 18.4375 13.785156 L 20.855469 15.730469 L 21.347656 14.765625 Z M 20.558594 12.410156 " fill-opacity="1" fill-rule="nonzero"/><g clip-path="url(#06f11787e1)"><path fill="#af8061" d="M 24.648438 8.25 L 27.171875 7.929688 L 29.511719 6.546875 L 30.925781 6.320312 L 27.910156 9.398438 L 26.496094 10.460938 L 23.933594 10.15625 Z M 24.648438 8.25 " fill-opacity="1" fill-rule="nonzero"/></g><g clip-path="url(#d0dc065668)"><path fill="#efcaa0" d="M 27.171875 7.929688 L 24.742188 7.929688 L 21.410156 6.671875 L 24.648438 8.25 Z M 27.171875 7.929688 " fill-opacity="1" fill-rule="nonzero"/></g><path fill="#efcaa0" d="M 23.933594 10.15625 L 22.179688 8.78125 L 23.089844 9.882812 L 19.972656 10.15625 Z M 23.933594 10.15625 " fill-opacity="1" fill-rule="nonzero"/><path fill="#efcaa0" d="M 28.671875 12.285156 L 27.808594 11.078125 L 25.246094 12.203125 L 27.910156 10.851562 Z M 28.671875 12.285156 " fill-opacity="1" fill-rule="nonzero"/><path fill="#efcaa0" d="M 26.496094 10.460938 L 27.664062 9.167969 L 29.289062 7.992188 L 27.910156 9.398438 Z M 26.496094 10.460938 " fill-opacity="1" fill-rule="nonzero"/><path fill="#efcaa0" d="M 21.347656 14.765625 L 20.382812 12.820312 L 18.4375 13.785156 L 20.558594 12.410156 Z M 21.347656 14.765625 " fill-opacity="1" fill-rule="nonzero"/><path fill="#9e735a" d="M 8.28125 21.695312 L 7.519531 19.542969 L 7.625 18.4375 L 14.269531 11.226562 L 15.253906 11.226562 L 17.796875 12.636719 L 20.074219 14.582031 L 20.855469 15.730469 L 16.464844 21.847656 L 14.433594 21.390625 Z M 8.28125 21.695312 " fill-opacity="1" fill-rule="nonzero"/><path fill="#af8061" d="M 16.300781 14.132812 L 15.542969 12.082031 L 17.386719 13.105469 L 19.726562 14.765625 Z M 16.300781 14.132812 " fill-opacity="1" fill-rule="nonzero"/><path fill="#68483a" d="M 20.855469 15.730469 L 19.726562 14.765625 L 14.433594 21.390625 L 16.464844 21.847656 Z M 20.855469 15.730469 " fill-opacity="1" fill-rule="nonzero"/><path fill="#e2b588" d="M 16.300781 14.132812 L 14.09375 19.003906 L 12.296875 21.496094 L 8.28125 21.695312 L 7.519531 19.542969 L 7.625 18.4375 L 14.269531 11.226562 L 15.542969 12.082031 Z M 16.300781 14.132812 " fill-opacity="1" fill-rule="nonzero"/><path fill="#9e735a" d="M 17.796875 12.636719 L 14.269531 11.226562 L 15.253906 11.226562 Z M 17.796875 12.636719 " fill-opacity="1" fill-rule="nonzero"/><path fill="#825d4a" d="M 7.625 18.4375 L 9.972656 21.613281 L 8.28125 21.695312 L 7.519531 19.542969 Z M 7.625 18.4375 " fill-opacity="1" fill-rule="nonzero"/><path fill="#68483a" d="M 15.542969 12.082031 L 17.796875 12.636719 L 20.074219 14.582031 L 20.855469 15.730469 L 19.726562 14.765625 Z M 15.542969 12.082031 " fill-opacity="1" fill-rule="nonzero"/><path fill="#efcaa0" d="M 14.269531 11.226562 L 15.214844 12.203125 L 16.300781 14.132812 L 15.542969 12.082031 Z M 14.269531 11.226562 " fill-opacity="1" fill-rule="nonzero"/><path fill="#efcaa0" d="M 14.09375 19.003906 L 12.726562 21.476562 L 12.296875 21.496094 Z M 14.09375 19.003906 " fill-opacity="1" fill-rule="nonzero"/><path fill="#efcaa0" d="M 20.855469 15.730469 L 19.726562 15.117188 L 18.585938 16.191406 L 19.726562 14.765625 Z M 20.855469 15.730469 " fill-opacity="1" fill-rule="nonzero"/><path fill="#e2b588" d="M 8.585938 31.902344 C 8.496094 31.902344 5.664062 31.113281 5.664062 31.113281 L 4.894531 27.597656 L 5.480469 22.894531 L 8.28125 21.390625 L 14.433594 21.390625 L 16.464844 21.847656 L 17.171875 24.246094 L 18.433594 24.585938 L 19.203125 25.539062 L 20.558594 31.050781 L 19.726562 31.050781 L 12.09375 31.902344 Z M 8.585938 31.902344 " fill-opacity="1" fill-rule="nonzero"/><path fill="#825d4a" d="M 16.035156 26.648438 L 18.894531 28.828125 L 19.726562 31.050781 L 16.835938 31.375 L 15.050781 29.359375 Z M 16.035156 26.648438 " fill-opacity="1" fill-rule="nonzero"/><path fill="#68483a" d="M 8.585938 31.902344 L 8.371094 31.113281 L 11.679688 30.742188 L 15.050781 29.359375 L 16.835938 31.375 L 12.09375 31.902344 Z M 8.585938 31.902344 " fill-opacity="1" fill-rule="nonzero"/><path fill="#af8061" d="M 5.464844 30.195312 L 8.371094 31.113281 L 8.585938 31.902344 L 5.664062 31.113281 Z M 5.464844 30.195312 " fill-opacity="1" fill-rule="nonzero"/><path fill="#c69771" d="M 17.171875 24.246094 L 15.957031 24.246094 L 17.328125 25.046875 L 17.957031 26.230469 L 19.203125 25.539062 L 18.433594 24.585938 Z M 17.171875 24.246094 " fill-opacity="1" fill-rule="nonzero"/><path fill="#e2b588" d="M 19.726562 31.050781 L 18.894531 28.828125 L 17.957031 26.230469 L 19.203125 25.539062 L 20.558594 31.050781 Z M 19.726562 31.050781 " fill-opacity="1" fill-rule="nonzero"/><path fill="#c69771" d="M 15.957031 24.246094 L 14.433594 21.390625 L 16.464844 21.847656 L 17.171875 24.246094 Z M 15.957031 24.246094 " fill-opacity="1" fill-rule="nonzero"/><path fill="#9e735a" d="M 4.894531 27.597656 L 6.078125 25.308594 L 7.023438 24.417969 L 10.1875 26.722656 L 15.050781 29.359375 L 11.679688 30.742188 L 8.371094 31.113281 L 5.464844 30.195312 Z M 4.894531 27.597656 " fill-opacity="1" fill-rule="nonzero"/><path fill="#af8061" d="M 16.035156 26.648438 L 15.957031 24.246094 L 17.328125 25.046875 L 17.957031 26.230469 L 18.894531 28.828125 Z M 16.035156 26.648438 " fill-opacity="1" fill-rule="nonzero"/><path fill="#c69771" d="M 7.023438 24.417969 L 6.710938 22.910156 L 8.910156 21.695312 L 8.28125 21.390625 L 5.480469 22.894531 L 4.894531 27.597656 L 6.078125 25.308594 Z M 7.023438 24.417969 " fill-opacity="1" fill-rule="nonzero"/><path fill="#efcaa0" d="M 14.433594 21.390625 L 8.910156 21.695312 L 8.28125 21.390625 Z M 14.433594 21.390625 " fill-opacity="1" fill-rule="nonzero"/><path fill="#efcaa0" d="M 7.089844 22.699219 L 7.023438 24.417969 L 6.710938 22.910156 Z M 7.089844 22.699219 " fill-opacity="1" fill-rule="nonzero"/><path fill="#efcaa0" d="M 17.171875 24.246094 L 16.125 24.03125 L 14.433594 21.390625 L 15.957031 24.246094 Z M 17.171875 24.246094 " fill-opacity="1" fill-rule="nonzero"/><path fill="#efcaa0" d="M 15.050781 29.359375 L 16.117188 27.117188 L 18.894531 28.828125 L 16.035156 26.648438 Z M 15.050781 29.359375 " fill-opacity="1" fill-rule="nonzero"/><path fill="#e2b588" d="M 30.125 31.113281 L 30.621094 29.714844 L 31.878906 28.828125 L 33.511719 28.828125 L 38.742188 29.011719 L 43.234375 30.113281 L 43.726562 31.59375 L 42.679688 32.703125 L 36.527344 32.316406 Z M 30.125 31.113281 " fill-opacity="1" fill-rule="nonzero"/><path fill="#68483a" d="M 41.636719 31.441406 L 42.679688 32.703125 L 43.726562 31.59375 L 43.234375 30.113281 Z M 41.636719 31.441406 " fill-opacity="1" fill-rule="nonzero"/><path fill="#af8061" d="M 36.527344 32.316406 L 35.234375 30.964844 L 32.957031 30.226562 L 30.125 31.113281 Z M 36.527344 32.316406 " fill-opacity="1" fill-rule="nonzero"/><path fill="#825d4a" d="M 41.636719 31.441406 L 35.234375 30.964844 L 36.527344 32.316406 L 42.679688 32.703125 Z M 41.636719 31.441406 " fill-opacity="1" fill-rule="nonzero"/><path fill="#c69771" d="M 32.957031 30.226562 L 31.878906 28.828125 L 30.621094 29.714844 L 30.125 31.113281 Z M 32.957031 30.226562 " fill-opacity="1" fill-rule="nonzero"/><path fill="#efcaa0" d="M 31.878906 28.828125 L 32.515625 30.113281 L 30.125 31.113281 L 32.957031 30.226562 Z M 31.878906 28.828125 " fill-opacity="1" fill-rule="nonzero"/><path fill="#efcaa0" d="M 36.527344 32.316406 L 35.71875 31.175781 L 37.265625 31.117188 L 35.234375 30.964844 Z M 36.527344 32.316406 " fill-opacity="1" fill-rule="nonzero"/><path fill="#efcaa0" d="M 35.289062 28.890625 L 38.75 29.203125 L 40.789062 29.511719 L 38.742188 29.011719 Z M 35.289062 28.890625 " fill-opacity="1" fill-rule="nonzero"/><path fill="#e2b588" d="M 26.199219 13.964844 L 29.65625 16.621094 L 30.8125 16.785156 L 30.753906 17.328125 L 31.851562 18.308594 L 32.128906 17.328125 L 37.605469 14.253906 L 38.003906 13.3125 L 37.71875 12.410156 L 35.515625 10.257812 L 34.15625 9.808594 L 31.851562 10.460938 L 29.121094 11.25 L 28.671875 12.285156 Z M 26.199219 13.964844 " fill-opacity="1" fill-rule="nonzero"/><path fill="#af8061" d="M 30.753906 17.328125 L 32.128906 17.328125 L 31.851562 18.308594 Z M 30.753906 17.328125 " fill-opacity="1" fill-rule="nonzero"/><path fill="#af8061" d="M 37.71875 12.410156 L 36.648438 13.003906 L 36.988281 13.589844 L 36.828125 14.691406 L 37.605469 14.253906 L 38.003906 13.3125 Z M 37.71875 12.410156 " fill-opacity="1" fill-rule="nonzero"/><path fill="#825d4a" d="M 30.753906 17.328125 L 30.8125 16.785156 L 31.070312 14.890625 L 33.910156 14.417969 L 36.648438 13.003906 L 36.988281 13.589844 L 36.828125 14.691406 L 32.128906 17.328125 Z M 30.753906 17.328125 " fill-opacity="1" fill-rule="nonzero"/><path fill="#68483a" d="M 30.8125 16.785156 L 31.070312 14.890625 L 30.140625 14.992188 L 29.542969 14.578125 L 29.65625 16.621094 Z M 30.8125 16.785156 " fill-opacity="1" fill-rule="nonzero"/><path fill="#9e735a" d="M 29.542969 14.578125 L 27.582031 13.84375 L 28.671875 12.285156 L 26.199219 13.964844 L 29.65625 16.621094 Z M 29.542969 14.578125 " fill-opacity="1" fill-rule="nonzero"/><path fill="#c69771" d="M 35.515625 10.257812 L 30.703125 12.6875 L 29.121094 11.25 L 34.15625 9.808594 Z M 35.515625 10.257812 " fill-opacity="1" fill-rule="nonzero"/><path fill="#68483a" d="M 27.582031 13.84375 L 27.285156 14.800781 L 26.199219 13.964844 L 28.671875 12.285156 Z M 27.582031 13.84375 " fill-opacity="1" fill-rule="nonzero"/><path fill="#c69771" d="M 30.703125 12.6875 L 29.542969 14.578125 L 27.582031 13.84375 L 28.671875 12.285156 L 29.121094 11.25 Z M 30.703125 12.6875 " fill-opacity="1" fill-rule="nonzero"/><path fill="#efcaa0" d="M 29.929688 11.984375 L 30.304688 12.753906 L 29.542969 14.578125 L 30.703125 12.6875 Z M 29.929688 11.984375 " fill-opacity="1" fill-rule="nonzero"/><path fill="#efcaa0" d="M 30.140625 14.992188 L 30.753906 15.09375 L 30.8125 16.785156 L 31.070312 14.890625 Z M 30.140625 14.992188 " fill-opacity="1" fill-rule="nonzero"/><path fill="#efcaa0" d="M 33.910156 14.417969 L 36.589844 13.28125 L 36.988281 13.589844 L 36.648438 13.003906 Z M 33.910156 14.417969 " fill-opacity="1" fill-rule="nonzero"/><path fill="#efcaa0" d="M 31.851562 10.460938 L 34.171875 9.996094 L 35.515625 10.257812 L 34.15625 9.808594 Z M 31.851562 10.460938 " fill-opacity="1" fill-rule="nonzero"/></svg>