<svg xmlns="http://www.w3.org/2000/svg" xmlns:xlink="http://www.w3.org/1999/xlink" width="37" zoomAndPan="magnify" viewBox="0 0 27.75 17.999999" height="24" preserveAspectRatio="xMidYMid meet" version="1.0"><defs><clipPath id="b8b16b6382"><path d="M 0 0.0820312 L 27.503906 0.0820312 L 27.503906 3 L 0 3 Z M 0 0.0820312 " clip-rule="nonzero"/></clipPath><clipPath id="9ea588e32f"><path d="M 0 7 L 27.503906 7 L 27.503906 11 L 0 11 Z M 0 7 " clip-rule="nonzero"/></clipPath><clipPath id="51c440b41b"><path d="M 0 15 L 27.503906 15 L 27.503906 17.917969 L 0 17.917969 Z M 0 15 " clip-rule="nonzero"/></clipPath></defs><g clip-path="url(#b8b16b6382)"><path fill="#000000" d="M 27.5 1.25 C 27.5 1.890625 26.972656 2.410156 26.324219 2.410156 L 1.179688 2.410156 C 0.527344 2.410156 0 1.890625 0 1.25 C 0 0.605469 0.527344 0.0859375 1.179688 0.0859375 L 26.324219 0.0859375 C 26.972656 0.0859375 27.5 0.605469 27.5 1.25 Z M 27.5 1.25 " fill-opacity="1" fill-rule="evenodd"/></g><g clip-path="url(#9ea588e32f)"><path fill="#000000" d="M 27.5 9 C 27.5 9.640625 26.972656 10.164062 26.324219 10.164062 L 1.179688 10.164062 C 0.527344 10.164062 0 9.640625 0 9 C 0 8.359375 0.527344 7.835938 1.179688 7.835938 L 26.324219 7.835938 C 26.972656 7.835938 27.5 8.359375 27.5 9 Z M 27.5 9 " fill-opacity="1" fill-rule="evenodd"/></g><g clip-path="url(#51c440b41b)"><path fill="#000000" d="M 27.5 16.75 C 27.5 17.394531 26.972656 17.914062 26.324219 17.914062 L 1.179688 17.914062 C 0.527344 17.914062 0 17.394531 0 16.75 C 0 16.109375 0.527344 15.589844 1.179688 15.589844 L 26.324219 15.589844 C 26.972656 15.589844 27.5 16.109375 27.5 16.75 Z M 27.5 16.75 " fill-opacity="1" fill-rule="evenodd"/></g></svg>