<svg xmlns="http://www.w3.org/2000/svg" xmlns:xlink="http://www.w3.org/1999/xlink" width="64" zoomAndPan="magnify" viewBox="0 0 48 48" height="64" preserveAspectRatio="xMidYMid meet" version="1.0"><defs><clipPath id="a00a3e9c96"><path d="M 2.847656 1.207031 L 45.460938 1.207031 L 45.460938 46.023438 L 2.847656 46.023438 Z M 2.847656 1.207031 " clip-rule="nonzero"/></clipPath></defs><g clip-path="url(#a00a3e9c96)"><path fill="#6a1b1a" d="M 44.359375 40.9375 L 42.660156 40.9375 L 42.660156 38.472656 C 42.648438 38.039062 42.304688 37.695312 41.882812 37.695312 L 39.511719 37.695312 L 39.511719 19.03125 L 42.46875 19.03125 C 42.878906 19.042969 43.222656 18.714844 43.234375 18.292969 C 43.234375 18.0625 43.144531 17.84375 42.980469 17.707031 L 24.507812 1.464844 C 24.214844 1.210938 23.792969 1.210938 23.5 1.464844 L 5.054688 17.71875 C 4.8125 17.921875 4.734375 18.253906 4.835938 18.546875 C 4.9375 18.839844 5.234375 19.03125 5.550781 19.019531 L 8.511719 19.019531 L 8.511719 37.683594 L 6.136719 37.683594 C 5.703125 37.695312 5.359375 38.039062 5.359375 38.460938 L 5.359375 40.921875 L 3.636719 40.921875 C 3.203125 40.921875 2.859375 41.253906 2.847656 41.6875 L 2.847656 45.375 C 2.847656 45.808594 3.21875 46.089844 3.636719 46.089844 L 44.359375 46.089844 C 44.792969 46.089844 45.148438 45.796875 45.148438 45.375 L 45.148438 41.6875 C 45.125 41.265625 44.792969 40.9375 44.359375 40.9375 Z M 37.96875 37.671875 L 36.054688 37.671875 L 36.054688 19.03125 L 37.96875 19.03125 Z M 16.929688 19.03125 L 16.929688 37.695312 L 13.484375 37.695312 L 13.484375 19.03125 Z M 18.460938 19.03125 L 20.464844 19.03125 L 20.464844 37.695312 L 18.460938 37.695312 Z M 21.996094 19.03125 L 26 19.03125 L 26 37.695312 L 21.996094 37.695312 Z M 27.542969 19.03125 L 29.546875 19.03125 L 29.546875 37.695312 L 27.542969 37.695312 Z M 31.078125 19.03125 L 34.523438 19.03125 L 34.523438 37.695312 L 31.078125 37.695312 Z M 23.996094 3.035156 L 40.429688 17.5 L 7.578125 17.5 Z M 10.042969 19.03125 L 11.957031 19.03125 L 11.957031 37.695312 L 10.042969 37.695312 Z M 6.878906 39.199219 L 41.144531 39.199219 L 41.144531 40.910156 L 6.878906 40.910156 Z M 43.617188 44.558594 L 4.390625 44.558594 L 4.390625 42.441406 L 43.605469 42.441406 L 43.605469 44.558594 Z M 43.617188 44.558594 " fill-opacity="1" fill-rule="nonzero"/></g><path fill="#6a1b1a" d="M 23.996094 7.652344 C 21.636719 7.652344 19.738281 9.566406 19.738281 11.914062 C 19.738281 14.273438 21.652344 16.175781 23.996094 16.175781 C 26.359375 16.175781 28.257812 14.261719 28.257812 11.914062 C 28.257812 9.566406 26.359375 7.652344 23.996094 7.652344 Z M 23.996094 14.65625 C 22.492188 14.65625 21.269531 13.433594 21.269531 11.925781 C 21.269531 10.421875 22.492188 9.195312 23.996094 9.195312 C 25.503906 9.195312 26.726562 10.421875 26.726562 11.925781 C 26.726562 13.433594 25.503906 14.65625 23.996094 14.65625 Z M 23.996094 14.65625 " fill-opacity="1" fill-rule="nonzero"/></svg>