<svg xmlns="http://www.w3.org/2000/svg" xmlns:xlink="http://www.w3.org/1999/xlink" width="64" zoomAndPan="magnify" viewBox="0 0 48 48" height="64" preserveAspectRatio="xMidYMid meet" version="1.0"><defs><clipPath id="e7312ea829"><path d="M 5.191406 0 L 44 0 L 44 47.019531 L 5.191406 47.019531 Z M 5.191406 0 " clip-rule="nonzero"/></clipPath></defs><g clip-path="url(#e7312ea829)"><path fill="#6a1b1a" d="M 43.378906 46.171875 L 41.292969 46.171875 L 41.292969 29.210938 C 41.472656 29.164062 41.609375 29.007812 41.609375 28.8125 L 41.609375 27.304688 L 41.949219 27.304688 C 42.183594 27.304688 42.371094 27.117188 42.371094 26.886719 L 42.371094 23.949219 C 42.371094 23.714844 42.183594 23.527344 41.949219 23.527344 L 41.875 23.527344 L 38.492188 15.679688 L 38.492188 14.296875 L 41.746094 13.054688 C 41.910156 12.992188 42.015625 12.835938 42.015625 12.660156 C 42.015625 12.488281 41.910156 12.332031 41.746094 12.269531 L 38.222656 10.925781 C 38.09375 10.875 37.945312 10.894531 37.832031 10.972656 C 37.71875 11.050781 37.652344 11.179688 37.652344 11.316406 L 37.652344 15.679688 L 34.269531 23.527344 L 34.191406 23.527344 C 33.960938 23.527344 33.773438 23.714844 33.773438 23.949219 L 33.773438 26.886719 C 33.773438 27.117188 33.960938 27.304688 34.191406 27.304688 L 34.53125 27.304688 L 34.53125 28.8125 C 34.53125 29.007812 34.667969 29.164062 34.851562 29.210938 L 34.851562 30.757812 L 32.679688 30.757812 C 32.445312 30.757812 32.257812 30.945312 32.257812 31.175781 L 32.257812 32.777344 L 30.949219 32.777344 L 30.949219 31.175781 L 30.953125 31.175781 L 30.953125 22.351562 C 30.953125 22.117188 30.765625 21.929688 30.535156 21.929688 L 27.71875 21.929688 L 27.71875 18.324219 C 27.898438 18.277344 28.035156 18.121094 28.035156 17.925781 L 28.035156 16.417969 L 28.375 16.417969 C 28.605469 16.417969 28.792969 16.230469 28.792969 16 L 28.792969 13.0625 C 28.792969 12.832031 28.605469 12.644531 28.375 12.644531 L 28.296875 12.644531 L 24.914062 4.792969 L 24.914062 3.410156 L 28.171875 2.167969 C 28.332031 2.105469 28.441406 1.949219 28.441406 1.773438 C 28.441406 1.601562 28.332031 1.445312 28.171875 1.382812 L 24.644531 0.0390625 C 24.515625 -0.0117188 24.371094 0.0078125 24.257812 0.0859375 C 24.144531 0.164062 24.074219 0.292969 24.074219 0.429688 L 24.074219 4.792969 L 20.691406 12.644531 L 20.617188 12.644531 C 20.382812 12.644531 20.195312 12.832031 20.195312 13.0625 L 20.195312 16 C 20.195312 16.230469 20.382812 16.417969 20.617188 16.417969 L 20.957031 16.417969 L 20.957031 17.925781 C 20.957031 18.121094 21.09375 18.277344 21.273438 18.324219 L 21.273438 21.929688 L 18.460938 21.929688 C 18.226562 21.929688 18.039062 22.117188 18.039062 22.351562 L 18.039062 32.777344 L 16.730469 32.777344 L 16.730469 31.175781 C 16.730469 30.945312 16.542969 30.757812 16.308594 30.757812 L 14.140625 30.757812 L 14.140625 29.210938 C 14.320312 29.164062 14.457031 29.007812 14.457031 28.8125 L 14.457031 27.304688 L 14.796875 27.304688 C 15.03125 27.304688 15.21875 27.117188 15.21875 26.886719 L 15.21875 23.949219 C 15.21875 23.714844 15.03125 23.527344 14.796875 23.527344 L 14.71875 23.527344 L 11.339844 15.679688 L 11.339844 14.296875 L 14.59375 13.054688 C 14.757812 12.992188 14.863281 12.835938 14.863281 12.660156 C 14.863281 12.488281 14.757812 12.332031 14.59375 12.269531 L 11.066406 10.925781 C 10.9375 10.875 10.792969 10.894531 10.679688 10.972656 C 10.566406 11.050781 10.5 11.179688 10.5 11.316406 L 10.5 15.679688 L 7.117188 23.527344 L 7.039062 23.527344 C 6.808594 23.527344 6.621094 23.714844 6.621094 23.949219 L 6.621094 26.886719 C 6.621094 27.117188 6.808594 27.304688 7.039062 27.304688 L 7.378906 27.304688 L 7.378906 28.8125 C 7.378906 29.007812 7.515625 29.164062 7.699219 29.210938 L 7.699219 46.171875 L 5.613281 46.171875 C 5.378906 46.171875 5.191406 46.359375 5.191406 46.589844 C 5.191406 46.820312 5.378906 47.007812 5.613281 47.007812 L 43.378906 47.007812 C 43.609375 47.007812 43.796875 46.820312 43.796875 46.589844 C 43.796875 46.359375 43.609375 46.171875 43.378906 46.171875 Z M 38.492188 11.925781 L 40.417969 12.660156 L 38.492188 13.398438 Z M 24.914062 1.039062 L 26.84375 1.773438 L 24.914062 2.511719 Z M 11.339844 11.925781 L 13.265625 12.660156 L 11.339844 13.398438 Z M 24.496094 5.941406 L 27.382812 12.644531 L 21.605469 12.644531 Z M 21.035156 15.578125 L 21.035156 13.480469 L 27.953125 13.480469 L 27.953125 15.578125 Z M 25.851562 21.929688 L 23.140625 21.929688 C 22.910156 21.929688 22.722656 22.117188 22.722656 22.351562 L 22.722656 23.574219 L 22.113281 23.574219 L 22.113281 18.34375 L 26.878906 18.34375 L 26.878906 23.574219 L 26.269531 23.574219 L 26.269531 22.351562 C 26.269531 22.117188 26.082031 21.929688 25.851562 21.929688 Z M 21.792969 17.503906 L 21.792969 16.417969 L 27.195312 16.417969 L 27.195312 17.503906 Z M 18.878906 22.769531 L 21.273438 22.769531 L 21.273438 23.996094 C 21.273438 24.226562 21.460938 24.414062 21.691406 24.414062 L 23.140625 24.414062 C 23.375 24.414062 23.5625 24.226562 23.5625 23.992188 L 23.5625 22.769531 L 25.429688 22.769531 L 25.429688 23.992188 C 25.429688 24.226562 25.617188 24.414062 25.851562 24.414062 L 27.296875 24.414062 C 27.53125 24.414062 27.714844 24.226562 27.71875 23.996094 L 27.71875 22.769531 L 30.113281 22.769531 L 30.113281 30.757812 L 27.941406 30.757812 C 27.707031 30.757812 27.519531 30.945312 27.519531 31.175781 L 27.519531 32.777344 L 26.210938 32.777344 L 26.210938 31.175781 C 26.210938 30.945312 26.023438 30.757812 25.789062 30.757812 L 23.199219 30.757812 C 22.96875 30.757812 22.78125 30.945312 22.78125 31.175781 L 22.78125 32.777344 L 21.46875 32.777344 L 21.46875 31.175781 C 21.46875 30.945312 21.28125 30.757812 21.050781 30.757812 L 18.878906 30.757812 Z M 10.917969 16.824219 L 13.808594 23.527344 L 8.03125 23.527344 Z M 13.300781 31.175781 L 13.300781 46.171875 L 8.535156 46.171875 L 8.535156 29.230469 L 13.300781 29.230469 Z M 13.617188 28.390625 L 8.21875 28.390625 L 8.21875 27.304688 L 13.617188 27.304688 Z M 7.460938 26.464844 L 7.460938 24.367188 L 14.378906 24.367188 L 14.378906 26.464844 Z M 27.792969 46.171875 L 21.195312 46.171875 L 21.195312 40.039062 C 21.195312 38.261719 22.640625 36.816406 24.417969 36.816406 L 24.570312 36.816406 C 26.347656 36.816406 27.792969 38.261719 27.792969 40.039062 Z M 34.851562 46.171875 L 28.632812 46.171875 L 28.632812 40.039062 C 28.632812 37.796875 26.808594 35.976562 24.570312 35.976562 L 24.417969 35.976562 C 22.179688 35.976562 20.359375 37.796875 20.359375 40.039062 L 20.359375 46.171875 L 14.140625 46.171875 L 14.140625 31.597656 L 15.890625 31.597656 L 15.890625 33.199219 C 15.890625 33.429688 16.078125 33.617188 16.308594 33.617188 L 18.460938 33.617188 C 18.691406 33.617188 18.878906 33.429688 18.878906 33.199219 L 18.878906 31.597656 L 20.628906 31.597656 L 20.628906 33.199219 C 20.628906 33.429688 20.816406 33.617188 21.050781 33.617188 L 23.199219 33.617188 C 23.433594 33.617188 23.621094 33.429688 23.621094 33.199219 L 23.621094 31.597656 L 25.371094 31.597656 L 25.371094 33.199219 C 25.371094 33.429688 25.558594 33.617188 25.789062 33.617188 L 27.941406 33.617188 C 28.171875 33.617188 28.359375 33.429688 28.359375 33.199219 L 28.359375 31.597656 L 30.109375 31.597656 L 30.109375 33.199219 C 30.109375 33.429688 30.296875 33.617188 30.53125 33.617188 L 32.679688 33.617188 C 32.910156 33.617188 33.097656 33.429688 33.097656 33.199219 L 33.097656 31.597656 L 34.851562 31.597656 Z M 38.070312 16.824219 L 40.960938 23.527344 L 35.183594 23.527344 Z M 40.453125 46.171875 L 35.6875 46.171875 L 35.6875 29.230469 L 40.453125 29.230469 Z M 40.769531 28.390625 L 35.371094 28.390625 L 35.371094 27.304688 L 40.769531 27.304688 Z M 34.613281 26.464844 L 34.613281 24.367188 L 41.53125 24.367188 L 41.53125 26.464844 Z M 34.613281 26.464844 " fill-opacity="1" fill-rule="nonzero"/></g><path fill="#6a1b1a" d="M 9.894531 34.769531 L 11.945312 34.769531 C 12.175781 34.769531 12.363281 34.582031 12.363281 34.351562 L 12.363281 31.925781 C 12.363281 31.128906 11.714844 30.480469 10.917969 30.480469 C 10.121094 30.480469 9.472656 31.128906 9.472656 31.925781 L 9.472656 34.351562 C 9.472656 34.582031 9.660156 34.769531 9.894531 34.769531 Z M 10.3125 31.925781 C 10.3125 31.589844 10.582031 31.320312 10.917969 31.320312 C 11.253906 31.320312 11.523438 31.589844 11.523438 31.925781 L 11.523438 33.929688 L 10.3125 33.929688 Z M 10.3125 31.925781 " fill-opacity="1" fill-rule="nonzero"/><path fill="#6a1b1a" d="M 23.238281 29.730469 C 23.46875 29.730469 23.65625 29.542969 23.65625 29.3125 L 23.65625 26.886719 C 23.65625 26.089844 23.007812 25.441406 22.210938 25.441406 C 21.414062 25.441406 20.765625 26.089844 20.765625 26.886719 L 20.765625 29.3125 C 20.765625 29.542969 20.953125 29.730469 21.1875 29.730469 Z M 21.605469 26.886719 C 21.605469 26.554688 21.878906 26.28125 22.210938 26.28125 C 22.546875 26.28125 22.816406 26.554688 22.816406 26.886719 L 22.816406 28.890625 L 21.605469 28.890625 Z M 21.605469 26.886719 " fill-opacity="1" fill-rule="nonzero"/><path fill="#6a1b1a" d="M 25.75 29.730469 L 27.804688 29.730469 C 28.035156 29.730469 28.222656 29.542969 28.222656 29.3125 L 28.222656 26.886719 C 28.222656 26.089844 27.574219 25.441406 26.777344 25.441406 C 25.980469 25.441406 25.332031 26.089844 25.332031 26.886719 L 25.332031 29.3125 C 25.332031 29.542969 25.519531 29.730469 25.75 29.730469 Z M 26.171875 26.886719 C 26.171875 26.554688 26.441406 26.28125 26.777344 26.28125 C 27.113281 26.28125 27.382812 26.554688 27.382812 26.886719 L 27.382812 28.890625 L 26.171875 28.890625 Z M 26.171875 26.886719 " fill-opacity="1" fill-rule="nonzero"/><path fill="#6a1b1a" d="M 37.046875 34.769531 L 39.097656 34.769531 C 39.328125 34.769531 39.515625 34.582031 39.515625 34.351562 L 39.515625 31.925781 C 39.515625 31.128906 38.867188 30.480469 38.070312 30.480469 C 37.273438 30.480469 36.625 31.128906 36.625 31.925781 L 36.625 34.351562 C 36.625 34.582031 36.8125 34.769531 37.046875 34.769531 Z M 37.464844 31.925781 C 37.464844 31.589844 37.738281 31.320312 38.070312 31.320312 C 38.40625 31.320312 38.675781 31.589844 38.675781 31.925781 L 38.675781 33.929688 L 37.464844 33.929688 Z M 37.464844 31.925781 " fill-opacity="1" fill-rule="nonzero"/></svg>