<svg xmlns="http://www.w3.org/2000/svg" xmlns:xlink="http://www.w3.org/1999/xlink" width="64" zoomAndPan="magnify" viewBox="0 0 48 48" height="64" preserveAspectRatio="xMidYMid meet" version="1.0"><defs><clipPath id="6b0a381c19"><path d="M 6.042969 0 L 42 0 L 42 4 L 6.042969 4 Z M 6.042969 0 " clip-rule="nonzero"/></clipPath><clipPath id="2583310484"><path d="M 6.042969 5 L 42 5 L 42 17 L 6.042969 17 Z M 6.042969 5 " clip-rule="nonzero"/></clipPath><clipPath id="2bde19cc74"><path d="M 7 43 L 41 43 L 41 47.019531 L 7 47.019531 Z M 7 43 " clip-rule="nonzero"/></clipPath></defs><g clip-path="url(#6b0a381c19)"><path fill="#6a1b1a" d="M 6.957031 0.0078125 C 6.980469 0.0078125 7.003906 0.0078125 7.027344 0.0078125 C 7.109375 0.0078125 7.191406 0.0078125 7.273438 0.0078125 C 7.332031 0.0078125 7.390625 0.0078125 7.449219 0.0078125 C 7.613281 0.0078125 7.777344 0.0078125 7.941406 0.0078125 C 8.117188 0.0078125 8.292969 0.0078125 8.472656 0.0078125 C 8.78125 0.0078125 9.09375 0.0078125 9.40625 0.0078125 C 9.867188 0.0078125 10.328125 0.0078125 10.792969 0.0078125 C 11.667969 0.0078125 12.539062 0.0078125 13.414062 0.0078125 C 14.089844 0.0078125 14.765625 0.0078125 15.4375 0.0078125 C 15.535156 0.0078125 15.632812 0.0078125 15.730469 0.0078125 C 15.875 0.0078125 16.019531 0.0078125 16.167969 0.0078125 C 17.523438 0.0078125 18.882812 0.0078125 20.238281 0.0078125 C 20.265625 0.0078125 20.289062 0.0078125 20.316406 0.0078125 C 20.601562 0.0078125 20.886719 0.0078125 21.171875 0.0078125 C 21.199219 0.0078125 21.222656 0.0078125 21.25 0.0078125 C 21.394531 0.0078125 21.496094 0.0078125 21.5625 0.0078125 C 23.210938 0.0078125 24.859375 0.0078125 26.507812 0.0078125 C 26.921875 0.0078125 27.339844 0.0078125 27.753906 0.00390625 C 27.777344 0.00390625 27.804688 0.00390625 27.832031 0.00390625 C 28.617188 0.00390625 29.40625 0.00390625 30.195312 0.00390625 C 30.21875 0.00390625 30.246094 0.00390625 30.269531 0.00390625 C 30.835938 0.00390625 31.40625 0.00390625 31.972656 0.00390625 C 32.164062 0.00390625 32.359375 0.00390625 32.554688 0.00390625 C 32.601562 0.00390625 32.648438 0.00390625 32.699219 0.00390625 C 33.421875 0.00390625 34.144531 0.00390625 34.867188 0.00390625 C 35.6875 0.00390625 36.507812 0.00390625 37.328125 0.00390625 C 37.789062 0.00390625 38.25 0.00390625 38.710938 0.00390625 C 39.015625 0.00390625 39.324219 0.00390625 39.628906 0.00390625 C 39.804688 0.00390625 39.980469 0.00390625 40.15625 0.00390625 C 40.316406 0.00390625 40.472656 0.00390625 40.632812 0.00390625 C 40.691406 0.00390625 40.746094 0.00390625 40.804688 0.00390625 C 41.25 0.00390625 41.554688 0.0664062 41.71875 0.191406 C 41.734375 0.214844 41.75 0.234375 41.765625 0.257812 C 41.785156 0.277344 41.800781 0.300781 41.816406 0.320312 C 41.914062 0.476562 41.945312 0.605469 41.949219 0.789062 C 41.949219 0.828125 41.949219 0.867188 41.949219 0.910156 C 41.949219 0.953125 41.949219 1 41.949219 1.042969 C 41.949219 1.089844 41.949219 1.132812 41.949219 1.179688 C 41.949219 1.277344 41.949219 1.371094 41.949219 1.46875 C 41.945312 1.613281 41.949219 1.761719 41.949219 1.90625 C 41.949219 2 41.949219 2.09375 41.949219 2.1875 C 41.949219 2.230469 41.949219 2.273438 41.949219 2.316406 C 41.945312 2.773438 41.890625 3.101562 41.582031 3.449219 C 41.121094 3.890625 40.386719 3.925781 39.785156 3.921875 C 39.730469 3.921875 39.675781 3.921875 39.617188 3.921875 C 39.464844 3.921875 39.308594 3.921875 39.15625 3.921875 C 38.988281 3.921875 38.820312 3.921875 38.652344 3.921875 C 38.355469 3.921875 38.0625 3.921875 37.769531 3.921875 C 37.332031 3.921875 36.894531 3.921875 36.457031 3.921875 C 35.675781 3.925781 34.894531 3.925781 34.113281 3.925781 C 33.429688 3.921875 32.746094 3.921875 32.0625 3.921875 C 32.015625 3.921875 31.972656 3.921875 31.925781 3.921875 C 31.742188 3.921875 31.554688 3.921875 31.371094 3.921875 C 29.644531 3.925781 27.917969 3.921875 26.191406 3.921875 C 24.65625 3.921875 23.121094 3.921875 21.589844 3.921875 C 19.863281 3.925781 18.140625 3.925781 16.417969 3.921875 C 16.234375 3.921875 16.050781 3.921875 15.867188 3.921875 C 15.820312 3.921875 15.773438 3.921875 15.730469 3.921875 C 15.046875 3.921875 14.363281 3.921875 13.679688 3.925781 C 12.902344 3.925781 12.125 3.925781 11.347656 3.921875 C 10.914062 3.921875 10.480469 3.921875 10.042969 3.921875 C 9.753906 3.925781 9.464844 3.921875 9.171875 3.921875 C 9.007812 3.921875 8.84375 3.921875 8.675781 3.921875 C 8.527344 3.921875 8.375 3.921875 8.222656 3.921875 C 8.171875 3.921875 8.117188 3.921875 8.0625 3.921875 C 7.476562 3.925781 6.886719 3.84375 6.425781 3.457031 C 6.101562 3.117188 6.046875 2.757812 6.050781 2.304688 C 6.050781 2.253906 6.050781 2.207031 6.050781 2.15625 C 6.050781 2.054688 6.050781 1.953125 6.050781 1.847656 C 6.054688 1.71875 6.054688 1.585938 6.054688 1.457031 C 6.054688 1.332031 6.054688 1.207031 6.054688 1.078125 C 6.054688 1.03125 6.054688 0.984375 6.054688 0.9375 C 6.054688 0.671875 6.066406 0.484375 6.25 0.277344 C 6.273438 0.257812 6.300781 0.238281 6.324219 0.214844 C 6.347656 0.195312 6.375 0.171875 6.398438 0.152344 C 6.574219 0.03125 6.746094 0.0078125 6.957031 0.0078125 Z M 6.957031 0.0078125 " fill-opacity="1" fill-rule="nonzero"/></g><g clip-path="url(#2583310484)"><path fill="#6a1b1a" d="M 24.609375 5.214844 C 24.953125 5.214844 25.296875 5.214844 25.644531 5.210938 C 28.40625 5.210938 31.171875 5.210938 33.9375 5.234375 C 34.066406 5.234375 34.191406 5.234375 34.320312 5.234375 C 34.578125 5.238281 34.839844 5.238281 35.097656 5.242188 C 35.179688 5.242188 35.265625 5.242188 35.351562 5.246094 C 35.773438 5.246094 36.191406 5.253906 36.613281 5.285156 C 36.765625 5.292969 36.914062 5.296875 37.066406 5.300781 C 37.121094 5.300781 37.175781 5.300781 37.230469 5.304688 C 37.3125 5.304688 37.394531 5.304688 37.476562 5.308594 C 37.972656 5.3125 38.277344 5.371094 38.382812 5.480469 C 38.398438 5.566406 38.410156 5.652344 38.421875 5.742188 C 38.453125 5.753906 38.488281 5.765625 38.523438 5.777344 C 39.738281 6.242188 40.75 7.039062 41.320312 8.226562 C 41.394531 8.402344 41.457031 8.578125 41.515625 8.753906 C 41.527344 8.785156 41.539062 8.820312 41.550781 8.851562 C 41.6875 9.273438 41.726562 9.667969 41.726562 10.109375 C 41.726562 10.15625 41.726562 10.203125 41.726562 10.253906 C 41.726562 10.691406 41.648438 11.105469 41.503906 11.515625 C 41.492188 11.542969 41.484375 11.566406 41.472656 11.59375 C 41.296875 12.066406 41.039062 12.472656 40.703125 12.847656 C 40.675781 12.878906 40.652344 12.910156 40.625 12.941406 C 40.019531 13.652344 39.097656 14.175781 38.160156 14.269531 C 37.199219 14.328125 36.308594 14.144531 35.566406 13.507812 C 34.976562 12.972656 34.714844 12.25 34.664062 11.46875 C 34.640625 10.867188 34.738281 10.480469 35.144531 10.023438 C 35.417969 9.734375 35.707031 9.515625 36.113281 9.503906 C 36.140625 9.503906 36.171875 9.503906 36.199219 9.503906 C 36.5 9.496094 36.78125 9.429688 37.042969 9.300781 C 37.191406 9.128906 37.203125 8.988281 37.199219 8.765625 C 37.179688 8.597656 37.144531 8.457031 37.039062 8.320312 C 36.671875 8.074219 36.140625 8.082031 35.71875 8.160156 C 34.863281 8.355469 34.273438 8.804688 33.785156 9.519531 C 33.25 10.378906 33.210938 11.359375 33.410156 12.324219 C 33.582031 13.015625 33.890625 13.644531 34.34375 14.195312 C 34.371094 14.222656 34.394531 14.253906 34.417969 14.285156 C 34.886719 14.839844 35.535156 15.21875 36.179688 15.539062 L 36.179688 16.511719 C 33.851562 16.511719 31.523438 16.515625 29.195312 16.515625 C 29.160156 16.515625 29.125 16.515625 29.089844 16.515625 C 28.339844 16.515625 27.59375 16.515625 26.847656 16.515625 C 26.480469 16.515625 26.113281 16.515625 25.746094 16.515625 C 25.707031 16.515625 25.671875 16.515625 25.632812 16.515625 C 24.449219 16.515625 23.265625 16.515625 22.082031 16.515625 C 20.867188 16.515625 19.648438 16.515625 18.433594 16.515625 C 18.261719 16.515625 18.089844 16.515625 17.917969 16.515625 C 17.882812 16.515625 17.851562 16.515625 17.816406 16.515625 C 17.269531 16.515625 16.726562 16.515625 16.179688 16.515625 C 15.632812 16.515625 15.085938 16.515625 14.539062 16.515625 C 14.214844 16.515625 13.886719 16.515625 13.5625 16.515625 C 13.347656 16.515625 13.128906 16.515625 12.910156 16.515625 C 12.789062 16.515625 12.664062 16.515625 12.539062 16.515625 C 12.40625 16.515625 12.273438 16.515625 12.140625 16.515625 C 12.101562 16.515625 12.0625 16.515625 12.023438 16.515625 C 11.988281 16.515625 11.953125 16.515625 11.917969 16.515625 C 11.886719 16.515625 11.855469 16.515625 11.824219 16.515625 C 11.777344 16.515625 11.742188 16.5 11.71875 16.476562 C 11.664062 16.195312 11.644531 15.882812 11.753906 15.613281 C 11.957031 15.402344 12.246094 15.296875 12.511719 15.175781 C 13.074219 14.914062 13.648438 14.3125 13.960938 13.78125 C 13.988281 13.742188 14.015625 13.699219 14.042969 13.65625 C 14.601562 12.753906 14.824219 11.660156 14.585938 10.617188 C 14.503906 10.328125 14.386719 10.054688 14.261719 9.78125 C 14.242188 9.742188 14.222656 9.699219 14.207031 9.660156 C 13.84375 8.9375 13.195312 8.488281 12.445312 8.234375 C 11.953125 8.074219 11.484375 8.09375 11.007812 8.292969 C 10.875 8.410156 10.832031 8.539062 10.808594 8.710938 C 10.796875 8.929688 10.824219 9.15625 10.96875 9.332031 C 11.179688 9.476562 11.371094 9.5 11.621094 9.5 C 12.039062 9.511719 12.332031 9.613281 12.652344 9.894531 C 12.675781 9.914062 12.703125 9.9375 12.726562 9.957031 C 13.058594 10.261719 13.269531 10.636719 13.296875 11.085938 C 13.296875 11.136719 13.296875 11.1875 13.296875 11.238281 C 13.296875 11.265625 13.296875 11.292969 13.296875 11.320312 C 13.289062 11.796875 13.246094 12.226562 13.027344 12.660156 C 13.011719 12.691406 12.996094 12.71875 12.980469 12.75 C 12.652344 13.386719 12.074219 13.921875 11.390625 14.152344 C 10.3125 14.464844 9.234375 14.269531 8.261719 13.765625 C 8.105469 13.671875 7.964844 13.5625 7.828125 13.445312 C 7.792969 13.417969 7.761719 13.390625 7.726562 13.359375 C 6.941406 12.660156 6.335938 11.792969 6.257812 10.714844 C 6.199219 9.265625 6.46875 8.09375 7.457031 6.992188 C 7.84375 6.578125 8.300781 6.304688 8.796875 6.042969 C 8.828125 6.027344 8.859375 6.007812 8.894531 5.992188 C 9.214844 5.824219 9.457031 5.742188 9.625 5.742188 L 9.625 5.441406 C 9.933594 5.34375 10.246094 5.324219 10.570312 5.308594 C 10.601562 5.308594 10.636719 5.308594 10.671875 5.304688 C 11.976562 5.246094 13.28125 5.238281 14.589844 5.230469 C 14.792969 5.230469 14.996094 5.230469 15.203125 5.230469 C 18.335938 5.214844 21.472656 5.214844 24.609375 5.214844 Z M 17.894531 9.324219 C 17.738281 9.558594 17.683594 9.777344 17.6875 10.058594 C 17.6875 10.089844 17.683594 10.121094 17.683594 10.152344 C 17.683594 10.25 17.683594 10.347656 17.683594 10.445312 C 17.683594 10.515625 17.683594 10.585938 17.683594 10.652344 C 17.683594 10.796875 17.683594 10.941406 17.683594 11.085938 C 17.683594 11.273438 17.683594 11.457031 17.679688 11.640625 C 17.679688 11.785156 17.679688 11.925781 17.679688 12.070312 C 17.679688 12.136719 17.679688 12.203125 17.679688 12.273438 C 17.671875 12.65625 17.765625 13.007812 17.957031 13.332031 C 18.09375 13.457031 18.195312 13.515625 18.382812 13.53125 C 18.585938 13.515625 18.746094 13.460938 18.882812 13.304688 C 19.042969 13.058594 19.097656 12.808594 19.097656 12.515625 C 19.097656 12.488281 19.097656 12.460938 19.097656 12.429688 C 19.097656 12.339844 19.097656 12.246094 19.097656 12.152344 C 19.097656 12.089844 19.097656 12.023438 19.097656 11.960938 C 19.097656 11.824219 19.097656 11.6875 19.097656 11.550781 C 19.097656 11.378906 19.097656 11.207031 19.097656 11.035156 C 19.097656 10.902344 19.097656 10.765625 19.097656 10.632812 C 19.097656 10.570312 19.097656 10.503906 19.101562 10.441406 C 19.117188 10.050781 19.054688 9.679688 18.914062 9.332031 C 18.585938 9.019531 18.21875 9.003906 17.894531 9.324219 Z M 23.472656 9.332031 C 23.339844 9.519531 23.296875 9.675781 23.285156 9.902344 C 23.285156 9.929688 23.285156 9.957031 23.28125 9.984375 C 23.269531 10.273438 23.269531 10.566406 23.273438 10.859375 C 23.277344 10.917969 23.277344 10.972656 23.277344 11.03125 C 23.277344 11.152344 23.28125 11.273438 23.28125 11.390625 C 23.285156 11.546875 23.285156 11.699219 23.285156 11.851562 C 23.289062 11.972656 23.289062 12.089844 23.289062 12.210938 C 23.292969 12.265625 23.292969 12.324219 23.292969 12.378906 C 23.289062 12.691406 23.351562 12.984375 23.480469 13.257812 C 23.65625 13.410156 23.828125 13.476562 24.058594 13.484375 C 24.261719 13.4375 24.378906 13.339844 24.496094 13.171875 C 24.707031 12.746094 24.738281 12.234375 24.738281 11.765625 C 24.738281 11.730469 24.738281 11.695312 24.738281 11.660156 C 24.738281 11.589844 24.738281 11.515625 24.738281 11.441406 C 24.738281 11.332031 24.742188 11.226562 24.742188 11.117188 C 24.765625 10.476562 24.660156 9.875 24.425781 9.3125 C 24.25 9.152344 24.128906 9.050781 23.878906 9.058594 C 23.695312 9.085938 23.589844 9.195312 23.472656 9.332031 Z M 29.113281 9.371094 C 28.925781 9.679688 28.882812 10.027344 28.875 10.378906 C 28.875 10.40625 28.875 10.429688 28.875 10.457031 C 28.875 10.535156 28.875 10.617188 28.875 10.699219 C 28.871094 10.726562 28.871094 10.753906 28.871094 10.785156 C 28.871094 10.933594 28.871094 11.082031 28.871094 11.230469 C 28.867188 11.351562 28.867188 11.476562 28.867188 11.597656 C 28.863281 11.746094 28.863281 11.894531 28.863281 12.042969 C 28.863281 12.097656 28.859375 12.15625 28.859375 12.210938 C 28.851562 12.671875 28.949219 13.019531 29.257812 13.371094 C 29.46875 13.492188 29.628906 13.5 29.855469 13.445312 C 30.03125 13.382812 30.105469 13.261719 30.1875 13.101562 C 30.335938 12.742188 30.316406 12.324219 30.316406 11.9375 C 30.316406 11.886719 30.316406 11.832031 30.316406 11.777344 C 30.316406 11.667969 30.316406 11.554688 30.316406 11.445312 C 30.316406 11.300781 30.316406 11.160156 30.316406 11.019531 C 30.316406 10.910156 30.316406 10.800781 30.316406 10.6875 C 30.316406 10.636719 30.316406 10.585938 30.316406 10.53125 C 30.316406 10.101562 30.316406 9.636719 30.082031 9.257812 C 29.941406 9.117188 29.835938 9.074219 29.640625 9.058594 C 29.410156 9.0625 29.253906 9.195312 29.113281 9.371094 Z M 29.113281 9.371094 " fill-opacity="1" fill-rule="nonzero"/></g><path fill="#6a1b1a" d="M 27.113281 17.890625 C 27.765625 17.890625 28.421875 17.890625 29.074219 17.890625 C 29.847656 17.890625 30.621094 17.890625 31.394531 17.890625 C 31.476562 17.890625 31.558594 17.890625 31.640625 17.890625 C 31.683594 17.890625 31.722656 17.890625 31.761719 17.890625 C 32.046875 17.890625 32.328125 17.890625 32.609375 17.890625 C 32.949219 17.890625 33.289062 17.890625 33.628906 17.890625 C 33.800781 17.890625 33.972656 17.890625 34.144531 17.890625 C 34.300781 17.890625 34.457031 17.890625 34.617188 17.890625 C 34.671875 17.890625 34.730469 17.890625 34.785156 17.890625 C 34.863281 17.890625 34.941406 17.890625 35.019531 17.890625 C 35.0625 17.890625 35.101562 17.890625 35.148438 17.890625 C 35.210938 17.894531 35.253906 17.910156 35.28125 17.933594 C 35.285156 18.019531 35.285156 18.105469 35.285156 18.1875 C 35.285156 18.214844 35.285156 18.242188 35.285156 18.273438 C 35.285156 18.363281 35.285156 18.457031 35.285156 18.546875 C 35.285156 18.613281 35.285156 18.679688 35.285156 18.746094 C 35.289062 18.929688 35.289062 19.113281 35.289062 19.296875 C 35.289062 19.496094 35.289062 19.695312 35.289062 19.890625 C 35.289062 20.28125 35.289062 20.667969 35.292969 21.058594 C 35.292969 21.515625 35.292969 21.972656 35.292969 22.425781 C 35.296875 23.246094 35.296875 24.066406 35.300781 24.882812 C 35.300781 25.667969 35.300781 26.457031 35.304688 27.242188 C 35.304688 27.289062 35.304688 27.335938 35.304688 27.386719 C 35.304688 27.578125 35.304688 27.773438 35.304688 27.964844 C 35.308594 28.769531 35.308594 29.574219 35.308594 30.375 C 35.308594 30.554688 35.3125 30.738281 35.3125 30.917969 C 35.3125 32.046875 35.316406 33.179688 35.316406 34.308594 C 35.316406 34.570312 35.316406 34.835938 35.316406 35.097656 C 35.320312 35.550781 35.320312 36.007812 35.320312 36.464844 C 35.320312 36.679688 35.320312 36.894531 35.320312 37.109375 C 35.320312 37.308594 35.320312 37.507812 35.320312 37.707031 C 35.320312 37.78125 35.320312 37.855469 35.320312 37.925781 C 35.320312 38.027344 35.320312 38.128906 35.320312 38.226562 C 35.320312 38.253906 35.320312 38.285156 35.320312 38.3125 C 35.320312 38.46875 35.308594 38.613281 35.28125 38.765625 C 34.757812 38.765625 34.238281 38.769531 33.714844 38.769531 C 33.476562 38.769531 33.234375 38.769531 32.992188 38.769531 C 32.757812 38.769531 32.523438 38.769531 32.289062 38.769531 C 32.203125 38.769531 32.113281 38.769531 32.023438 38.769531 C 31.898438 38.769531 31.773438 38.769531 31.648438 38.769531 C 31.613281 38.769531 31.574219 38.769531 31.535156 38.769531 C 31.503906 38.769531 31.46875 38.769531 31.433594 38.769531 C 31.40625 38.769531 31.375 38.769531 31.34375 38.769531 C 31.300781 38.769531 31.265625 38.753906 31.242188 38.730469 C 31.238281 38.636719 31.234375 38.542969 31.234375 38.449219 C 31.234375 38.417969 31.234375 38.390625 31.234375 38.359375 C 31.234375 38.257812 31.234375 38.15625 31.234375 38.058594 C 31.234375 37.984375 31.234375 37.910156 31.234375 37.839844 C 31.234375 37.640625 31.234375 37.4375 31.234375 37.238281 C 31.234375 37.023438 31.234375 36.804688 31.234375 36.589844 C 31.234375 36.214844 31.234375 35.84375 31.230469 35.46875 C 31.230469 34.902344 31.230469 34.335938 31.230469 33.765625 C 31.230469 33.539062 31.230469 33.3125 31.230469 33.085938 C 31.230469 33.058594 31.230469 33.035156 31.230469 33.007812 C 31.226562 32.40625 31.226562 31.804688 31.226562 31.203125 C 31.226562 31.175781 31.226562 31.148438 31.226562 31.121094 C 31.226562 30.507812 31.222656 29.894531 31.222656 29.28125 C 31.222656 29.253906 31.222656 29.226562 31.222656 29.199219 C 31.222656 29.066406 31.222656 28.933594 31.222656 28.800781 C 31.222656 28.773438 31.222656 28.75 31.222656 28.722656 C 31.222656 28.667969 31.222656 28.617188 31.222656 28.5625 C 31.222656 27.660156 31.21875 26.757812 31.21875 25.855469 C 31.21875 25.316406 31.21875 24.773438 31.21875 24.234375 C 31.214844 23.863281 31.214844 23.492188 31.214844 23.125 C 31.214844 22.910156 31.214844 22.695312 31.214844 22.480469 C 31.214844 22.285156 31.214844 22.089844 31.214844 21.894531 C 31.214844 21.824219 31.214844 21.753906 31.214844 21.683594 C 31.214844 21.347656 31.207031 21.019531 31.171875 20.6875 C 31.167969 20.660156 31.167969 20.636719 31.164062 20.609375 C 31.140625 20.402344 31.082031 20.238281 30.925781 20.09375 C 30.738281 19.96875 30.613281 19.9375 30.386719 19.972656 C 30.160156 20.027344 30.03125 20.1875 29.894531 20.363281 C 29.839844 20.472656 29.851562 20.570312 29.847656 20.695312 C 29.847656 20.722656 29.847656 20.75 29.847656 20.777344 C 29.847656 20.867188 29.847656 20.960938 29.84375 21.054688 C 29.84375 21.121094 29.84375 21.1875 29.84375 21.257812 C 29.839844 21.449219 29.839844 21.644531 29.835938 21.835938 C 29.835938 21.964844 29.835938 22.089844 29.832031 22.21875 C 29.804688 25.171875 29.816406 28.128906 29.816406 31.085938 C 29.816406 31.671875 29.816406 32.261719 29.816406 32.847656 C 29.816406 32.890625 29.816406 32.929688 29.816406 32.976562 C 29.816406 33.183594 29.816406 33.394531 29.816406 33.605469 C 29.816406 35.324219 29.820312 37.046875 29.820312 38.765625 L 24.695312 38.765625 C 24.695312 37.984375 24.695312 37.199219 24.699219 36.394531 C 24.699219 35.902344 24.699219 35.414062 24.699219 34.925781 C 24.699219 34.890625 24.699219 34.855469 24.699219 34.816406 C 24.699219 34.78125 24.699219 34.746094 24.699219 34.707031 C 24.699219 34.667969 24.699219 34.632812 24.699219 34.59375 C 24.695312 34.058594 24.695312 33.523438 24.695312 32.992188 C 24.695312 32.71875 24.695312 32.445312 24.695312 32.175781 C 24.695312 30.578125 24.691406 28.980469 24.6875 27.382812 C 24.6875 27.246094 24.6875 27.109375 24.6875 26.96875 C 24.6875 26.9375 24.6875 26.902344 24.6875 26.867188 C 24.6875 26.3125 24.6875 25.757812 24.683594 25.203125 C 24.683594 24.636719 24.683594 24.074219 24.683594 23.507812 C 24.679688 23.164062 24.679688 22.824219 24.679688 22.480469 C 24.679688 22.25 24.679688 22.015625 24.679688 21.785156 C 24.679688 21.652344 24.679688 21.519531 24.679688 21.386719 C 24.679688 21.242188 24.679688 21.097656 24.675781 20.957031 C 24.679688 20.914062 24.679688 20.871094 24.679688 20.828125 C 24.675781 20.597656 24.660156 20.464844 24.507812 20.289062 C 24.355469 20.148438 24.222656 20.074219 24.011719 20.050781 C 23.832031 20.070312 23.691406 20.117188 23.535156 20.214844 C 23.367188 20.421875 23.34375 20.589844 23.34375 20.851562 C 23.34375 20.882812 23.34375 20.914062 23.34375 20.945312 C 23.34375 21.046875 23.34375 21.152344 23.34375 21.257812 C 23.34375 21.332031 23.34375 21.40625 23.34375 21.484375 C 23.34375 21.691406 23.34375 21.898438 23.339844 22.105469 C 23.339844 22.328125 23.339844 22.550781 23.339844 22.773438 C 23.339844 23.164062 23.339844 23.550781 23.339844 23.9375 C 23.335938 24.34375 23.335938 24.75 23.335938 25.15625 C 23.335938 25.179688 23.335938 25.207031 23.335938 25.230469 C 23.335938 25.359375 23.335938 25.488281 23.335938 25.617188 C 23.332031 26.523438 23.332031 27.433594 23.332031 28.34375 C 23.328125 29.226562 23.328125 30.109375 23.324219 30.992188 C 23.324219 31.015625 23.324219 31.042969 23.324219 31.074219 C 23.324219 31.347656 23.324219 31.617188 23.324219 31.890625 C 23.324219 32.449219 23.320312 33.003906 23.320312 33.5625 C 23.320312 33.585938 23.320312 33.613281 23.320312 33.640625 C 23.316406 35.347656 23.316406 37.058594 23.3125 38.765625 L 18.1875 38.765625 C 18.1875 38.394531 18.1875 38.019531 18.183594 37.636719 C 18.183594 36.421875 18.179688 35.203125 18.175781 33.988281 C 18.175781 33.796875 18.175781 33.605469 18.175781 33.414062 C 18.171875 33.375 18.171875 33.339844 18.171875 33.300781 C 18.171875 32.769531 18.171875 32.242188 18.167969 31.710938 C 18.164062 30.117188 18.160156 28.523438 18.15625 26.929688 C 18.15625 26.757812 18.152344 26.582031 18.152344 26.410156 C 18.152344 26.375 18.152344 26.34375 18.152344 26.308594 C 18.152344 25.78125 18.148438 25.253906 18.148438 24.722656 C 18.148438 24.214844 18.144531 23.707031 18.144531 23.199219 C 18.144531 22.902344 18.140625 22.605469 18.140625 22.308594 C 18.140625 22.085938 18.140625 21.867188 18.140625 21.644531 C 18.140625 21.554688 18.140625 21.464844 18.140625 21.378906 C 18.140625 21.257812 18.136719 21.136719 18.136719 21.015625 C 18.136719 20.980469 18.136719 20.949219 18.136719 20.914062 C 18.132812 20.621094 18.042969 20.367188 17.832031 20.160156 C 17.617188 20.027344 17.429688 19.996094 17.179688 20.027344 C 16.984375 20.121094 16.855469 20.261719 16.78125 20.464844 C 16.757812 20.59375 16.761719 20.722656 16.761719 20.855469 C 16.761719 20.886719 16.761719 20.917969 16.761719 20.949219 C 16.761719 21.054688 16.761719 21.15625 16.761719 21.261719 C 16.761719 21.335938 16.761719 21.410156 16.761719 21.488281 C 16.757812 21.695312 16.757812 21.902344 16.757812 22.109375 C 16.757812 22.332031 16.757812 22.554688 16.757812 22.78125 C 16.757812 23.167969 16.757812 23.554688 16.753906 23.941406 C 16.753906 24.347656 16.753906 24.753906 16.753906 25.160156 C 16.753906 25.183594 16.753906 25.210938 16.753906 25.234375 C 16.753906 25.363281 16.753906 25.492188 16.753906 25.621094 C 16.75 26.527344 16.75 27.4375 16.746094 28.34375 C 16.746094 29.226562 16.746094 30.109375 16.742188 30.992188 C 16.742188 31.019531 16.742188 31.046875 16.742188 31.074219 C 16.742188 31.347656 16.742188 31.621094 16.742188 31.894531 C 16.742188 32.449219 16.738281 33.007812 16.738281 33.5625 C 16.738281 33.589844 16.738281 33.613281 16.738281 33.640625 C 16.734375 35.347656 16.730469 37.058594 16.730469 38.765625 C 16.207031 38.765625 15.6875 38.769531 15.164062 38.769531 C 14.925781 38.769531 14.683594 38.769531 14.441406 38.769531 C 14.207031 38.769531 13.972656 38.769531 13.738281 38.769531 C 13.652344 38.769531 13.5625 38.769531 13.472656 38.769531 C 13.347656 38.769531 13.222656 38.769531 13.097656 38.769531 C 13.0625 38.769531 13.023438 38.769531 12.984375 38.769531 C 12.953125 38.769531 12.917969 38.769531 12.882812 38.769531 C 12.855469 38.769531 12.824219 38.769531 12.792969 38.769531 C 12.75 38.769531 12.714844 38.753906 12.691406 38.730469 C 12.6875 38.617188 12.683594 38.511719 12.683594 38.398438 C 12.683594 38.363281 12.683594 38.328125 12.683594 38.292969 C 12.683594 38.175781 12.683594 38.054688 12.683594 37.9375 C 12.683594 37.851562 12.683594 37.765625 12.683594 37.679688 C 12.683594 37.441406 12.683594 37.207031 12.6875 36.96875 C 12.6875 36.742188 12.6875 36.511719 12.6875 36.285156 C 12.6875 35.816406 12.6875 35.347656 12.6875 34.878906 C 12.6875 34.417969 12.6875 33.953125 12.6875 33.492188 C 12.6875 33.460938 12.6875 33.433594 12.6875 33.402344 C 12.6875 33.257812 12.6875 33.109375 12.6875 32.964844 C 12.6875 31.929688 12.6875 30.894531 12.6875 29.859375 C 12.6875 28.851562 12.6875 27.84375 12.6875 26.835938 C 12.6875 26.808594 12.6875 26.777344 12.6875 26.742188 C 12.6875 26.433594 12.6875 26.121094 12.6875 25.808594 C 12.6875 25.175781 12.6875 24.539062 12.6875 23.90625 C 12.6875 23.878906 12.6875 23.847656 12.6875 23.816406 C 12.6875 21.871094 12.6875 19.921875 12.691406 17.972656 C 13.164062 17.949219 13.636719 17.929688 14.109375 17.925781 C 14.160156 17.925781 14.210938 17.925781 14.261719 17.925781 C 14.398438 17.925781 14.535156 17.921875 14.671875 17.921875 C 14.792969 17.921875 14.910156 17.921875 15.027344 17.921875 C 15.390625 17.917969 15.75 17.917969 16.109375 17.914062 C 16.285156 17.914062 16.460938 17.914062 16.636719 17.910156 C 20.128906 17.890625 23.621094 17.890625 27.113281 17.890625 Z M 27.113281 17.890625 " fill-opacity="1" fill-rule="nonzero"/><path fill="#6a1b1a" d="M 12.933594 40.183594 C 13.03125 40.183594 13.132812 40.183594 13.234375 40.183594 C 13.484375 40.183594 13.730469 40.183594 13.980469 40.183594 C 14.277344 40.183594 14.574219 40.183594 14.871094 40.183594 C 15.589844 40.1875 16.3125 40.1875 17.03125 40.1875 C 17.371094 40.1875 17.710938 40.1875 18.050781 40.1875 C 19.214844 40.191406 20.378906 40.191406 21.542969 40.191406 C 21.617188 40.191406 21.691406 40.195312 21.761719 40.195312 C 21.835938 40.195312 21.910156 40.195312 21.984375 40.195312 C 22.128906 40.195312 22.277344 40.195312 22.421875 40.195312 C 22.460938 40.195312 22.496094 40.195312 22.535156 40.195312 C 23.714844 40.195312 24.898438 40.199219 26.078125 40.199219 C 27.328125 40.199219 28.578125 40.199219 29.828125 40.203125 C 29.964844 40.203125 30.101562 40.203125 30.238281 40.203125 C 30.273438 40.203125 30.308594 40.203125 30.34375 40.203125 C 30.886719 40.203125 31.429688 40.203125 31.972656 40.203125 C 32.519531 40.207031 33.0625 40.207031 33.609375 40.207031 C 33.933594 40.207031 34.257812 40.207031 34.582031 40.207031 C 34.800781 40.207031 35.015625 40.207031 35.234375 40.210938 C 35.355469 40.210938 35.480469 40.210938 35.605469 40.210938 C 35.738281 40.210938 35.871094 40.210938 36.003906 40.210938 C 36.042969 40.210938 36.078125 40.210938 36.117188 40.210938 C 36.566406 40.214844 36.996094 40.3125 37.332031 40.625 C 37.632812 40.960938 37.65625 41.324219 37.636719 41.757812 C 37.621094 41.925781 37.582031 42.035156 37.46875 42.167969 C 37.238281 42.332031 36.878906 42.289062 36.609375 42.285156 C 36.574219 42.285156 36.539062 42.285156 36.503906 42.285156 C 36.390625 42.285156 36.277344 42.285156 36.164062 42.285156 C 36.082031 42.285156 36 42.285156 35.917969 42.285156 C 35.691406 42.285156 35.46875 42.285156 35.242188 42.285156 C 35.023438 42.285156 34.804688 42.285156 34.585938 42.285156 C 34.109375 42.289062 33.632812 42.289062 33.15625 42.285156 C 32.734375 42.285156 32.316406 42.285156 31.894531 42.285156 C 31.867188 42.285156 31.839844 42.285156 31.808594 42.285156 C 31.695312 42.285156 31.582031 42.285156 31.46875 42.285156 C 30.398438 42.285156 29.328125 42.285156 28.257812 42.285156 C 27.347656 42.285156 26.441406 42.285156 25.53125 42.285156 C 22.691406 42.289062 19.855469 42.289062 13.058594 42.269531 C 12.859375 42.269531 12.660156 42.269531 12.464844 42.269531 C 12.210938 42.269531 11.960938 42.265625 11.707031 42.265625 C 11.621094 42.265625 11.53125 42.261719 11.445312 42.261719 C 11.328125 42.261719 11.210938 42.261719 11.09375 42.261719 C 11.0625 42.261719 11.027344 42.261719 10.992188 42.261719 C 10.816406 42.257812 10.699219 42.246094 10.558594 42.132812 C 10.441406 41.984375 10.386719 41.871094 10.371094 41.683594 C 10.367188 41.640625 10.363281 41.59375 10.359375 41.550781 C 10.367188 41.125 10.554688 40.792969 10.84375 40.5 C 11.417969 40.058594 12.253906 40.183594 12.933594 40.183594 Z M 12.933594 40.183594 " fill-opacity="1" fill-rule="nonzero"/><g clip-path="url(#2bde19cc74)"><path fill="#6a1b1a" d="M 8.867188 43.699219 C 8.910156 43.699219 8.953125 43.699219 9 43.699219 C 9.046875 43.699219 9.097656 43.699219 9.148438 43.699219 C 9.199219 43.699219 9.25 43.699219 9.304688 43.699219 C 9.449219 43.699219 9.59375 43.699219 9.738281 43.699219 C 9.894531 43.699219 10.050781 43.699219 10.207031 43.699219 C 10.519531 43.695312 10.832031 43.695312 11.144531 43.695312 C 11.515625 43.695312 11.890625 43.695312 12.261719 43.695312 C 13.164062 43.695312 14.066406 43.695312 14.96875 43.695312 C 15.394531 43.695312 15.820312 43.695312 16.25 43.695312 C 17.707031 43.695312 19.167969 43.695312 20.628906 43.695312 C 20.71875 43.695312 20.808594 43.695312 20.902344 43.695312 C 20.992188 43.695312 21.085938 43.695312 21.179688 43.695312 C 21.363281 43.695312 21.546875 43.695312 21.730469 43.695312 C 21.777344 43.695312 21.820312 43.695312 21.871094 43.695312 C 23.351562 43.695312 24.832031 43.695312 26.316406 43.691406 C 27.882812 43.691406 29.449219 43.691406 31.015625 43.691406 C 31.1875 43.691406 31.359375 43.691406 31.53125 43.691406 C 31.574219 43.691406 31.617188 43.691406 31.660156 43.691406 C 32.339844 43.691406 33.023438 43.691406 33.707031 43.691406 C 34.390625 43.691406 35.074219 43.6875 35.761719 43.691406 C 36.167969 43.691406 36.574219 43.691406 36.980469 43.6875 C 37.253906 43.6875 37.523438 43.6875 37.796875 43.6875 C 37.953125 43.6875 38.105469 43.6875 38.261719 43.6875 C 38.402344 43.6875 38.542969 43.6875 38.683594 43.6875 C 38.761719 43.6875 38.835938 43.6875 38.910156 43.6875 C 39.261719 43.691406 39.558594 43.726562 39.824219 43.976562 C 40.078125 44.269531 40.117188 44.632812 40.117188 45.007812 C 40.117188 45.046875 40.117188 45.085938 40.117188 45.125 C 40.117188 45.207031 40.117188 45.289062 40.117188 45.371094 C 40.117188 45.496094 40.121094 45.621094 40.121094 45.746094 C 40.121094 45.824219 40.121094 45.902344 40.121094 45.984375 C 40.121094 46.019531 40.125 46.058594 40.125 46.09375 C 40.121094 46.363281 40.070312 46.566406 39.886719 46.769531 C 39.867188 46.789062 39.84375 46.804688 39.820312 46.820312 C 39.796875 46.839844 39.777344 46.855469 39.753906 46.875 C 39.445312 47.019531 39.09375 47.003906 38.757812 47.003906 C 38.707031 47.003906 38.652344 47.003906 38.601562 47.003906 C 38.457031 47.003906 38.3125 47.003906 38.167969 47.003906 C 38.011719 47.003906 37.855469 47.003906 37.695312 47.003906 C 37.421875 47.003906 37.148438 47.003906 36.871094 47.003906 C 36.464844 47.003906 36.054688 47.003906 35.644531 47.003906 C 34.914062 47.003906 34.183594 47.003906 33.453125 47.003906 C 32.8125 47.003906 32.175781 47.003906 31.535156 47.003906 C 31.492188 47.003906 31.449219 47.003906 31.40625 47.003906 C 31.234375 47.003906 31.0625 47.003906 30.890625 47.003906 C 29.277344 47.003906 27.660156 47.003906 26.046875 47.003906 C 24.613281 47.003906 23.175781 47.003906 21.742188 47.003906 C 20.132812 47.003906 18.519531 47.003906 16.90625 47.003906 C 16.738281 47.003906 16.566406 47.003906 16.394531 47.003906 C 16.351562 47.003906 16.308594 47.003906 16.265625 47.003906 C 15.625 47.003906 14.988281 47.003906 14.347656 47.003906 C 13.621094 47.003906 12.894531 47.003906 12.167969 47.003906 C 11.761719 47.003906 11.355469 47.003906 10.949219 47.003906 C 10.675781 47.003906 10.40625 47.003906 10.132812 47.003906 C 9.980469 47.003906 9.824219 47.003906 9.667969 47.003906 C 9.527344 47.003906 9.386719 47.003906 9.246094 47.003906 C 9.171875 47.003906 9.097656 47.003906 9.023438 47.003906 C 8.609375 47.003906 8.28125 46.96875 7.972656 46.660156 C 7.820312 46.480469 7.835938 46.292969 7.839844 46.0625 C 7.839844 46.019531 7.839844 45.976562 7.839844 45.933594 C 7.839844 45.84375 7.839844 45.753906 7.839844 45.664062 C 7.84375 45.527344 7.839844 45.390625 7.839844 45.253906 C 7.839844 45.167969 7.84375 45.078125 7.84375 44.992188 C 7.84375 44.949219 7.84375 44.910156 7.84375 44.867188 C 7.847656 44.554688 7.90625 44.246094 8.097656 43.984375 C 8.324219 43.777344 8.5625 43.699219 8.867188 43.699219 Z M 8.867188 43.699219 " fill-opacity="1" fill-rule="nonzero"/></g></svg>