<svg xmlns="http://www.w3.org/2000/svg" xmlns:xlink="http://www.w3.org/1999/xlink" width="58" zoomAndPan="magnify" viewBox="0 0 43.5 45.749999" height="61" preserveAspectRatio="xMidYMid meet" version="1.0"><defs><clipPath id="6b05b88efb"><path d="M 0 0.136719 L 42.265625 0.136719 L 42.265625 44.625 L 0 44.625 Z M 0 0.136719 " clip-rule="nonzero"/></clipPath></defs><path fill="#000000" d="M 21.132812 11.148438 C 16.464844 11.148438 12.679688 15.128906 12.679688 20.039062 C 12.679688 24.949219 16.464844 28.925781 21.132812 28.925781 C 25.800781 28.925781 29.585938 24.949219 29.585938 20.039062 C 29.585938 15.128906 25.800781 11.148438 21.132812 11.148438 " fill-opacity="1" fill-rule="nonzero"/><g clip-path="url(#6b05b88efb)"><path fill="#000000" d="M 35.171875 37.722656 C 33.300781 33.148438 29.371094 30.285156 21.121094 30.285156 C 12.882812 30.285156 8.953125 33.140625 7.078125 37.703125 C 3.261719 33.832031 0.886719 28.398438 0.886719 22.378906 C 0.886719 10.621094 9.949219 1.089844 21.132812 1.089844 C 32.316406 1.089844 41.378906 10.621094 41.378906 22.378906 C 41.378906 28.40625 39 33.847656 35.171875 37.722656 Z M 21.132812 0.160156 C 9.460938 0.160156 0 10.109375 0 22.378906 C 0 28.800781 2.589844 34.582031 6.726562 38.640625 C 10.503906 42.339844 15.566406 44.601562 21.132812 44.601562 C 26.691406 44.601562 31.746094 42.347656 35.519531 38.660156 C 39.671875 34.601562 42.265625 28.808594 42.265625 22.378906 C 42.265625 10.109375 32.804688 0.160156 21.132812 0.160156 " fill-opacity="1" fill-rule="nonzero"/></g></svg>