<svg xmlns="http://www.w3.org/2000/svg" xmlns:xlink="http://www.w3.org/1999/xlink" width="79" zoomAndPan="magnify" viewBox="0 0 59.25 52.499999" height="70" preserveAspectRatio="xMidYMid meet" version="1.0"><defs><clipPath id="992ebd07d6"><path d="M 0 0.0820312 L 58.507812 0.0820312 L 58.507812 51.925781 L 0 51.925781 Z M 0 0.0820312 " clip-rule="nonzero"/></clipPath></defs><g clip-path="url(#992ebd07d6)"><path fill="#6a1b1a" d="M 45.726562 0.0898438 C 45.359375 0.0898438 45.003906 0.160156 44.664062 0.292969 C 44.324219 0.429688 44.019531 0.621094 43.75 0.871094 C 43.480469 1.121094 43.265625 1.410156 43.109375 1.742188 C 42.949219 2.070312 42.851562 2.417969 42.824219 2.785156 L 12.125 11.078125 C 11.949219 10.820312 11.738281 10.597656 11.488281 10.410156 C 11.242188 10.21875 10.96875 10.074219 10.675781 9.972656 C 10.382812 9.871094 10.078125 9.816406 9.765625 9.8125 C 9.457031 9.808594 9.152344 9.851562 8.855469 9.941406 C 8.558594 10.035156 8.28125 10.171875 8.027344 10.355469 C 7.773438 10.535156 7.554688 10.75 7.371094 11.003906 C 7.1875 11.253906 7.046875 11.527344 6.949219 11.824219 C 6.855469 12.121094 6.808594 12.425781 6.808594 12.734375 L 6.808594 13.703125 L 3.894531 13.703125 C 3.378906 13.707031 2.882812 13.804688 2.40625 14.003906 C 1.929688 14.203125 1.507812 14.484375 1.144531 14.847656 C 0.78125 15.210938 0.5 15.632812 0.300781 16.109375 C 0.101562 16.585938 0 17.082031 0 17.597656 L 0 47.757812 C 0 48.273438 0.101562 48.769531 0.300781 49.246094 C 0.5 49.722656 0.78125 50.140625 1.144531 50.507812 C 1.507812 50.871094 1.929688 51.152344 2.40625 51.351562 C 2.882812 51.550781 3.378906 51.648438 3.894531 51.652344 L 54.480469 51.652344 C 54.996094 51.648438 55.492188 51.550781 55.964844 51.351562 C 56.441406 51.152344 56.863281 50.871094 57.226562 50.507812 C 57.589844 50.140625 57.871094 49.722656 58.070312 49.246094 C 58.269531 48.769531 58.367188 48.273438 58.371094 47.757812 L 58.371094 17.597656 C 58.367188 17.082031 58.269531 16.585938 58.070312 16.109375 C 57.871094 15.632812 57.589844 15.210938 57.226562 14.847656 C 56.863281 14.484375 56.441406 14.203125 55.964844 14.003906 C 55.492188 13.804688 54.996094 13.707031 54.480469 13.703125 L 12.648438 13.703125 L 12.648438 12.949219 L 43.324219 4.660156 C 43.46875 4.867188 43.632812 5.050781 43.824219 5.214844 C 44.015625 5.378906 44.222656 5.515625 44.449219 5.625 C 44.675781 5.734375 44.910156 5.8125 45.15625 5.863281 C 45.402344 5.910156 45.648438 5.929688 45.898438 5.914062 C 46.152344 5.898438 46.394531 5.851562 46.632812 5.773438 C 46.871094 5.695312 47.097656 5.585938 47.308594 5.453125 C 47.519531 5.316406 47.707031 5.15625 47.875 4.96875 C 48.046875 4.785156 48.1875 4.582031 48.304688 4.359375 C 48.421875 4.136719 48.507812 3.902344 48.566406 3.660156 C 48.621094 3.414062 48.644531 3.167969 48.636719 2.917969 C 48.632812 2.664062 48.589844 2.417969 48.519531 2.179688 C 48.449219 1.9375 48.347656 1.710938 48.21875 1.496094 C 48.089844 1.28125 47.933594 1.085938 47.753906 0.910156 C 47.574219 0.738281 47.375 0.589844 47.15625 0.464844 C 46.9375 0.339844 46.707031 0.25 46.464844 0.183594 C 46.222656 0.121094 45.976562 0.0898438 45.726562 0.0898438 Z M 45.726562 2.035156 C 45.996094 2.035156 46.222656 2.128906 46.414062 2.320312 C 46.601562 2.507812 46.699219 2.738281 46.699219 3.007812 C 46.699219 3.277344 46.601562 3.503906 46.414062 3.695312 C 46.222656 3.886719 45.996094 3.980469 45.726562 3.980469 C 45.457031 3.980469 45.226562 3.886719 45.039062 3.695312 C 44.847656 3.503906 44.753906 3.277344 44.753906 3.007812 C 44.753906 2.738281 44.847656 2.507812 45.039062 2.320312 C 45.226562 2.128906 45.457031 2.035156 45.726562 2.035156 Z M 9.730469 11.757812 C 9.863281 11.753906 9.988281 11.777344 10.109375 11.828125 C 10.230469 11.875 10.335938 11.945312 10.425781 12.039062 C 10.519531 12.132812 10.585938 12.238281 10.636719 12.359375 C 10.683594 12.480469 10.703125 12.605469 10.703125 12.734375 L 10.703125 13.703125 L 8.753906 13.703125 L 8.753906 12.734375 C 8.75 12.605469 8.773438 12.480469 8.824219 12.359375 C 8.871094 12.238281 8.941406 12.128906 9.035156 12.039062 C 9.125 11.945312 9.234375 11.875 9.355469 11.828125 C 9.476562 11.777344 9.601562 11.753906 9.730469 11.757812 Z M 3.894531 15.652344 L 54.480469 15.652344 C 54.738281 15.648438 54.988281 15.695312 55.226562 15.792969 C 55.46875 15.890625 55.679688 16.03125 55.863281 16.210938 C 56.046875 16.394531 56.1875 16.609375 56.285156 16.847656 C 56.382812 17.085938 56.429688 17.335938 56.425781 17.597656 L 56.425781 47.757812 C 56.429688 48.015625 56.382812 48.265625 56.285156 48.507812 C 56.1875 48.746094 56.046875 48.957031 55.863281 49.140625 C 55.679688 49.324219 55.46875 49.464844 55.226562 49.5625 C 54.988281 49.660156 54.738281 49.707031 54.480469 49.707031 L 3.894531 49.707031 C 3.632812 49.707031 3.382812 49.660156 3.144531 49.5625 C 2.90625 49.464844 2.691406 49.324219 2.507812 49.140625 C 2.328125 48.957031 2.1875 48.746094 2.089844 48.507812 C 1.992188 48.265625 1.945312 48.015625 1.949219 47.757812 L 1.949219 17.597656 C 1.945312 17.335938 1.992188 17.085938 2.089844 16.847656 C 2.1875 16.609375 2.328125 16.394531 2.511719 16.210938 C 2.691406 16.03125 2.90625 15.890625 3.144531 15.792969 C 3.382812 15.695312 3.632812 15.648438 3.894531 15.652344 Z M 18.484375 19.054688 C 17.589844 19.054688 16.707031 19.140625 15.828125 19.316406 C 14.953125 19.488281 14.101562 19.746094 13.273438 20.089844 C 12.445312 20.429688 11.664062 20.851562 10.917969 21.347656 C 10.175781 21.84375 9.488281 22.40625 8.855469 23.039062 C 8.222656 23.671875 7.65625 24.359375 7.160156 25.101562 C 6.664062 25.847656 6.242188 26.632812 5.902344 27.457031 C 5.558594 28.285156 5.300781 29.136719 5.125 30.011719 C 4.949219 30.890625 4.863281 31.773438 4.863281 32.667969 C 4.863281 33.5625 4.949219 34.449219 5.125 35.328125 C 5.296875 36.203125 5.554688 37.054688 5.898438 37.882812 C 6.238281 38.707031 6.660156 39.492188 7.15625 40.238281 C 7.652344 40.980469 8.214844 41.667969 8.847656 42.300781 C 9.480469 42.933594 10.167969 43.5 10.914062 43.996094 C 11.65625 44.492188 12.441406 44.914062 13.265625 45.253906 C 14.09375 45.597656 14.945312 45.855469 15.820312 46.03125 C 16.699219 46.207031 17.582031 46.292969 18.476562 46.292969 C 19.371094 46.292969 20.257812 46.207031 21.136719 46.03125 C 22.011719 45.859375 22.863281 45.601562 23.691406 45.257812 C 24.515625 44.914062 25.300781 44.496094 26.046875 44 C 26.789062 43.503906 27.476562 42.9375 28.109375 42.308594 C 28.742188 41.675781 29.308594 40.988281 29.804688 40.242188 C 30.300781 39.5 30.722656 38.714844 31.0625 37.890625 C 31.40625 37.0625 31.664062 36.210938 31.839844 35.335938 C 32.015625 34.457031 32.101562 33.570312 32.101562 32.675781 C 32.101562 31.785156 32.011719 30.898438 31.835938 30.019531 C 31.664062 29.144531 31.402344 28.292969 31.0625 27.46875 C 30.71875 26.640625 30.296875 25.859375 29.800781 25.113281 C 29.304688 24.371094 28.742188 23.683594 28.109375 23.050781 C 27.476562 22.417969 26.789062 21.855469 26.046875 21.359375 C 25.304688 20.859375 24.519531 20.441406 23.695312 20.097656 C 22.867188 19.753906 22.019531 19.496094 21.140625 19.320312 C 20.265625 19.144531 19.378906 19.054688 18.484375 19.054688 Z M 36.96875 19.542969 C 36.582031 19.542969 36.210938 19.621094 35.855469 19.769531 C 35.496094 19.917969 35.183594 20.128906 34.910156 20.402344 C 34.636719 20.679688 34.421875 20.992188 34.273438 21.351562 C 34.125 21.707031 34.050781 22.078125 34.046875 22.464844 L 34.046875 24.402344 C 34.050781 24.792969 34.125 25.164062 34.273438 25.519531 C 34.421875 25.878906 34.636719 26.191406 34.910156 26.464844 C 35.183594 26.738281 35.496094 26.953125 35.855469 27.101562 C 36.210938 27.25 36.582031 27.324219 36.96875 27.328125 L 50.585938 27.328125 C 50.972656 27.324219 51.34375 27.25 51.703125 27.101562 C 52.058594 26.953125 52.375 26.738281 52.648438 26.464844 C 52.921875 26.191406 53.132812 25.878906 53.28125 25.519531 C 53.429688 25.164062 53.507812 24.792969 53.511719 24.402344 L 53.511719 22.464844 C 53.507812 22.078125 53.429688 21.707031 53.28125 21.351562 C 53.132812 20.992188 52.921875 20.675781 52.648438 20.402344 C 52.375 20.128906 52.058594 19.917969 51.703125 19.769531 C 51.34375 19.621094 50.972656 19.542969 50.585938 19.542969 Z M 18.484375 21 C 19.777344 21 21.03125 21.207031 22.25 21.625 C 23.46875 22.042969 24.589844 22.644531 25.609375 23.433594 L 11.359375 23.433594 C 12.378906 22.644531 13.5 22.042969 14.71875 21.625 C 15.941406 21.207031 17.195312 21 18.484375 21 Z M 36.96875 21.488281 L 50.585938 21.488281 C 50.714844 21.488281 50.84375 21.507812 50.960938 21.558594 C 51.082031 21.605469 51.191406 21.675781 51.28125 21.769531 C 51.375 21.863281 51.445312 21.96875 51.492188 22.089844 C 51.542969 22.210938 51.566406 22.335938 51.5625 22.464844 L 51.5625 24.402344 C 51.566406 24.535156 51.542969 24.660156 51.492188 24.78125 C 51.445312 24.902344 51.375 25.007812 51.28125 25.101562 C 51.191406 25.191406 51.082031 25.261719 50.960938 25.3125 C 50.84375 25.359375 50.714844 25.382812 50.585938 25.378906 L 36.96875 25.378906 C 36.839844 25.382812 36.714844 25.359375 36.59375 25.3125 C 36.472656 25.261719 36.367188 25.191406 36.273438 25.101562 C 36.179688 25.007812 36.109375 24.902344 36.0625 24.78125 C 36.011719 24.660156 35.992188 24.535156 35.992188 24.402344 L 35.992188 22.464844 C 35.992188 22.335938 36.011719 22.210938 36.0625 22.089844 C 36.109375 21.96875 36.179688 21.863281 36.273438 21.769531 C 36.367188 21.675781 36.472656 21.605469 36.59375 21.558594 C 36.714844 21.507812 36.839844 21.488281 36.96875 21.488281 Z M 9.371094 25.378906 L 27.59375 25.378906 C 28.082031 25.988281 28.5 26.636719 28.855469 27.328125 L 8.109375 27.328125 C 8.464844 26.636719 8.886719 25.988281 9.371094 25.378906 Z M 7.3125 29.273438 L 29.652344 29.273438 C 29.890625 30.066406 30.039062 30.875 30.105469 31.699219 L 6.855469 31.699219 C 6.921875 30.875 7.074219 30.066406 7.3125 29.273438 Z M 6.855469 33.644531 L 30.105469 33.644531 C 30.042969 34.472656 29.890625 35.285156 29.652344 36.082031 L 7.3125 36.082031 C 7.074219 35.285156 6.921875 34.472656 6.855469 33.644531 Z M 8.109375 38.027344 L 28.855469 38.027344 C 28.5 38.71875 28.082031 39.367188 27.597656 39.972656 L 9.371094 39.972656 C 8.882812 39.367188 8.464844 38.71875 8.109375 38.027344 Z M 38.234375 39.292969 C 37.753906 39.289062 37.296875 39.382812 36.855469 39.566406 C 36.414062 39.746094 36.023438 40.007812 35.683594 40.34375 C 35.347656 40.683594 35.085938 41.070312 34.902344 41.511719 C 34.71875 41.953125 34.628906 42.414062 34.628906 42.890625 C 34.628906 43.371094 34.71875 43.828125 34.902344 44.269531 C 35.085938 44.710938 35.347656 45.101562 35.683594 45.441406 C 36.023438 45.777344 36.410156 46.039062 36.851562 46.21875 C 37.292969 46.402344 37.753906 46.496094 38.230469 46.496094 C 38.710938 46.496094 39.167969 46.402344 39.609375 46.21875 C 40.050781 46.035156 40.441406 45.777344 40.777344 45.4375 C 41.117188 45.101562 41.375 44.710938 41.558594 44.269531 C 41.742188 43.828125 41.832031 43.367188 41.832031 42.890625 C 41.832031 42.414062 41.738281 41.953125 41.554688 41.515625 C 41.371094 41.074219 41.113281 40.6875 40.773438 40.347656 C 40.4375 40.011719 40.046875 39.75 39.609375 39.570312 C 39.167969 39.386719 38.710938 39.292969 38.234375 39.292969 Z M 49.324219 39.292969 C 48.84375 39.289062 48.386719 39.382812 47.941406 39.566406 C 47.5 39.746094 47.113281 40.007812 46.773438 40.34375 C 46.4375 40.683594 46.175781 41.070312 45.992188 41.511719 C 45.808594 41.953125 45.71875 42.414062 45.71875 42.890625 C 45.71875 43.371094 45.808594 43.828125 45.992188 44.269531 C 46.175781 44.710938 46.433594 45.101562 46.773438 45.441406 C 47.109375 45.777344 47.5 46.039062 47.941406 46.21875 C 48.382812 46.402344 48.84375 46.496094 49.320312 46.496094 C 49.796875 46.496094 50.257812 46.402344 50.699219 46.21875 C 51.140625 46.035156 51.53125 45.777344 51.867188 45.4375 C 52.207031 45.101562 52.464844 44.710938 52.648438 44.269531 C 52.832031 43.828125 52.921875 43.367188 52.921875 42.890625 C 52.917969 42.414062 52.828125 41.953125 52.644531 41.515625 C 52.460938 41.074219 52.199219 40.6875 51.863281 40.347656 C 51.527344 40.011719 51.136719 39.75 50.699219 39.570312 C 50.257812 39.386719 49.800781 39.292969 49.324219 39.292969 Z M 38.234375 41.238281 C 38.453125 41.238281 38.664062 41.28125 38.867188 41.363281 C 39.070312 41.449219 39.25 41.570312 39.402344 41.722656 C 39.558594 41.878906 39.679688 42.058594 39.761719 42.261719 C 39.84375 42.464844 39.886719 42.675781 39.886719 42.894531 C 39.886719 43.117188 39.84375 43.328125 39.757812 43.527344 C 39.675781 43.730469 39.554688 43.910156 39.398438 44.066406 C 39.242188 44.222656 39.066406 44.339844 38.863281 44.425781 C 38.660156 44.507812 38.449219 44.550781 38.226562 44.550781 C 38.007812 44.546875 37.796875 44.507812 37.59375 44.421875 C 37.390625 44.335938 37.210938 44.21875 37.058594 44.0625 C 36.902344 43.90625 36.785156 43.726562 36.699219 43.523438 C 36.617188 43.320312 36.574219 43.109375 36.574219 42.890625 C 36.574219 42.667969 36.613281 42.457031 36.695312 42.253906 C 36.78125 42.050781 36.898438 41.871094 37.054688 41.714844 C 37.210938 41.558594 37.394531 41.441406 37.597656 41.355469 C 37.800781 41.273438 38.011719 41.234375 38.234375 41.238281 Z M 49.324219 41.238281 C 49.542969 41.234375 49.753906 41.277344 49.957031 41.363281 C 50.160156 41.445312 50.339844 41.5625 50.496094 41.71875 C 50.652344 41.875 50.769531 42.054688 50.855469 42.257812 C 50.941406 42.460938 50.984375 42.671875 50.984375 42.890625 C 50.984375 43.109375 50.941406 43.320312 50.859375 43.523438 C 50.773438 43.726562 50.652344 43.90625 50.5 44.0625 C 50.34375 44.21875 50.164062 44.339844 49.960938 44.421875 C 49.757812 44.507812 49.546875 44.550781 49.328125 44.550781 C 49.105469 44.550781 48.894531 44.507812 48.691406 44.421875 C 48.488281 44.339844 48.308594 44.21875 48.15625 44.0625 C 48 43.90625 47.878906 43.726562 47.796875 43.523438 C 47.710938 43.320312 47.671875 43.109375 47.671875 42.890625 C 47.667969 42.671875 47.710938 42.457031 47.792969 42.253906 C 47.875 42.050781 47.996094 41.871094 48.148438 41.71875 C 48.304688 41.5625 48.484375 41.441406 48.6875 41.359375 C 48.890625 41.277344 49.101562 41.234375 49.324219 41.238281 Z M 11.355469 41.917969 L 25.609375 41.917969 C 25.105469 42.3125 24.570312 42.660156 24.003906 42.960938 C 23.441406 43.265625 22.855469 43.523438 22.25 43.730469 C 21.644531 43.9375 21.023438 44.09375 20.394531 44.199219 C 19.761719 44.300781 19.125 44.355469 18.484375 44.355469 C 17.84375 44.355469 17.207031 44.300781 16.574219 44.199219 C 15.941406 44.09375 15.324219 43.9375 14.71875 43.730469 C 14.113281 43.523438 13.527344 43.265625 12.960938 42.960938 C 12.398438 42.660156 11.863281 42.3125 11.355469 41.917969 Z M 11.355469 41.917969 " fill-opacity="1" fill-rule="nonzero"/></g></svg>