<svg xmlns="http://www.w3.org/2000/svg" xmlns:xlink="http://www.w3.org/1999/xlink" width="59" zoomAndPan="magnify" viewBox="0 0 44.25 45.749999" height="61" preserveAspectRatio="xMidYMid meet" version="1.0"><defs><clipPath id="1977d2392b"><path d="M 0 0.257812 L 43.511719 0.257812 L 43.511719 44.507812 L 0 44.507812 Z M 0 0.257812 " clip-rule="nonzero"/></clipPath></defs><g clip-path="url(#1977d2392b)"><path fill="#000000" d="M 42.617188 40.960938 L 31.867188 30.773438 C 35.0625 27.40625 36.808594 23.035156 36.808594 18.402344 C 36.808594 13.765625 34.894531 9 31.421875 5.574219 C 27.949219 2.144531 23.328125 0.257812 18.417969 0.257812 C 13.507812 0.257812 8.886719 2.144531 5.410156 5.574219 C 1.9375 9 0.0234375 13.554688 0.0234375 18.402344 C 0.0234375 23.246094 1.9375 27.800781 5.410156 31.230469 C 8.886719 34.65625 13.507812 36.542969 18.417969 36.542969 C 22.121094 36.542969 25.65625 35.472656 28.664062 33.472656 L 39.710938 43.941406 C 40.101562 44.3125 40.617188 44.519531 41.164062 44.519531 C 41.707031 44.519531 42.285156 44.285156 42.675781 43.882812 C 43.476562 43.058594 43.453125 41.746094 42.617188 40.957031 Z M 26.5 30.3125 C 24.1875 31.839844 21.410156 32.730469 18.417969 32.730469 C 10.394531 32.730469 3.890625 26.316406 3.890625 18.40625 C 3.890625 10.492188 10.394531 4.074219 18.417969 4.074219 C 26.441406 4.074219 32.941406 10.488281 32.941406 18.402344 C 32.941406 22.324219 31.34375 25.878906 28.753906 28.46875 C 28.066406 29.152344 27.308594 29.773438 26.496094 30.3125 Z M 26.5 30.3125 " fill-opacity="1" fill-rule="nonzero"/></g></svg>