<svg xmlns="http://www.w3.org/2000/svg" xmlns:xlink="http://www.w3.org/1999/xlink" width="64" zoomAndPan="magnify" viewBox="0 0 48 48" height="64" preserveAspectRatio="xMidYMid meet" version="1.0"><defs><clipPath id="882f2818bc"><path d="M 3.578125 0.976562 L 44.722656 0.976562 L 44.722656 45.792969 L 3.578125 45.792969 Z M 3.578125 0.976562 " clip-rule="nonzero"/></clipPath></defs><g clip-path="url(#882f2818bc)"><path fill="#6a1b1a" d="M 23.910156 0.976562 C 24.167969 1.007812 24.386719 1.082031 24.566406 1.191406 C 24.816406 1.585938 24.746094 1.917969 24.746094 2.375 L 24.972656 2.601562 C 25.121094 2.75 25.210938 2.972656 25.242188 3.265625 C 25.199219 3.703125 25.125 3.957031 24.894531 4.324219 C 24.996094 4.40625 25.09375 4.488281 25.195312 4.570312 C 25.398438 4.804688 25.507812 5.085938 25.535156 5.414062 C 25.523438 5.550781 25.507812 5.683594 25.496094 5.824219 C 25.628906 5.839844 25.761719 5.855469 25.898438 5.871094 C 26.410156 5.976562 26.726562 6.125 27.148438 6.425781 C 27.359375 6.847656 27.335938 7.160156 27.296875 7.625 C 27.144531 7.84375 26.996094 8.046875 26.847656 8.226562 C 26.921875 8.347656 26.996094 8.464844 27.074219 8.589844 C 27.34375 9.03125 27.613281 9.46875 27.882812 9.910156 C 28.03125 10.148438 28.175781 10.382812 28.324219 10.617188 C 30.804688 14.675781 31.820312 19.722656 31.949219 24.429688 L 33.296875 24.429688 C 34.015625 26.441406 34.117188 28.46875 34.050781 30.582031 L 34.949219 30.582031 C 34.953125 30.457031 34.957031 30.332031 34.957031 30.207031 C 35.304688 28.917969 36.542969 28.078125 37.648438 27.429688 L 37.949219 27.429688 C 37.941406 27.296875 37.929688 27.160156 37.921875 27.019531 C 37.953125 26.488281 38.046875 26.3125 38.398438 25.929688 C 38.769531 26.105469 39.007812 26.238281 39.300781 26.53125 C 39.3125 26.84375 39.3125 27.144531 39.300781 27.429688 C 39.378906 27.46875 39.460938 27.503906 39.542969 27.542969 C 39.992188 27.78125 40.390625 28.066406 40.800781 28.371094 C 40.957031 28.480469 41.113281 28.59375 41.269531 28.710938 C 41.816406 29.183594 42.246094 29.632812 42.359375 30.367188 C 42.351562 30.480469 42.347656 30.59375 42.339844 30.714844 C 42.332031 30.832031 42.328125 30.949219 42.324219 31.070312 C 42.316406 31.15625 42.308594 31.242188 42.300781 31.332031 L 43.050781 31.332031 L 43.050781 32.382812 L 42.453125 32.382812 L 42.453125 33.28125 C 42.578125 33.28125 42.703125 33.277344 42.835938 33.273438 C 43.617188 33.515625 43.980469 34.105469 44.402344 34.785156 L 44.402344 35.082031 L 42.601562 35.082031 L 42.601562 43.484375 C 42.898438 43.535156 43.195312 43.585938 43.5 43.636719 C 43.789062 43.765625 44.039062 43.96875 44.25 44.234375 L 44.25 46.035156 L 3.742188 46.035156 C 3.742188 44.9375 3.847656 44.230469 4.058594 43.917969 C 4.347656 43.730469 4.789062 43.585938 5.390625 43.484375 L 5.390625 35.082031 L 3.589844 35.082031 C 3.890625 34.335938 4.183594 33.808594 4.789062 33.28125 C 5.078125 33.238281 5.328125 33.238281 5.539062 33.28125 L 5.539062 32.382812 L 4.941406 32.382812 L 4.941406 31.332031 L 5.539062 31.332031 C 5.523438 31.183594 5.511719 31.035156 5.492188 30.882812 C 5.5 30.136719 5.8125 29.640625 6.292969 29.082031 C 6.769531 28.652344 7.273438 28.261719 7.792969 27.882812 C 7.898438 27.796875 8.007812 27.710938 8.121094 27.621094 C 8.300781 27.496094 8.492188 27.429688 8.691406 27.429688 C 8.675781 27.296875 8.660156 27.15625 8.644531 27.019531 C 8.675781 26.695312 8.816406 26.414062 9.066406 26.175781 C 9.191406 26.09375 9.3125 26.015625 9.441406 25.929688 C 9.925781 26.476562 10.214844 26.898438 10.3125 27.195312 C 10.558594 27.722656 10.890625 27.917969 11.363281 28.246094 C 12.023438 28.71875 12.605469 29.140625 13.042969 29.832031 C 13.074219 30.121094 13.074219 30.371094 13.042969 30.582031 L 13.941406 30.582031 C 13.9375 30.453125 13.929688 30.324219 13.921875 30.1875 C 13.867188 28.230469 14.199219 26.355469 14.542969 24.429688 L 16.042969 24.429688 C 16.046875 24.246094 16.046875 24.0625 16.050781 23.875 C 16.171875 18.53125 17.820312 13.171875 20.785156 8.714844 C 20.9375 8.484375 21.058594 8.222656 21.144531 7.925781 L 20.84375 7.925781 C 20.609375 7.457031 20.640625 7.09375 20.695312 6.574219 C 21.21875 5.972656 21.71875 5.886719 22.496094 5.824219 C 22.488281 5.6875 22.476562 5.554688 22.46875 5.414062 C 22.5 4.882812 22.574219 4.695312 22.945312 4.324219 L 23.246094 4.324219 C 23.171875 4.214844 23.097656 4.109375 23.019531 3.996094 C 22.78125 3.546875 22.714844 3.328125 22.796875 2.824219 C 22.871094 2.757812 22.945312 2.6875 23.019531 2.617188 C 23.375 2.234375 23.253906 1.828125 23.246094 1.324219 C 23.445312 1.125 23.667969 1.007812 23.910156 0.976562 Z M 20.996094 34.632812 L 20.996094 43.9375 L 26.996094 43.9375 L 26.996094 34.632812 Z M 20.996094 34.632812 " fill-opacity="1" fill-rule="nonzero"/></g></svg>