<svg xmlns="http://www.w3.org/2000/svg" xmlns:xlink="http://www.w3.org/1999/xlink" width="83" zoomAndPan="magnify" viewBox="0 0 62.25 55.499996" height="74" preserveAspectRatio="xMidYMid meet" version="1.0"><defs><clipPath id="8c6160ee43"><path d="M 0 0.0820312 L 60 0.0820312 L 60 54.179688 L 0 54.179688 Z M 0 0.0820312 " clip-rule="nonzero"/></clipPath></defs><g clip-path="url(#8c6160ee43)"><path fill="#000000" d="M 53.484375 12.808594 C 53.050781 11.226562 51.945312 8.460938 49.214844 6.328125 C 45.503906 3.441406 41.296875 3.6875 39.746094 3.902344 C 38.339844 2.679688 36.0625 1.203125 32.941406 0.75 C 28.949219 0.171875 25.78125 1.605469 24.375 2.414062 C 21.820312 1.058594 19.082031 0.59375 16.429688 1.0625 C 10.421875 2.136719 7.691406 7.550781 7.140625 8.789062 C 5.902344 9.203125 2.84375 10.511719 1.554688 13.65625 C 0.00390625 17.457031 1.757812 22.222656 5.636719 24.867188 C 5.621094 25.984375 5.820312 29.675781 8.859375 32.023438 C 10.011719 32.925781 11.398438 33.464844 12.890625 33.644531 C 11.8125 38.753906 13.34375 43.953125 17.058594 47.660156 C 20.058594 50.652344 24.003906 52.148438 27.945312 52.148438 C 31.890625 52.148438 35.832031 50.652344 38.835938 47.660156 C 39.097656 47.398438 39.34375 47.128906 39.582031 46.859375 C 40 47.625 40.394531 48.410156 40.726562 49.21875 C 41.125 50.1875 41.449219 51.1875 41.695312 52.195312 C 41.992188 53.375 43.046875 54.195312 44.246094 54.195312 C 44.304688 54.195312 44.359375 54.191406 44.414062 54.1875 C 45.574219 54.109375 46.539062 53.289062 46.8125 52.160156 C 47.003906 51.414062 47.175781 50.570312 47.351562 49.511719 C 47.714844 47.21875 47.828125 44.867188 47.695312 42.519531 C 48.621094 42.257812 49.8125 41.75 50.898438 40.753906 C 53.105469 38.75 53.5 36.101562 53.546875 34.789062 C 55.140625 33.796875 58.371094 31.324219 59.433594 27.082031 C 60.71875 21.929688 58.332031 16.21875 53.484375 12.808594 Z M 38.066406 46.894531 C 32.484375 52.457031 23.40625 52.460938 17.824219 46.894531 C 14.238281 43.316406 12.835938 38.242188 14.070312 33.308594 C 14.679688 30.835938 15.980469 28.558594 17.824219 26.714844 C 18.65625 25.886719 19.570312 25.167969 20.550781 24.582031 C 22.136719 23.621094 23.894531 22.988281 25.769531 22.710938 C 25.804688 22.703125 25.84375 22.695312 25.878906 22.683594 C 26.410156 22.605469 26.945312 22.554688 27.472656 22.535156 C 31.183594 22.40625 34.792969 23.714844 37.582031 26.253906 C 37.746094 26.394531 37.898438 26.546875 38.066406 26.714844 C 42.160156 30.800781 43.386719 36.894531 41.1875 42.242188 C 40.6875 43.445312 40.035156 44.5625 39.25 45.5625 C 38.890625 46.019531 38.492188 46.46875 38.066406 46.894531 Z M 46.277344 49.335938 C 46.109375 50.363281 45.941406 51.175781 45.757812 51.898438 C 45.59375 52.574219 45.023438 53.058594 44.339844 53.109375 C 43.589844 53.152344 42.929688 52.660156 42.746094 51.9375 C 42.488281 50.878906 42.148438 49.828125 41.730469 48.808594 C 41.324219 47.824219 40.855469 46.859375 40.328125 45.941406 C 40.554688 45.640625 40.742188 45.3125 40.945312 44.996094 C 41.0625 44.8125 41.195312 44.636719 41.304688 44.445312 C 41.570312 43.984375 41.800781 43.5 42.019531 43.007812 C 42.5 43.046875 42.980469 43.082031 43.417969 43.082031 C 44.675781 43.082031 45.757812 42.941406 46.609375 42.769531 C 46.722656 44.976562 46.617188 47.1875 46.28125 49.335938 Z M 58.378906 26.820312 C 57.351562 30.910156 54.085938 33.214844 52.730469 34.015625 C 52.566406 34.113281 52.464844 34.289062 52.464844 34.480469 C 52.464844 35.496094 52.242188 38.066406 50.164062 39.953125 C 49.066406 40.960938 47.839844 41.390625 47.007812 41.574219 C 47.003906 41.574219 47 41.574219 47 41.578125 C 46.996094 41.578125 46.996094 41.578125 46.992188 41.578125 C 45.957031 41.832031 44.371094 42.085938 42.445312 41.964844 C 44.425781 36.417969 43.078125 30.25 38.890625 26.015625 C 41.097656 25.03125 42.648438 24.128906 43.605469 22.285156 C 44.660156 20.242188 44.882812 17.105469 42.996094 14.703125 C 42.636719 14.234375 40.6875 11.90625 37.632812 12.152344 C 35.589844 12.3125 34.25 13.53125 33.769531 14.046875 C 33.566406 14.265625 33.578125 14.609375 33.796875 14.8125 C 34.015625 15.015625 34.359375 15.003906 34.5625 14.785156 C 34.957031 14.359375 36.058594 13.363281 37.71875 13.230469 C 40.214844 13.042969 41.835938 14.972656 42.140625 15.367188 C 43.722656 17.386719 43.507812 20.109375 42.640625 21.789062 C 41.78125 23.445312 40.304688 24.222656 38.019531 25.21875 C 35.222656 22.785156 31.695312 21.480469 28.074219 21.46875 C 29.566406 20.75 31.171875 20.210938 32.886719 19.890625 C 33.179688 19.835938 33.375 19.550781 33.320312 19.257812 C 33.265625 18.964844 32.984375 18.773438 32.6875 18.828125 C 30.042969 19.320312 27.621094 20.277344 25.488281 21.664062 C 23.652344 21.949219 21.933594 22.5625 20.355469 23.460938 C 19.949219 23.078125 19.539062 22.710938 19.128906 22.371094 C 19.140625 20.964844 19.46875 19.585938 20.109375 18.375 C 20.574219 17.5 21.644531 15.871094 23.605469 14.820312 C 24.761719 14.203125 25.667969 14.085938 26.542969 13.96875 C 27.53125 13.839844 28.464844 13.71875 29.476562 12.914062 C 30.585938 12.035156 31.324219 10.699219 31.667969 8.953125 C 31.726562 8.660156 31.535156 8.375 31.242188 8.316406 C 30.949219 8.253906 30.664062 8.449219 30.605469 8.742188 C 30.308594 10.230469 29.703125 11.351562 28.800781 12.066406 C 28.023438 12.683594 27.304688 12.777344 26.402344 12.898438 C 25.476562 13.019531 24.421875 13.15625 23.09375 13.867188 C 22.742188 14.054688 22.425781 14.261719 22.125 14.476562 C 22.21875 13.796875 22.238281 13.109375 22.167969 12.433594 C 21.929688 10.109375 20.777344 8.453125 20.113281 7.671875 C 19.921875 7.445312 19.578125 7.417969 19.347656 7.609375 C 19.121094 7.800781 19.09375 8.144531 19.285156 8.371094 C 19.867188 9.058594 20.878906 10.511719 21.089844 12.542969 C 21.195312 13.582031 21.074219 14.664062 20.746094 15.671875 C 19.964844 16.496094 19.445312 17.316406 19.152344 17.871094 C 18.550781 19.003906 18.195312 20.265625 18.082031 21.566406 C 17.941406 21.464844 17.796875 21.34375 17.660156 21.25 C 17.410156 21.085938 17.074219 21.148438 16.90625 21.394531 C 16.734375 21.644531 16.800781 21.980469 17.046875 22.148438 C 17.4375 22.410156 17.828125 22.710938 18.238281 23.035156 C 18.628906 23.347656 19.019531 23.695312 19.410156 24.054688 C 18.578125 24.609375 17.785156 25.230469 17.0625 25.949219 C 16.613281 26.394531 16.203125 26.867188 15.816406 27.355469 C 15.789062 27.390625 15.757812 27.425781 15.730469 27.460938 C 15.367188 27.933594 15.039062 28.425781 14.734375 28.933594 C 14.695312 28.992188 14.65625 29.050781 14.625 29.109375 C 14.332031 29.609375 14.078125 30.121094 13.847656 30.648438 C 13.8125 30.722656 13.777344 30.796875 13.746094 30.875 C 13.527344 31.394531 13.34375 31.929688 13.183594 32.472656 C 13.171875 32.515625 13.148438 32.558594 13.136719 32.605469 C 11.796875 32.464844 10.554688 31.972656 9.53125 31.167969 C 6.445312 28.789062 6.71875 24.792969 6.730469 24.625 C 6.746094 24.425781 6.652344 24.234375 6.484375 24.128906 C 2.855469 21.796875 1.171875 17.472656 2.5625 14.0625 C 3.746094 11.167969 6.710938 10.050781 7.65625 9.757812 C 8.5625 9.695312 9.886719 9.796875 11.234375 10.554688 C 13.480469 11.816406 14.1875 14.082031 14.351562 14.746094 C 14.410156 14.992188 14.632812 15.160156 14.875 15.160156 C 14.917969 15.160156 14.964844 15.152344 15.003906 15.140625 C 15.296875 15.070312 15.476562 14.777344 15.402344 14.488281 C 15.214844 13.71875 14.394531 11.089844 11.765625 9.609375 C 10.558594 8.933594 9.367188 8.707031 8.402344 8.667969 C 9.261719 6.980469 11.773438 2.992188 16.621094 2.125 C 18.871094 1.726562 21.203125 2.082031 23.40625 3.144531 C 23.148438 3.351562 22.882812 3.554688 22.640625 3.773438 C 22.195312 4.175781 21.765625 4.605469 21.367188 5.046875 C 21.164062 5.265625 21.179688 5.609375 21.402344 5.808594 C 21.507812 5.902344 21.636719 5.949219 21.765625 5.949219 C 21.914062 5.949219 22.0625 5.890625 22.167969 5.773438 C 22.546875 5.359375 22.949219 4.953125 23.371094 4.574219 C 23.792969 4.191406 24.242188 3.824219 24.707031 3.472656 C 25.867188 2.769531 28.902344 1.25 32.785156 1.820312 C 35.785156 2.253906 37.9375 3.722656 39.210938 4.875 C 39.214844 4.882812 39.222656 4.882812 39.230469 4.886719 C 39.242188 4.898438 39.25 4.914062 39.265625 4.925781 C 39.910156 5.375 40.453125 5.941406 40.878906 6.597656 C 41.265625 7.195312 41.542969 7.851562 41.699219 8.550781 C 41.757812 8.804688 41.980469 8.976562 42.226562 8.976562 C 42.265625 8.976562 42.308594 8.972656 42.347656 8.960938 C 42.640625 8.894531 42.824219 8.605469 42.757812 8.316406 C 42.570312 7.492188 42.246094 6.714844 41.789062 6.007812 C 41.523438 5.601562 41.214844 5.226562 40.875 4.882812 C 42.675781 4.785156 45.761719 5.015625 48.542969 7.179688 C 51.140625 9.203125 52.125 11.867188 52.484375 13.273438 C 52.515625 13.398438 52.59375 13.511719 52.703125 13.585938 C 57.289062 16.726562 59.570312 22.042969 58.378906 26.820312 Z M 58.378906 26.820312 " fill-opacity="1" fill-rule="nonzero"/></g><path fill="#000000" d="M 7.152344 16.140625 C 6.851562 16.144531 6.613281 16.386719 6.613281 16.6875 C 6.617188 16.984375 6.863281 17.222656 7.15625 17.222656 L 7.164062 17.222656 C 7.195312 17.230469 10.261719 17.210938 11.863281 19.785156 C 12.898438 21.449219 12.945312 23.554688 11.988281 25.28125 C 11.84375 25.542969 11.9375 25.875 12.199219 26.019531 C 12.28125 26.0625 12.371094 26.085938 12.460938 26.085938 C 12.652344 26.085938 12.839844 25.984375 12.9375 25.804688 C 14.085938 23.738281 14.027344 21.210938 12.785156 19.210938 C 10.867188 16.125 7.304688 16.132812 7.148438 16.136719 Z M 7.152344 16.140625 " fill-opacity="1" fill-rule="nonzero"/><path fill="#000000" d="M 51.46875 21.503906 C 51.171875 21.535156 50.957031 21.804688 50.992188 22.101562 C 50.996094 22.140625 51.410156 26.09375 48.523438 28.203125 C 47.03125 29.289062 45.378906 29.378906 44.53125 29.335938 C 44.234375 29.292969 43.976562 29.550781 43.960938 29.847656 C 43.945312 30.148438 44.175781 30.402344 44.472656 30.417969 C 44.589844 30.421875 44.722656 30.425781 44.863281 30.425781 C 45.921875 30.425781 47.609375 30.210938 49.164062 29.074219 C 52.554688 26.601562 52.089844 22.167969 52.066406 21.980469 C 52.035156 21.683594 51.769531 21.46875 51.46875 21.503906 Z M 51.46875 21.503906 " fill-opacity="1" fill-rule="nonzero"/><path fill="#000000" d="M 30.492188 25.726562 C 27.828125 24.875 24.980469 25.40625 22.863281 27.148438 C 21.539062 28.238281 20.617188 29.6875 20.199219 31.339844 C 20.046875 31.933594 20.179688 32.554688 20.5625 33.042969 C 20.957031 33.550781 21.550781 33.839844 22.191406 33.839844 C 23.125 33.839844 23.933594 33.222656 24.15625 32.339844 C 24.363281 31.53125 24.8125 30.824219 25.460938 30.289062 C 26.378906 29.535156 27.546875 29.246094 28.75 29.480469 C 30.230469 29.765625 31.371094 30.839844 31.726562 32.28125 C 32.179688 34.097656 31.351562 35.945312 29.714844 36.773438 C 28.070312 37.609375 26.84375 39 26.261719 40.691406 C 26.046875 41.320312 26.148438 41.992188 26.535156 42.535156 C 26.917969 43.070312 27.542969 43.390625 28.203125 43.390625 C 29.082031 43.390625 29.851562 42.851562 30.117188 42.046875 C 30.347656 41.347656 30.863281 40.761719 31.566406 40.40625 C 34.871094 38.726562 36.574219 35.015625 35.710938 31.378906 C 35.082031 28.71875 33.078125 26.554688 30.492188 25.722656 Z M 31.074219 39.441406 C 30.113281 39.929688 29.40625 40.734375 29.085938 41.714844 C 28.882812 42.335938 27.839844 42.492188 27.417969 41.910156 C 27.234375 41.652344 27.1875 41.339844 27.289062 41.042969 C 27.777344 39.621094 28.816406 38.445312 30.207031 37.742188 C 32.296875 36.679688 33.355469 34.332031 32.78125 32.023438 C 32.320312 30.167969 30.855469 28.785156 28.957031 28.417969 C 28.613281 28.351562 28.273438 28.316406 27.9375 28.316406 C 26.777344 28.316406 25.683594 28.707031 24.773438 29.457031 C 23.945312 30.136719 23.367188 31.042969 23.105469 32.078125 C 22.933594 32.757812 21.878906 32.96875 21.417969 32.378906 C 21.242188 32.15625 21.183594 31.871094 21.25 31.605469 C 21.613281 30.179688 22.40625 28.921875 23.554688 27.980469 C 25.382812 26.476562 27.851562 26.019531 30.160156 26.757812 C 32.390625 27.472656 34.113281 29.339844 34.65625 31.628906 C 35.414062 34.828125 33.976562 37.96875 31.074219 39.441406 Z M 31.074219 39.441406 " fill-opacity="1" fill-rule="nonzero"/><path fill="#000000" d="M 27.945312 44.144531 C 26.804688 44.144531 25.871094 45.070312 25.871094 46.210938 C 25.871094 47.351562 26.804688 48.277344 27.945312 48.277344 C 29.089844 48.277344 30.019531 47.351562 30.019531 46.210938 C 30.019531 45.070312 29.089844 44.144531 27.945312 44.144531 Z M 27.945312 47.195312 C 27.402344 47.195312 26.957031 46.753906 26.957031 46.210938 C 26.957031 45.667969 27.402344 45.226562 27.945312 45.226562 C 28.492188 45.226562 28.933594 45.667969 28.933594 46.210938 C 28.933594 46.753906 28.492188 47.195312 27.945312 47.195312 Z M 27.945312 47.195312 " fill-opacity="1" fill-rule="nonzero"/></svg>