<svg xmlns="http://www.w3.org/2000/svg" xmlns:xlink="http://www.w3.org/1999/xlink" width="80" zoomAndPan="magnify" viewBox="0 0 60 60" height="80" preserveAspectRatio="xMidYMid meet" version="1.0"><defs><clipPath id="2c2429b9f0"><path d="M 0 4.050781 L 60 4.050781 L 60 52.050781 L 0 52.050781 Z M 0 4.050781 " clip-rule="nonzero"/></clipPath></defs><g clip-path="url(#2c2429b9f0)"><path fill="#fecc81" d="M 29.976562 4.070312 C 29.988281 4.058594 30.007812 4.058594 30.019531 4.070312 C 30.636719 4.667969 31.117188 5.136719 31.457031 5.472656 C 33.878906 7.875 35.976562 10.675781 37.417969 13.75 C 38.410156 15.863281 39.042969 18.070312 39.316406 20.375 C 39.351562 20.699219 39.351562 21.035156 39.402344 21.359375 C 39.414062 21.449219 39.421875 21.582031 39.425781 21.753906 C 39.4375 22.53125 39.4375 23.261719 39.425781 23.949219 C 39.425781 24.179688 39.414062 24.359375 39.394531 24.488281 C 39.359375 24.734375 39.363281 24.96875 39.339844 25.210938 C 38.925781 29.453125 37.527344 33.507812 35.335938 37.199219 C 34.265625 39.003906 33.1875 40.632812 31.898438 42.121094 C 31.324219 42.785156 30.710938 43.367188 30.0625 43.875 C 30.027344 43.902344 29.980469 43.902344 29.949219 43.878906 C 29.785156 43.75 29.597656 43.589844 29.386719 43.394531 C 28.527344 42.585938 27.710938 41.65625 26.933594 40.601562 C 26 39.332031 25.140625 37.988281 24.355469 36.574219 C 22.316406 32.898438 20.984375 29.058594 20.675781 24.960938 C 20.648438 24.621094 20.613281 24.367188 20.605469 24.074219 C 20.574219 22.933594 20.578125 22.007812 20.617188 21.292969 C 20.78125 18.425781 21.527344 15.691406 22.863281 13.082031 C 24.171875 10.539062 25.871094 8.21875 27.832031 6.183594 C 28.5625 5.421875 29.28125 4.71875 29.976562 4.070312 Z M 24.242188 35.835938 C 26.292969 34.558594 28.1875 33.335938 29.921875 32.164062 C 29.9375 32.152344 29.960938 32.152344 29.976562 32.164062 L 35.660156 35.785156 C 35.664062 35.789062 35.671875 35.785156 35.675781 35.777344 C 35.679688 35.777344 35.679688 35.773438 35.679688 35.769531 L 33.761719 29.453125 C 33.746094 29.40625 33.761719 29.359375 33.796875 29.328125 C 35.597656 27.785156 37.402344 26.320312 39.21875 24.933594 C 39.226562 24.925781 39.226562 24.914062 39.222656 24.90625 C 39.21875 24.902344 39.210938 24.898438 39.207031 24.898438 C 38.839844 24.898438 38.511719 24.863281 38.117188 24.859375 C 36.132812 24.855469 34.398438 24.855469 32.921875 24.863281 C 32.859375 24.863281 32.71875 24.859375 32.507812 24.851562 C 32.472656 24.851562 32.4375 24.828125 32.425781 24.792969 L 29.992188 18.507812 C 29.988281 18.496094 29.976562 18.492188 29.964844 18.496094 C 29.957031 18.496094 29.953125 18.503906 29.953125 18.507812 L 27.578125 24.816406 C 27.570312 24.839844 27.546875 24.855469 27.523438 24.859375 L 20.855469 24.917969 C 20.839844 24.917969 20.832031 24.929688 20.832031 24.941406 C 20.832031 24.949219 20.835938 24.953125 20.839844 24.957031 C 22.980469 26.730469 24.722656 28.179688 26.066406 29.308594 C 26.136719 29.367188 26.160156 29.4375 26.132812 29.519531 C 25.5625 31.375 24.917969 33.472656 24.199219 35.804688 C 24.195312 35.820312 24.203125 35.835938 24.21875 35.839844 C 24.226562 35.84375 24.234375 35.839844 24.242188 35.835938 Z M 22.261719 35.859375 C 22.265625 35.875 22.261719 35.890625 22.246094 35.894531 C 22.234375 35.898438 22.222656 35.898438 22.214844 35.890625 C 21.140625 34.730469 20.09375 33.675781 19.070312 32.722656 C 18.214844 31.925781 17.261719 31.171875 16.214844 30.457031 C 14.363281 29.199219 12.332031 28.351562 10.191406 27.964844 C 10.164062 27.960938 10.136719 27.949219 10.117188 27.933594 C 10.058594 27.886719 10.011719 27.832031 9.972656 27.769531 C 8.496094 25.152344 7.648438 22.199219 7.472656 19.199219 C 7.453125 18.867188 7.445312 18.140625 7.457031 17.015625 C 7.460938 16.628906 7.507812 16.359375 7.53125 15.933594 C 7.558594 15.476562 7.648438 14.773438 7.808594 13.832031 C 7.808594 13.808594 7.828125 13.792969 7.851562 13.792969 C 8.027344 13.777344 8.179688 13.777344 8.304688 13.785156 C 10.597656 13.960938 12.957031 14.589844 14.964844 15.542969 C 16.644531 16.339844 18.097656 17.417969 19.320312 18.773438 C 19.449219 18.917969 19.460938 18.941406 19.425781 19.148438 C 19.25 20.082031 19.144531 20.90625 19.101562 21.621094 C 19.074219 22.0625 19.070312 22.695312 19.09375 23.523438 C 19.109375 24.105469 19.183594 24.964844 19.316406 26.097656 C 19.5 27.628906 19.808594 29.1875 20.242188 30.773438 C 20.652344 32.265625 21.175781 33.683594 21.851562 35.027344 C 22.039062 35.398438 22.175781 35.675781 22.261719 35.859375 Z M 37.429688 36.394531 C 37.425781 36.394531 37.425781 36.386719 37.421875 36.371094 C 37.421875 36.363281 37.425781 36.355469 37.429688 36.347656 C 37.738281 35.828125 38.023438 35.292969 38.277344 34.746094 C 39.894531 31.242188 40.746094 27.382812 40.941406 23.542969 C 40.949219 23.390625 40.953125 22.957031 40.953125 22.238281 C 40.953125 21.734375 40.933594 21.300781 40.902344 20.9375 C 40.839844 20.265625 40.742188 19.640625 40.605469 19.0625 C 40.601562 19.039062 40.605469 19.011719 40.625 18.992188 C 43.261719 15.988281 47.078125 14.382812 51.019531 13.867188 C 51.425781 13.8125 51.808594 13.785156 52.171875 13.78125 C 52.199219 13.78125 52.21875 13.796875 52.226562 13.824219 C 52.339844 14.386719 52.429688 15.03125 52.496094 15.757812 C 52.53125 16.152344 52.566406 16.351562 52.578125 16.675781 C 52.59375 17.191406 52.601562 17.613281 52.605469 17.9375 C 52.621094 21.210938 51.917969 24.25 50.492188 27.046875 C 50.269531 27.480469 50.097656 27.792969 49.96875 27.976562 C 49.929688 28.03125 49.859375 28.070312 49.753906 28.089844 C 48.113281 28.363281 46.546875 28.921875 45.054688 29.761719 C 43.410156 30.6875 41.949219 31.902344 40.59375 33.21875 C 39.480469 34.296875 38.4375 35.355469 37.472656 36.394531 C 37.460938 36.40625 37.441406 36.40625 37.429688 36.394531 Z M 24.242188 35.835938 C 24.226562 35.84375 24.210938 35.839844 24.203125 35.828125 C 24.199219 35.820312 24.199219 35.8125 24.199219 35.804688 C 24.917969 33.472656 25.5625 31.375 26.132812 29.519531 C 26.160156 29.4375 26.136719 29.367188 26.066406 29.308594 C 24.722656 28.179688 22.980469 26.730469 20.839844 24.957031 C 20.832031 24.949219 20.828125 24.9375 20.835938 24.925781 C 20.84375 24.921875 20.847656 24.917969 20.855469 24.917969 L 27.523438 24.859375 C 27.546875 24.855469 27.570312 24.839844 27.578125 24.816406 L 29.953125 18.507812 C 29.957031 18.496094 29.96875 18.492188 29.980469 18.496094 C 29.984375 18.496094 29.992188 18.503906 29.992188 18.507812 L 32.425781 24.792969 C 32.4375 24.828125 32.472656 24.851562 32.507812 24.851562 C 32.71875 24.859375 32.859375 24.863281 32.921875 24.863281 C 34.398438 24.855469 36.132812 24.855469 38.117188 24.859375 C 38.511719 24.863281 38.839844 24.898438 39.207031 24.898438 C 39.214844 24.898438 39.226562 24.90625 39.226562 24.917969 C 39.226562 24.921875 39.222656 24.929688 39.21875 24.933594 C 37.402344 26.320312 35.597656 27.785156 33.796875 29.328125 C 33.761719 29.359375 33.746094 29.40625 33.761719 29.453125 L 35.679688 35.769531 C 35.679688 35.777344 35.675781 35.785156 35.667969 35.785156 C 35.664062 35.785156 35.664062 35.785156 35.660156 35.785156 L 29.976562 32.164062 C 29.960938 32.152344 29.9375 32.152344 29.921875 32.164062 C 28.1875 33.335938 26.292969 34.558594 24.242188 35.835938 Z M 28.703125 44.660156 C 28.710938 44.667969 28.710938 44.679688 28.703125 44.6875 C 28.703125 44.691406 28.699219 44.691406 28.699219 44.695312 C 27.894531 45.050781 27.066406 45.339844 26.214844 45.570312 C 24.558594 46.011719 22.882812 46.257812 21.191406 46.304688 C 20.929688 46.3125 20.679688 46.308594 20.445312 46.296875 C 18.082031 46.183594 15.820312 45.742188 13.65625 44.972656 C 9.734375 43.582031 6.328125 40.933594 3.886719 37.566406 C 2.761719 36.011719 1.777344 34.304688 1.007812 32.550781 C 0.640625 31.71875 0.308594 30.925781 0.0078125 30.175781 C 0.00390625 30.160156 0.0117188 30.140625 0.0273438 30.132812 C 0.46875 29.964844 0.824219 29.832031 1.097656 29.730469 C 3.195312 28.972656 5.285156 28.726562 7.507812 28.933594 C 10.605469 29.222656 13.425781 30.277344 15.964844 32.09375 C 16.847656 32.722656 17.679688 33.414062 18.460938 34.167969 C 19.121094 34.804688 19.847656 35.535156 20.636719 36.363281 C 23.914062 39.804688 25.558594 41.53125 25.570312 41.542969 C 26.785156 42.789062 27.828125 43.832031 28.703125 44.660156 Z M 31.285156 44.667969 C 31.273438 44.664062 31.265625 44.652344 31.273438 44.640625 C 31.273438 44.636719 31.277344 44.632812 31.277344 44.632812 C 32.097656 43.964844 32.882812 43.261719 33.640625 42.511719 C 35.402344 40.769531 37.046875 39.011719 38.796875 37.128906 C 39.164062 36.734375 39.703125 36.171875 40.421875 35.441406 C 41.335938 34.503906 42.316406 33.53125 43.441406 32.640625 C 45.792969 30.78125 48.449219 29.605469 51.40625 29.117188 C 52.644531 28.914062 53.949219 28.867188 55.324219 28.972656 C 56.894531 29.097656 58.46875 29.546875 59.941406 30.132812 C 59.980469 30.148438 60 30.195312 59.988281 30.234375 C 58.945312 33.214844 57.496094 35.964844 55.511719 38.433594 C 52.859375 41.742188 49.117188 44.296875 44.988281 45.433594 C 43.1875 45.929688 41.480469 46.214844 39.863281 46.289062 C 38.234375 46.367188 36.640625 46.230469 35.082031 45.882812 C 33.757812 45.585938 32.492188 45.179688 31.285156 44.667969 Z M 30.007812 48.46875 C 29.519531 49.234375 28.925781 49.882812 28.230469 50.417969 C 26.816406 51.503906 24.886719 52.070312 23.042969 52.234375 C 22.503906 52.285156 22.179688 52.328125 21.777344 52.332031 C 21.375 52.332031 20.796875 52.332031 20.042969 52.332031 C 20.015625 52.332031 19.996094 52.3125 19.996094 52.285156 C 19.996094 52.28125 19.996094 52.277344 20 52.273438 C 20.460938 51.015625 21.125 49.875 21.988281 48.851562 C 22.144531 48.664062 22.285156 48.5 22.402344 48.367188 C 22.667969 48.070312 22.867188 47.835938 23.273438 47.769531 C 25.566406 47.386719 27.914062 46.734375 29.941406 45.609375 C 29.964844 45.59375 29.996094 45.59375 30.019531 45.605469 C 30.726562 45.984375 31.488281 46.316406 32.296875 46.605469 C 33.738281 47.113281 35.222656 47.496094 36.75 47.753906 C 36.816406 47.765625 36.914062 47.792969 37.042969 47.835938 C 37.097656 47.851562 37.144531 47.882812 37.1875 47.917969 C 37.40625 48.113281 37.597656 48.304688 37.765625 48.492188 C 38.742188 49.59375 39.511719 50.835938 40.070312 52.210938 C 40.078125 52.230469 40.070312 52.253906 40.050781 52.261719 C 40.046875 52.261719 40.042969 52.261719 40.039062 52.261719 C 39.199219 52.273438 38.449219 52.265625 37.785156 52.242188 C 37.425781 52.230469 36.886719 52.171875 36.171875 52.074219 C 33.753906 51.734375 31.363281 50.644531 30.0625 48.472656 C 30.054688 48.457031 30.035156 48.449219 30.019531 48.460938 C 30.015625 48.460938 30.011719 48.464844 30.007812 48.46875 Z M 30.007812 48.46875 " fill-opacity="1" fill-rule="nonzero"/></g></svg>